<svg width="2361" height="609" viewBox="0 0 2361 609" fill="none" xmlns="http://www.w3.org/2000/svg">
<g opacity="0.279">
<path opacity="0.279" d="M0 407.663C38.386 407.663 76.288 377.502 163.221 290.569C195.838 257.952 261.863 456.629 345.6 462.305C429.337 467.981 485.4 252.957 608.882 389.211C732.364 525.465 805.459 706.427 870.037 542.497C909.091 443.359 960.164 274.957 1029.71 274.957C1083.64 274.957 1154.83 555.351 1376.02 447.402C1613.05 331.728 1805.36 264.312 1805.36 264.312" stroke="white" stroke-opacity="0.3" stroke-width="0.75" stroke-miterlimit="10"/>
<path opacity="0.279" d="M0 401.129C38.766 401.129 79.03 370.755 167.748 291.299C201.071 261.455 264.459 446.899 349.029 452.209C433.599 457.519 490.217 256.509 614.921 383.88C739.625 511.251 813.445 680.417 878.665 527.173C918.106 434.499 969.685 277.073 1039.92 277.073C1094.39 277.073 1166.28 539.189 1389.67 438.278C1629.04 330.144 1823.27 267.122 1823.27 267.122" stroke="white" stroke-opacity="0.3" stroke-width="0.75" stroke-miterlimit="10"/>
<path opacity="0.279" d="M0 394.595C39.147 394.595 81.88 363.938 172.274 292.03C206.349 264.927 267.056 437.178 352.456 442.115C437.856 447.052 495.031 260.061 620.956 378.55C746.881 497.039 821.428 654.408 887.288 511.85C927.116 425.638 979.202 279.191 1050.13 279.191C1105.13 279.191 1177.73 523.029 1403.31 429.154C1645.03 328.562 1841.16 269.934 1841.16 269.934" stroke="white" stroke-opacity="0.3" stroke-width="0.75" stroke-miterlimit="10"/>
<path opacity="0.279" d="M0 388.062C39.528 388.062 84.859 357.07 176.8 292.762C211.682 268.362 269.651 427.453 355.882 432.019C442.113 436.585 499.844 263.614 627 373.221C754.156 482.828 829.419 628.399 895.918 496.528C936.134 416.778 988.725 281.31 1060.34 281.31C1115.88 281.31 1189.18 506.868 1416.95 420.031C1661.03 326.98 1859.07 272.747 1859.07 272.747" stroke="white" stroke-opacity="0.3" stroke-width="0.75" stroke-miterlimit="10"/>
<path opacity="0.279" d="M0 381.531C39.908 381.531 87.993 350.177 181.328 293.494C217.078 271.783 272.249 417.729 359.31 421.922C446.371 426.115 504.656 267.167 633.034 367.892C761.412 468.617 837.406 602.392 904.546 481.207C945.146 407.921 998.246 283.43 1070.55 283.43C1126.63 283.43 1200.63 490.71 1430.6 410.91C1677.02 325.399 1876.97 275.561 1876.97 275.561" stroke="white" stroke-opacity="0.3" stroke-width="0.75" stroke-miterlimit="10"/>
<path opacity="0.279" d="M0 374.998C40.289 374.998 91.295 343.289 185.855 294.226C222.54 275.191 274.845 408.003 362.736 411.826C450.627 415.649 509.47 270.719 639.071 362.562C768.672 454.405 845.392 576.382 913.171 465.884C954.161 399.061 1007.77 285.548 1080.76 285.548C1137.37 285.548 1212.08 474.548 1444.24 401.786C1693.02 323.815 1894.87 278.369 1894.87 278.369" stroke="white" stroke-opacity="0.3" stroke-width="0.75" stroke-miterlimit="10"/>
<path opacity="0.279" d="M0 368.465C40.669 368.465 94.774 336.446 190.382 294.958C228.074 278.601 277.443 398.279 366.163 401.736C454.883 405.193 514.283 274.271 645.11 357.231C775.937 440.191 853.379 550.373 921.8 450.561C963.177 390.2 1017.29 287.666 1090.97 287.666C1148.11 287.666 1223.53 458.388 1457.89 392.666C1709.01 322.236 1912.77 281.189 1912.77 281.189" stroke="white" stroke-opacity="0.3" stroke-width="0.75" stroke-miterlimit="10"/>
<path opacity="0.279" d="M0 361.931C41.051 361.931 98.429 329.682 194.908 295.688C233.678 282.026 280.038 388.554 369.59 391.64C459.142 394.726 519.1 277.823 651.147 351.9C783.194 425.977 861.366 524.362 930.427 435.238C972.191 381.338 1026.81 289.783 1101.18 289.783C1158.86 289.783 1234.98 442.227 1471.53 383.538C1725.01 320.648 1930.67 283.996 1930.67 283.996" stroke="white" stroke-opacity="0.3" stroke-width="0.75" stroke-miterlimit="10"/>
<path opacity="0.279" d="M0 355.399C41.431 355.399 102.244 323.041 199.435 296.42C239.349 285.487 282.635 378.829 373.017 381.546C463.399 384.263 523.909 281.376 657.184 346.571C790.459 411.766 869.352 498.355 939.053 419.916C981.205 372.48 1036.33 291.902 1111.39 291.902C1169.6 291.902 1246.43 426.066 1485.18 374.414C1741 319.066 1948.58 286.809 1948.58 286.809" stroke="white" stroke-opacity="0.3" stroke-width="0.75" stroke-miterlimit="10"/>
<path opacity="0.279" d="M0 348.867C41.811 348.867 106.2 316.548 203.962 297.152C245.075 288.996 285.232 369.105 376.445 371.452C467.658 373.799 528.723 284.928 663.224 341.242C797.725 397.556 877.341 472.342 947.683 404.594C990.222 363.621 1045.85 294.021 1121.6 294.021C1180.35 294.021 1257.89 409.907 1498.82 365.292C1757 317.485 1966.48 289.622 1966.48 289.622" stroke="white" stroke-opacity="0.3" stroke-width="0.75" stroke-miterlimit="10"/>
<path opacity="0.279" d="M0 342.333C42.192 342.333 110.252 310.221 208.489 297.882C250.844 292.562 287.829 359.382 379.871 361.355C471.913 363.328 533.536 288.48 669.26 335.91C804.984 383.34 885.327 446.335 956.308 389.27C999.234 354.76 1055.37 296.138 1131.81 296.138C1191.09 296.138 1269.34 393.745 1512.46 356.167C1772.99 315.9 1984.38 292.432 1984.38 292.432" stroke="white" stroke-opacity="0.3" stroke-width="0.75" stroke-miterlimit="10"/>
<path opacity="0.279" d="M0 335.8C42.572 335.8 115.026 286.047 213.016 298.613C256.354 304.171 290.425 349.65 383.3 351.26C476.175 352.87 538.351 292.032 675.3 330.581C812.249 369.13 893.313 420.326 964.935 373.95C1008.25 345.902 1064.89 298.258 1142.02 298.258C1201.84 298.258 1280.79 377.587 1526.11 347.046C1788.99 314.32 2002.28 295.246 2002.28 295.246" stroke="white" stroke-opacity="0.3" stroke-width="0.75" stroke-miterlimit="10"/>
<path opacity="0.279" d="M0 329.268C42.954 329.268 120.424 280.013 217.542 299.345C261.592 308.114 293.022 339.93 386.725 341.166C480.428 342.402 543.162 295.585 681.334 325.251C819.506 354.917 901.3 394.316 973.563 358.626C1017.26 337.041 1074.41 300.375 1152.23 300.375C1212.59 300.375 1292.23 361.425 1539.75 337.922C1804.98 312.737 2020.18 298.058 2020.18 298.058" stroke="white" stroke-opacity="0.3" stroke-width="0.75" stroke-miterlimit="10"/>
<path opacity="0.279" d="M0 322.735C43.334 322.735 125.715 274.454 222.069 300.076C266.847 311.983 295.618 330.204 390.152 331.07C484.686 331.936 547.975 299.137 687.373 319.916C826.771 340.695 909.286 368.303 982.19 343.298C1026.28 328.176 1083.94 302.487 1162.45 302.487C1223.33 302.487 1303.69 345.259 1553.4 328.792C1820.98 311.147 2038.08 300.863 2038.08 300.863" stroke="white" stroke-opacity="0.3" stroke-width="0.75" stroke-miterlimit="10"/>
<path opacity="0.279" d="M0 316.201C43.715 316.201 126.783 286.619 226.6 300.801C274.058 307.546 298.22 320.474 393.584 320.969C488.948 321.464 552.794 302.683 693.415 314.584C834.036 326.485 917.274 342.301 990.817 327.98C1035.29 319.32 1093.45 304.612 1172.66 304.612C1234.08 304.612 1315.14 329.103 1567.04 319.674C1836.97 309.574 2055.98 303.681 2055.98 303.681" stroke="white" stroke-opacity="0.3" stroke-width="0.75" stroke-miterlimit="10"/>
<path opacity="0.279" d="M0 309.669C44.095 309.669 130.836 281.076 231.123 301.539C279.823 311.475 300.811 310.754 397.006 310.88C493.201 311.006 557.606 306.241 699.447 309.26C841.288 312.279 925.26 316.289 999.447 312.66C1044.31 310.46 1102.98 306.732 1182.87 306.732C1244.83 306.732 1326.59 312.945 1580.69 310.553C1852.97 307.99 2073.89 306.497 2073.89 306.497" stroke="white" stroke-opacity="0.3" stroke-width="0.75" stroke-miterlimit="10"/>
<path opacity="0.279" d="M0 303.137C44.475 303.137 134.814 275.63 235.65 302.271C285.55 315.453 303.408 301.03 400.433 300.786C497.458 300.542 562.414 309.794 705.486 303.931C848.558 298.068 933.247 290.281 1008.07 297.331C1053.32 301.597 1112.5 308.843 1193.08 308.843C1255.57 308.843 1338.04 296.777 1594.33 301.422C1868.96 306.399 2091.79 309.301 2091.79 309.301" stroke="white" stroke-opacity="0.3" stroke-width="0.75" stroke-miterlimit="10"/>
<path opacity="0.279" d="M0 296.604C44.857 296.604 138.711 270.259 240.176 303.004C291.235 319.48 306.004 291.304 403.86 290.693C501.716 290.082 567.228 313.349 711.523 298.603C855.818 283.857 941.233 264.269 1016.7 282.012C1062.34 292.74 1122.02 310.965 1203.29 310.965C1266.31 310.965 1349.5 280.621 1607.98 292.303C1884.96 304.821 2109.69 312.117 2109.69 312.117" stroke="white" stroke-opacity="0.3" stroke-width="0.75" stroke-miterlimit="10"/>
<path opacity="0.279" d="M0 290.071C45.237 290.071 142.521 264.943 244.7 303.733C296.877 323.54 308.6 281.58 407.284 280.596C505.968 279.612 572.038 316.896 717.557 293.27C863.076 269.644 949.217 238.263 1025.32 266.689C1071.35 283.88 1131.54 313.083 1213.49 313.083C1277.05 313.083 1360.94 264.46 1621.62 283.183C1900.95 303.242 2127.59 314.933 2127.59 314.933" stroke="white" stroke-opacity="0.3" stroke-width="0.75" stroke-miterlimit="10"/>
<path opacity="0.279" d="M0 283.538C45.618 283.538 146.244 259.661 249.23 304.464C302.481 327.63 311.198 271.855 410.714 270.5C510.23 269.145 576.855 320.45 723.6 287.941C870.345 255.432 957.21 212.253 1033.95 251.367C1080.37 275.022 1141.06 315.202 1223.71 315.202C1287.8 315.202 1372.4 248.302 1635.27 274.057C1916.95 301.657 2145.5 317.742 2145.5 317.742" stroke="white" stroke-opacity="0.3" stroke-width="0.75" stroke-miterlimit="10"/>
<path opacity="0.279" d="M0 277.006C46 277.006 149.884 254.406 253.757 305.196C308.04 331.74 313.794 262.13 414.14 260.406C514.486 258.682 581.667 324.006 729.64 282.611C877.613 241.216 965.198 186.244 1042.58 236.044C1089.38 266.161 1150.58 317.32 1233.92 317.32C1298.55 317.32 1383.85 232.139 1648.91 264.934C1932.94 300.073 2163.4 320.554 2163.4 320.554" stroke="white" stroke-opacity="0.3" stroke-width="0.75" stroke-miterlimit="10"/>
<path opacity="0.279" d="M0 270.473C46.379 270.473 153.447 249.148 258.284 305.927C313.559 335.864 316.391 252.405 417.567 250.311C518.743 248.217 586.48 327.556 735.673 277.281C884.866 227.006 973.181 160.236 1051.21 220.722C1098.39 257.301 1160.1 319.437 1244.13 319.437C1309.29 319.437 1395.3 215.978 1662.55 255.808C1948.93 298.49 2181.3 323.365 2181.3 323.365" stroke="white" stroke-opacity="0.3" stroke-width="0.75" stroke-miterlimit="10"/>
<path opacity="0.279" d="M0 263.94C46.76 263.94 156.937 243.894 262.81 306.658C319.042 339.994 318.987 242.681 420.994 240.215C523.001 237.749 591.294 331.107 741.71 271.95C892.126 212.793 981.167 134.225 1059.83 205.399C1107.41 248.44 1169.62 321.556 1254.33 321.556C1320.03 321.556 1406.74 199.817 1676.19 246.685C1964.92 296.907 2199.19 326.177 2199.19 326.177" stroke="white" stroke-opacity="0.3" stroke-width="0.75" stroke-miterlimit="10"/>
<path opacity="0.279" d="M0 257.407C47.14 257.407 160.363 238.632 267.337 307.389C324.492 344.126 321.584 232.955 424.421 230.12C527.258 227.285 596.107 334.659 747.748 266.62C899.389 198.581 989.154 108.22 1068.46 190.076C1116.42 239.581 1179.14 323.676 1264.55 323.676C1330.78 323.676 1418.2 183.659 1689.84 237.563C1980.92 295.325 2217.1 328.99 2217.1 328.99" stroke="white" stroke-opacity="0.3" stroke-width="0.75" stroke-miterlimit="10"/>
<path opacity="0.279" d="M0 250.874C47.521 250.874 163.731 233.355 271.864 308.12C329.913 348.256 324.181 223.23 427.849 220.025C531.517 216.82 600.921 338.212 753.787 261.289C906.653 184.366 997.141 82.2073 1077.09 174.752C1125.44 230.72 1188.66 325.791 1274.76 325.791C1341.53 325.791 1429.65 167.491 1703.48 228.437C1996.92 293.737 2235 331.801 2235 331.801" stroke="white" stroke-opacity="0.3" stroke-width="0.75" stroke-miterlimit="10"/>
<path opacity="0.279" d="M0 244.342C47.9 244.342 167.048 228.062 276.391 308.852C335.308 352.385 326.777 213.505 431.275 209.93C535.773 206.355 605.733 341.764 759.823 255.96C913.913 170.156 1005.12 56.1976 1085.72 159.432C1134.45 221.861 1198.18 327.911 1284.97 327.911C1352.27 327.911 1441.1 151.336 1717.13 219.311C2012.91 292.159 2252.9 334.619 2252.9 334.619" stroke="white" stroke-opacity="0.3" stroke-width="0.75" stroke-miterlimit="10"/>
<path opacity="0.279" d="M0 237.809C48.282 237.809 170.321 222.75 280.918 309.584C340.68 356.505 329.374 203.784 434.702 199.836C540.03 195.888 610.547 345.317 765.861 250.636C921.175 155.955 1013.12 30.1893 1094.34 144.109C1143.46 213.002 1207.7 330.029 1295.18 330.029C1363.02 330.029 1452.55 135.175 1730.77 210.192C2028.91 290.576 2270.8 337.426 2270.8 337.426" stroke="white" stroke-opacity="0.3" stroke-width="0.75" stroke-miterlimit="10"/>
<path opacity="0.279" d="M0 231.281C48.663 231.281 173.554 217.422 285.444 310.32C346.033 360.62 331.969 194.061 438.129 189.746C544.289 185.431 615.36 348.868 771.9 245.301C928.44 141.734 1021.1 4.18136 1102.97 128.786C1152.48 204.142 1217.22 332.147 1305.39 332.147C1373.76 332.147 1464 119.015 1744.42 201.068C2044.9 288.994 2288.71 340.239 2288.71 340.239" stroke="white" stroke-opacity="0.3" stroke-width="0.75" stroke-miterlimit="10"/>
<path opacity="0.279" d="M0 224.743C49.044 224.743 176.754 212.062 289.971 311.043C351.371 364.723 334.571 184.327 441.556 179.643C548.541 174.959 620.172 352.419 777.936 239.969C935.7 127.519 1029.09 -21.8294 1111.6 113.462C1161.5 195.28 1226.75 334.262 1315.6 334.262C1384.51 334.262 1475.45 102.852 1758.06 191.942C2060.9 287.408 2306.61 343.048 2306.61 343.048" stroke="white" stroke-opacity="0.3" stroke-width="0.75" stroke-miterlimit="10"/>
<path opacity="0.279" d="M0 218.21C49.424 218.21 179.923 206.687 294.5 311.777C356.695 368.822 337.167 174.605 444.986 169.55C552.805 164.495 624.986 355.973 783.976 234.64C942.966 113.307 1037.08 -47.8386 1120.23 98.1404C1170.51 186.421 1236.27 336.383 1325.81 336.383C1395.26 336.383 1486.91 86.6944 1771.71 182.821C2076.9 285.827 2324.51 345.863 2324.51 345.863" stroke="white" stroke-opacity="0.3" stroke-width="0.75" stroke-miterlimit="10"/>
<path opacity="0.279" d="M0 211.678C49.8 211.678 183.066 201.293 299.025 312.509C362 372.913 339.76 164.882 448.41 159.456C557.06 154.03 629.8 359.525 790.011 229.311C950.222 99.0972 1045.06 -73.8458 1128.85 82.8192C1179.52 177.563 1245.79 338.502 1336.02 338.502C1406 338.502 1498.36 70.5342 1785.35 173.702C2092.89 284.25 2342.41 348.679 2342.41 348.679" stroke="white" stroke-opacity="0.3" stroke-width="0.75" stroke-miterlimit="10"/>
<path opacity="0.279" d="M0 205.145C50.185 205.145 186.188 195.877 303.552 313.245C367.303 376.996 342.357 155.161 451.837 149.365C561.317 143.569 634.613 363.084 796.049 223.985C957.485 84.886 1053.05 -99.8509 1137.48 67.5011C1188.54 168.707 1255.31 340.625 1346.23 340.625C1416.74 340.625 1509.81 54.377 1798.99 164.579C2108.88 282.667 2360.31 351.491 2360.31 351.491" stroke="white" stroke-opacity="0.3" stroke-width="0.75" stroke-miterlimit="10"/>
</g>
</svg>
