<?xml version="1.0" standalone="no"?>
<svg viewBox="0 0 200 200" xmlns="http://www.w3.org/2000/svg">
  <path fill="#011323" d="M39.3,-68.8C52.2,-60.7,64.7,-52.6,70.7,-41.2C76.7,-29.7,76.3,-14.9,74.7,-0.9C73.1,13,70.3,26,64,36.9C57.6,47.8,47.7,56.5,36.4,66.2C25.1,76,12.6,86.7,1.1,84.8C-10.4,83,-20.9,68.6,-35,60.5C-49.2,52.5,-67.1,50.8,-76.9,41.7C-86.8,32.7,-88.5,16.4,-86.1,1.4C-83.6,-13.5,-76.8,-27,-67.9,-37.6C-59,-48.3,-48,-56.1,-36.3,-64.9C-24.6,-73.7,-12.3,-83.5,0.5,-84.3C13.2,-85.1,26.4,-76.9,39.3,-68.8Z" transform="translate(100 100)" />
</svg>
