<svg width="186" height="26" viewBox="0 0 186 26" fill="none" xmlns="http://www.w3.org/2000/svg">
<path d="M98.2765 16.3092V20.5627H93.9453V16.3092H98.2765Z" fill="black"/>
<path d="M4.36812 20.5627V9.82129H0L0.0273949 6.74751H4.36812V5.83009C4.35055 4.75347 4.67203 3.69779 5.28859 2.80742C5.90224 1.92318 6.77248 1.23533 7.89933 0.743887C9.10879 0.232314 10.4152 -0.0208021 11.7319 0.00133655C12.8862 -0.0120661 14.0356 0.151783 15.1384 0.486954C16.0766 0.764102 16.9467 1.22796 17.6944 1.84964C18.371 2.43525 18.782 3.09619 18.9272 3.83246L14.6946 4.93956C14.5254 4.41072 14.1725 3.95701 13.6975 3.65759C13.1718 3.31875 12.5537 3.14471 11.925 3.15852C11.0475 3.15852 10.3745 3.43742 9.90601 3.99523C9.43755 4.55304 9.20378 5.28125 9.2047 6.17984V6.74751H17.9711V9.82129H9.2047V20.5614L4.36812 20.5627Z" fill="black"/>
<path d="M21.4297 20.5627V0.539368H26.2375V20.5627H21.4297Z" fill="black"/>
<path d="M129.618 0.012085V4.41627H124.747V0.012085H129.618Z" fill="black"/>
<path d="M161.779 0.012085V4.41627H156.908V0.012085H161.779Z" fill="black"/>
<path d="M101.309 20.5641V6.74888H106.145V10.3379C106.466 9.5055 106.978 8.75731 107.642 8.15192C108.336 7.52776 109.148 7.04372 110.032 6.72736C111.023 6.37446 112.07 6.20081 113.124 6.21484C114.754 6.21484 116.183 6.561 117.41 7.25333C118.625 7.93485 119.616 8.94473 120.264 10.163C120.941 11.4122 121.28 12.8377 121.281 14.4394V20.5641H116.473V14.5739C116.49 13.6226 116.264 12.6823 115.816 11.8391C115.401 11.0643 114.773 10.4193 114.003 9.97736C113.191 9.52658 112.271 9.29846 111.338 9.31687C110.406 9.30281 109.486 9.53065 108.672 9.97736C107.886 10.4165 107.24 11.0609 106.804 11.8391C106.335 12.687 106.099 13.6402 106.119 14.6048V20.5681L101.309 20.5641Z" fill="black"/>
<path d="M129.583 6.74884H124.747V20.564H129.583V6.74884Z" fill="black"/>
<path d="M161.762 6.74884H156.927V26H161.762V6.74884Z" fill="black"/>
<path d="M133.596 20.5641V6.74887H138.431V10.3379C138.752 9.50542 139.265 8.75725 139.93 8.15191C140.622 7.52791 141.433 7.04386 142.316 6.72734C143.306 6.37457 144.353 6.20093 145.406 6.21482C147.036 6.21482 148.465 6.56099 149.693 7.25332C150.91 7.9363 151.902 8.94806 152.55 10.1684C153.227 11.4176 153.566 12.8431 153.567 14.4448V20.5695H148.759V14.5739C148.777 13.6227 148.551 12.6824 148.103 11.8391C147.688 11.0623 147.059 10.4158 146.288 9.97331C145.476 9.52233 144.556 9.29419 143.624 9.31282C142.692 9.29863 141.772 9.52648 140.958 9.97331C140.172 10.4137 139.526 11.0596 139.091 11.8391C138.622 12.6868 138.386 13.6401 138.406 14.6048V20.5681L133.596 20.5641Z" fill="black"/>
<path d="M176.989 20.1322C175.486 20.7806 173.774 21.1048 171.851 21.1048C170.561 21.1233 169.277 20.9417 168.045 20.5667C166.918 20.208 166.043 19.7224 165.421 19.1099C164.799 18.4974 164.488 17.8248 164.487 17.0921C164.487 16.285 164.826 15.5384 165.503 14.8523C166.181 14.1663 167.127 13.6013 168.343 13.1574C169.686 12.6902 171.085 12.3954 172.505 12.2803L179.457 11.7422C179.714 11.7131 179.959 11.6205 180.17 11.4732C180.262 11.4151 180.338 11.3355 180.391 11.2416C180.444 11.1477 180.472 11.0424 180.473 10.9351C180.473 10.649 180.258 10.3751 179.828 10.1132C179.397 9.85222 178.812 9.65448 178.069 9.51861C177.267 9.37896 176.453 9.31142 175.638 9.31683C174.481 9.31885 173.327 9.42239 172.189 9.62623C171.093 9.81535 170.017 10.1045 168.975 10.4898C167.995 10.8602 167.219 11.2606 166.647 11.6911L164.833 9.18231C165.564 8.62361 166.516 8.11512 167.691 7.65686C168.93 7.1791 170.215 6.82225 171.526 6.59146C172.881 6.3422 174.257 6.21566 175.635 6.21346C177.271 6.19679 178.901 6.4194 180.47 6.87395C181.931 7.31517 183.095 7.94293 183.961 8.75723C184.826 9.57152 185.256 10.5203 185.251 11.6037V20.5614H180.416V17.5427C179.633 18.6216 178.491 19.4847 176.989 20.1322ZM169.817 17.2858C170.147 17.5118 170.618 17.6813 171.231 17.7983C171.925 17.9225 172.629 17.9815 173.334 17.9745C174.491 17.9864 175.644 17.8365 176.758 17.5293C177.793 17.2315 178.631 16.8311 179.273 16.328C179.915 15.8249 180.3 15.2671 180.427 14.6546V14.1165L173.475 14.6546C172.747 14.7137 172.025 14.8357 171.319 15.0191C170.789 15.1431 170.29 15.368 169.848 15.681C169.5 15.95 169.326 16.2298 169.326 16.5177C169.326 16.8056 169.488 17.0611 169.817 17.2858Z" fill="black"/>
<path d="M56.7812 11.0387C57.4746 11.0542 58.1343 11.3356 58.6192 11.8227C59.104 12.3098 59.3755 12.9639 59.3755 13.645C59.3755 14.3262 59.104 14.9803 58.6192 15.4674C58.1343 15.9545 57.4746 16.2359 56.7812 16.2514H35.7994C35.106 16.2359 34.4463 15.9545 33.9615 15.4674C33.4766 14.9803 33.2052 14.3262 33.2052 13.645C33.2052 12.9639 33.4766 12.3098 33.9615 11.8227C34.4463 11.3356 35.106 11.0542 35.7994 11.0387H56.7812ZM56.7812 6.73408H35.7994C33.9354 6.74117 32.1498 7.47172 30.8319 8.76645C29.5141 10.0612 28.7709 11.8151 28.7644 13.6457C28.7698 15.4782 29.5135 17.2342 30.8329 18.53C32.1523 19.8257 33.9403 20.5561 35.8063 20.5614H56.7812C58.6469 20.5557 60.4345 19.8252 61.7537 18.5295C63.0728 17.2337 63.8163 15.478 63.8217 13.6457C63.8174 11.8129 63.0743 10.0562 61.755 8.75983C60.4358 7.46342 58.6475 6.73268 56.7812 6.72736V6.73408Z" fill="black"/>
<path d="M69.9199 20.5627L66.3298 6.72736H71.1239L73.8634 18.4602L76.5509 6.72736H83.238L85.9775 18.5947L88.6909 6.72736H93.4316L89.9785 20.5627H82.4449L79.9218 8.87968L77.3727 20.56L69.9199 20.5627Z" fill="black"/>
</svg>
