<svg width="1322" height="776" viewBox="0 0 1322 776" fill="none" xmlns="http://www.w3.org/2000/svg">
<rect x="421.234" y="0.375" width="59.6514" height="59.6514" stroke="white" stroke-opacity="0.25" stroke-width="0.75"/>
<rect x="901.096" y="0.375" width="59.6514" height="59.6514" stroke="white" stroke-opacity="0.25" stroke-width="0.75"/>
<rect x="181.305" y="0.375" width="59.6514" height="59.6514" stroke="white" stroke-opacity="0.25" stroke-width="0.75"/>
<rect x="661.166" y="0.375" width="59.6514" height="59.6514" stroke="white" stroke-opacity="0.25" stroke-width="0.75"/>
<rect x="1141.03" y="0.375" width="59.6514" height="59.6514" stroke="white" stroke-opacity="0.25" stroke-width="0.75"/>
<rect x="61.3398" y="0.375" width="59.6514" height="59.6514" stroke="white" stroke-opacity="0.25" stroke-width="0.75"/>
<rect x="541.201" y="0.375" width="59.6514" height="59.6514" stroke="white" stroke-opacity="0.25" stroke-width="0.75"/>
<rect x="1021.06" y="0.375" width="59.6514" height="59.6514" stroke="white" stroke-opacity="0.25" stroke-width="0.75"/>
<rect x="301.27" y="0.375" width="59.6514" height="59.6514" stroke="white" stroke-opacity="0.25" stroke-width="0.75"/>
<rect x="781.131" y="0.375" width="59.6514" height="59.6514" stroke="white" stroke-opacity="0.25" stroke-width="0.75"/>
<rect x="1260.99" y="0.375" width="59.6514" height="59.6514" stroke="white" stroke-opacity="0.25" stroke-width="0.75"/>
<rect x="1.35742" y="0.375" width="59.6514" height="59.6514" stroke="white" stroke-opacity="0.25" stroke-width="0.75"/>
<rect x="481.219" y="0.375" width="59.6514" height="59.6514" stroke="white" stroke-opacity="0.25" stroke-width="0.75"/>
<rect x="961.078" y="0.375" width="59.6514" height="59.6514" stroke="white" stroke-opacity="0.25" stroke-width="0.75"/>
<rect x="241.287" y="0.375" width="59.6514" height="59.6514" stroke="white" stroke-opacity="0.25" stroke-width="0.75"/>
<rect x="721.148" y="0.375" width="59.6514" height="59.6514" stroke="white" stroke-opacity="0.25" stroke-width="0.75"/>
<rect x="1201.01" y="0.375" width="59.6514" height="59.6514" stroke="white" stroke-opacity="0.25" stroke-width="0.75"/>
<rect x="121.322" y="0.375" width="59.6514" height="59.6514" stroke="white" stroke-opacity="0.25" stroke-width="0.75"/>
<rect x="601.184" y="0.375" width="59.6514" height="59.6514" stroke="white" stroke-opacity="0.25" stroke-width="0.75"/>
<rect x="1081.04" y="0.375" width="59.6514" height="59.6514" stroke="white" stroke-opacity="0.25" stroke-width="0.75"/>
<rect x="361.252" y="0.375" width="59.6514" height="59.6514" stroke="white" stroke-opacity="0.25" stroke-width="0.75"/>
<rect x="841.113" y="0.375" width="59.6514" height="59.6514" stroke="white" stroke-opacity="0.25" stroke-width="0.75"/>
<rect x="421.234" y="238.32" width="59.6514" height="59.6514" stroke="white" stroke-opacity="0.25" stroke-width="0.75"/>
<rect x="901.096" y="238.32" width="59.6514" height="59.6514" stroke="white" stroke-opacity="0.25" stroke-width="0.75"/>
<rect x="181.305" y="238.32" width="59.6514" height="59.6514" stroke="white" stroke-opacity="0.25" stroke-width="0.75"/>
<rect x="661.166" y="238.32" width="59.6514" height="59.6514" stroke="white" stroke-opacity="0.25" stroke-width="0.75"/>
<rect x="1141.03" y="238.32" width="59.6514" height="59.6514" stroke="white" stroke-opacity="0.25" stroke-width="0.75"/>
<rect x="61.3398" y="238.32" width="59.6514" height="59.6514" stroke="white" stroke-opacity="0.25" stroke-width="0.75"/>
<rect x="541.201" y="238.32" width="59.6514" height="59.6514" stroke="white" stroke-opacity="0.25" stroke-width="0.75"/>
<rect x="1021.06" y="238.32" width="59.6514" height="59.6514" stroke="white" stroke-opacity="0.25" stroke-width="0.75"/>
<rect x="301.27" y="238.32" width="59.6514" height="59.6514" stroke="white" stroke-opacity="0.25" stroke-width="0.75"/>
<rect x="781.131" y="238.32" width="59.6514" height="59.6514" stroke="white" stroke-opacity="0.25" stroke-width="0.75"/>
<rect x="1260.99" y="238.32" width="59.6514" height="59.6514" stroke="white" stroke-opacity="0.25" stroke-width="0.75"/>
<rect x="1.35742" y="238.32" width="59.6514" height="59.6514" stroke="white" stroke-opacity="0.25" stroke-width="0.75"/>
<rect x="481.219" y="238.32" width="59.6514" height="59.6514" stroke="white" stroke-opacity="0.25" stroke-width="0.75"/>
<rect x="961.078" y="238.32" width="59.6514" height="59.6514" stroke="white" stroke-opacity="0.25" stroke-width="0.75"/>
<rect x="241.287" y="238.32" width="59.6514" height="59.6514" stroke="white" stroke-opacity="0.25" stroke-width="0.75"/>
<rect x="721.148" y="238.32" width="59.6514" height="59.6514" stroke="white" stroke-opacity="0.25" stroke-width="0.75"/>
<rect x="1201.01" y="238.32" width="59.6514" height="59.6514" stroke="white" stroke-opacity="0.25" stroke-width="0.75"/>
<rect x="121.322" y="238.32" width="59.6514" height="59.6514" stroke="white" stroke-opacity="0.25" stroke-width="0.75"/>
<rect x="601.184" y="238.32" width="59.6514" height="59.6514" stroke="white" stroke-opacity="0.25" stroke-width="0.75"/>
<rect x="1081.04" y="238.32" width="59.6514" height="59.6514" stroke="white" stroke-opacity="0.25" stroke-width="0.75"/>
<rect x="361.252" y="238.32" width="59.6514" height="59.6514" stroke="white" stroke-opacity="0.25" stroke-width="0.75"/>
<rect x="841.113" y="238.32" width="59.6514" height="59.6514" stroke="white" stroke-opacity="0.25" stroke-width="0.75"/>
<rect x="421.234" y="119.347" width="59.6514" height="59.6514" stroke="white" stroke-opacity="0.25" stroke-width="0.75"/>
<rect x="901.096" y="119.347" width="59.6514" height="59.6514" stroke="white" stroke-opacity="0.25" stroke-width="0.75"/>
<rect x="181.305" y="119.347" width="59.6514" height="59.6514" stroke="white" stroke-opacity="0.25" stroke-width="0.75"/>
<rect x="661.166" y="119.347" width="59.6514" height="59.6514" stroke="white" stroke-opacity="0.25" stroke-width="0.75"/>
<rect x="1141.03" y="119.347" width="59.6514" height="59.6514" stroke="white" stroke-opacity="0.25" stroke-width="0.75"/>
<rect x="61.3398" y="119.347" width="59.6514" height="59.6514" stroke="white" stroke-opacity="0.25" stroke-width="0.75"/>
<rect x="541.201" y="119.347" width="59.6514" height="59.6514" stroke="white" stroke-opacity="0.25" stroke-width="0.75"/>
<rect x="1021.06" y="119.347" width="59.6514" height="59.6514" stroke="white" stroke-opacity="0.25" stroke-width="0.75"/>
<rect x="301.27" y="119.347" width="59.6514" height="59.6514" stroke="white" stroke-opacity="0.25" stroke-width="0.75"/>
<rect x="781.131" y="119.347" width="59.6514" height="59.6514" stroke="white" stroke-opacity="0.25" stroke-width="0.75"/>
<rect x="1260.99" y="119.347" width="59.6514" height="59.6514" stroke="white" stroke-opacity="0.25" stroke-width="0.75"/>
<rect x="1.35742" y="119.347" width="59.6514" height="59.6514" stroke="white" stroke-opacity="0.25" stroke-width="0.75"/>
<rect x="481.219" y="119.347" width="59.6514" height="59.6514" stroke="white" stroke-opacity="0.25" stroke-width="0.75"/>
<rect x="961.078" y="119.347" width="59.6514" height="59.6514" stroke="white" stroke-opacity="0.25" stroke-width="0.75"/>
<rect x="241.287" y="119.347" width="59.6514" height="59.6514" stroke="white" stroke-opacity="0.25" stroke-width="0.75"/>
<rect x="721.148" y="119.347" width="59.6514" height="59.6514" stroke="white" stroke-opacity="0.25" stroke-width="0.75"/>
<rect x="1201.01" y="119.347" width="59.6514" height="59.6514" stroke="white" stroke-opacity="0.25" stroke-width="0.75"/>
<rect x="121.322" y="119.347" width="59.6514" height="59.6514" stroke="white" stroke-opacity="0.25" stroke-width="0.75"/>
<rect x="601.184" y="119.347" width="59.6514" height="59.6514" stroke="white" stroke-opacity="0.25" stroke-width="0.75"/>
<rect x="1081.04" y="119.347" width="59.6514" height="59.6514" stroke="white" stroke-opacity="0.25" stroke-width="0.75"/>
<rect x="361.252" y="119.347" width="59.6514" height="59.6514" stroke="white" stroke-opacity="0.25" stroke-width="0.75"/>
<rect x="841.113" y="119.347" width="59.6514" height="59.6514" stroke="white" stroke-opacity="0.25" stroke-width="0.75"/>
<rect x="421.234" y="357.292" width="59.6514" height="59.6514" stroke="white" stroke-opacity="0.25" stroke-width="0.75"/>
<rect x="901.096" y="357.292" width="59.6514" height="59.6514" stroke="white" stroke-opacity="0.25" stroke-width="0.75"/>
<rect x="181.305" y="357.292" width="59.6514" height="59.6514" stroke="white" stroke-opacity="0.25" stroke-width="0.75"/>
<rect x="661.166" y="357.292" width="59.6514" height="59.6514" stroke="white" stroke-opacity="0.25" stroke-width="0.75"/>
<rect x="1141.03" y="357.292" width="59.6514" height="59.6514" stroke="white" stroke-opacity="0.25" stroke-width="0.75"/>
<rect x="61.3398" y="357.292" width="59.6514" height="59.6514" stroke="white" stroke-opacity="0.25" stroke-width="0.75"/>
<rect x="541.201" y="357.292" width="59.6514" height="59.6514" stroke="white" stroke-opacity="0.25" stroke-width="0.75"/>
<rect x="1021.06" y="357.292" width="59.6514" height="59.6514" stroke="white" stroke-opacity="0.25" stroke-width="0.75"/>
<rect x="301.27" y="357.292" width="59.6514" height="59.6514" stroke="white" stroke-opacity="0.25" stroke-width="0.75"/>
<rect x="781.131" y="357.292" width="59.6514" height="59.6514" stroke="white" stroke-opacity="0.25" stroke-width="0.75"/>
<rect x="1260.99" y="357.292" width="59.6514" height="59.6514" stroke="white" stroke-opacity="0.25" stroke-width="0.75"/>
<rect x="1.35742" y="357.292" width="59.6514" height="59.6514" stroke="white" stroke-opacity="0.25" stroke-width="0.75"/>
<rect x="481.219" y="357.292" width="59.6514" height="59.6514" stroke="white" stroke-opacity="0.25" stroke-width="0.75"/>
<rect x="961.078" y="357.292" width="59.6514" height="59.6514" stroke="white" stroke-opacity="0.25" stroke-width="0.75"/>
<rect x="241.287" y="357.292" width="59.6514" height="59.6514" stroke="white" stroke-opacity="0.25" stroke-width="0.75"/>
<rect x="721.148" y="357.292" width="59.6514" height="59.6514" stroke="white" stroke-opacity="0.25" stroke-width="0.75"/>
<rect x="1201.01" y="357.292" width="59.6514" height="59.6514" stroke="white" stroke-opacity="0.25" stroke-width="0.75"/>
<rect x="121.322" y="357.292" width="59.6514" height="59.6514" stroke="white" stroke-opacity="0.25" stroke-width="0.75"/>
<rect x="601.184" y="357.292" width="59.6514" height="59.6514" stroke="white" stroke-opacity="0.25" stroke-width="0.75"/>
<rect x="1081.04" y="357.292" width="59.6514" height="59.6514" stroke="white" stroke-opacity="0.25" stroke-width="0.75"/>
<rect x="361.252" y="357.292" width="59.6514" height="59.6514" stroke="white" stroke-opacity="0.25" stroke-width="0.75"/>
<rect x="841.113" y="357.292" width="59.6514" height="59.6514" stroke="white" stroke-opacity="0.25" stroke-width="0.75"/>
<rect x="421.234" y="59.8613" width="59.6514" height="59.6514" stroke="white" stroke-opacity="0.25" stroke-width="0.75"/>
<rect x="901.096" y="59.8613" width="59.6514" height="59.6514" stroke="white" stroke-opacity="0.25" stroke-width="0.75"/>
<rect x="181.305" y="59.8613" width="59.6514" height="59.6514" stroke="white" stroke-opacity="0.25" stroke-width="0.75"/>
<rect x="661.166" y="59.8613" width="59.6514" height="59.6514" stroke="white" stroke-opacity="0.25" stroke-width="0.75"/>
<rect x="1141.03" y="59.8613" width="59.6514" height="59.6514" stroke="white" stroke-opacity="0.25" stroke-width="0.75"/>
<rect x="61.3398" y="59.8613" width="59.6514" height="59.6514" stroke="white" stroke-opacity="0.25" stroke-width="0.75"/>
<rect x="541.201" y="59.8613" width="59.6514" height="59.6514" stroke="white" stroke-opacity="0.25" stroke-width="0.75"/>
<rect x="1021.06" y="59.8613" width="59.6514" height="59.6514" stroke="white" stroke-opacity="0.25" stroke-width="0.75"/>
<rect x="301.27" y="59.8613" width="59.6514" height="59.6514" stroke="white" stroke-opacity="0.25" stroke-width="0.75"/>
<rect x="781.131" y="59.8613" width="59.6514" height="59.6514" stroke="white" stroke-opacity="0.25" stroke-width="0.75"/>
<rect x="1260.99" y="59.8613" width="59.6514" height="59.6514" stroke="white" stroke-opacity="0.25" stroke-width="0.75"/>
<rect x="1.35742" y="59.8613" width="59.6514" height="59.6514" stroke="white" stroke-opacity="0.25" stroke-width="0.75"/>
<rect x="481.219" y="59.8613" width="59.6514" height="59.6514" stroke="white" stroke-opacity="0.25" stroke-width="0.75"/>
<rect x="961.078" y="59.8613" width="59.6514" height="59.6514" stroke="white" stroke-opacity="0.25" stroke-width="0.75"/>
<rect x="241.287" y="59.8613" width="59.6514" height="59.6514" stroke="white" stroke-opacity="0.25" stroke-width="0.75"/>
<rect x="721.148" y="59.8613" width="59.6514" height="59.6514" stroke="white" stroke-opacity="0.25" stroke-width="0.75"/>
<rect x="1201.01" y="59.8613" width="59.6514" height="59.6514" stroke="white" stroke-opacity="0.25" stroke-width="0.75"/>
<rect x="121.322" y="59.8613" width="59.6514" height="59.6514" stroke="white" stroke-opacity="0.25" stroke-width="0.75"/>
<rect x="601.184" y="59.8613" width="59.6514" height="59.6514" stroke="white" stroke-opacity="0.25" stroke-width="0.75"/>
<rect x="1081.04" y="59.8613" width="59.6514" height="59.6514" stroke="white" stroke-opacity="0.25" stroke-width="0.75"/>
<rect x="361.252" y="59.8613" width="59.6514" height="59.6514" stroke="white" stroke-opacity="0.25" stroke-width="0.75"/>
<rect x="841.113" y="59.8613" width="59.6514" height="59.6514" stroke="white" stroke-opacity="0.25" stroke-width="0.75"/>
<rect x="421.234" y="297.806" width="59.6514" height="59.6514" stroke="white" stroke-opacity="0.25" stroke-width="0.75"/>
<rect x="901.096" y="297.806" width="59.6514" height="59.6514" stroke="white" stroke-opacity="0.25" stroke-width="0.75"/>
<rect x="181.305" y="297.806" width="59.6514" height="59.6514" stroke="white" stroke-opacity="0.25" stroke-width="0.75"/>
<rect x="661.166" y="297.806" width="59.6514" height="59.6514" stroke="white" stroke-opacity="0.25" stroke-width="0.75"/>
<rect x="1141.03" y="297.806" width="59.6514" height="59.6514" stroke="white" stroke-opacity="0.25" stroke-width="0.75"/>
<rect x="61.3398" y="297.806" width="59.6514" height="59.6514" stroke="white" stroke-opacity="0.25" stroke-width="0.75"/>
<rect x="541.201" y="297.806" width="59.6514" height="59.6514" stroke="white" stroke-opacity="0.25" stroke-width="0.75"/>
<rect x="1021.06" y="297.806" width="59.6514" height="59.6514" stroke="white" stroke-opacity="0.25" stroke-width="0.75"/>
<rect x="301.27" y="297.806" width="59.6514" height="59.6514" stroke="white" stroke-opacity="0.25" stroke-width="0.75"/>
<rect x="781.131" y="297.806" width="59.6514" height="59.6514" stroke="white" stroke-opacity="0.25" stroke-width="0.75"/>
<rect x="1260.99" y="297.806" width="59.6514" height="59.6514" stroke="white" stroke-opacity="0.25" stroke-width="0.75"/>
<rect x="1.35742" y="297.806" width="59.6514" height="59.6514" stroke="white" stroke-opacity="0.25" stroke-width="0.75"/>
<rect x="481.219" y="297.806" width="59.6514" height="59.6514" stroke="white" stroke-opacity="0.25" stroke-width="0.75"/>
<rect x="961.078" y="297.806" width="59.6514" height="59.6514" stroke="white" stroke-opacity="0.25" stroke-width="0.75"/>
<rect x="241.287" y="297.806" width="59.6514" height="59.6514" stroke="white" stroke-opacity="0.25" stroke-width="0.75"/>
<rect x="721.148" y="297.806" width="59.6514" height="59.6514" stroke="white" stroke-opacity="0.25" stroke-width="0.75"/>
<rect x="1201.01" y="297.806" width="59.6514" height="59.6514" stroke="white" stroke-opacity="0.25" stroke-width="0.75"/>
<rect x="121.322" y="297.806" width="59.6514" height="59.6514" stroke="white" stroke-opacity="0.25" stroke-width="0.75"/>
<rect x="601.184" y="297.806" width="59.6514" height="59.6514" stroke="white" stroke-opacity="0.25" stroke-width="0.75"/>
<rect x="1081.04" y="297.806" width="59.6514" height="59.6514" stroke="white" stroke-opacity="0.25" stroke-width="0.75"/>
<rect x="361.252" y="297.806" width="59.6514" height="59.6514" stroke="white" stroke-opacity="0.25" stroke-width="0.75"/>
<rect x="841.113" y="297.806" width="59.6514" height="59.6514" stroke="white" stroke-opacity="0.25" stroke-width="0.75"/>
<rect x="421.234" y="178.834" width="59.6514" height="59.6514" stroke="white" stroke-opacity="0.25" stroke-width="0.75"/>
<rect x="901.096" y="178.834" width="59.6514" height="59.6514" stroke="white" stroke-opacity="0.25" stroke-width="0.75"/>
<rect x="181.305" y="178.834" width="59.6514" height="59.6514" stroke="white" stroke-opacity="0.25" stroke-width="0.75"/>
<rect x="661.166" y="178.834" width="59.6514" height="59.6514" stroke="white" stroke-opacity="0.25" stroke-width="0.75"/>
<rect x="1141.03" y="178.834" width="59.6514" height="59.6514" stroke="white" stroke-opacity="0.25" stroke-width="0.75"/>
<rect x="61.3398" y="178.834" width="59.6514" height="59.6514" stroke="white" stroke-opacity="0.25" stroke-width="0.75"/>
<rect x="541.201" y="178.834" width="59.6514" height="59.6514" stroke="white" stroke-opacity="0.25" stroke-width="0.75"/>
<rect x="1021.06" y="178.834" width="59.6514" height="59.6514" stroke="white" stroke-opacity="0.25" stroke-width="0.75"/>
<rect x="301.27" y="178.834" width="59.6514" height="59.6514" stroke="white" stroke-opacity="0.25" stroke-width="0.75"/>
<rect x="781.131" y="178.834" width="59.6514" height="59.6514" stroke="white" stroke-opacity="0.25" stroke-width="0.75"/>
<rect x="1260.99" y="178.834" width="59.6514" height="59.6514" stroke="white" stroke-opacity="0.25" stroke-width="0.75"/>
<rect x="1.35742" y="178.834" width="59.6514" height="59.6514" stroke="white" stroke-opacity="0.25" stroke-width="0.75"/>
<rect x="481.219" y="178.834" width="59.6514" height="59.6514" stroke="white" stroke-opacity="0.25" stroke-width="0.75"/>
<rect x="961.078" y="178.834" width="59.6514" height="59.6514" stroke="white" stroke-opacity="0.25" stroke-width="0.75"/>
<rect x="241.287" y="178.834" width="59.6514" height="59.6514" stroke="white" stroke-opacity="0.25" stroke-width="0.75"/>
<rect x="721.148" y="178.834" width="59.6514" height="59.6514" stroke="white" stroke-opacity="0.25" stroke-width="0.75"/>
<rect x="1201.01" y="178.834" width="59.6514" height="59.6514" stroke="white" stroke-opacity="0.25" stroke-width="0.75"/>
<rect x="121.322" y="178.834" width="59.6514" height="59.6514" stroke="white" stroke-opacity="0.25" stroke-width="0.75"/>
<rect x="601.184" y="178.834" width="59.6514" height="59.6514" stroke="white" stroke-opacity="0.25" stroke-width="0.75"/>
<rect x="1081.04" y="178.834" width="59.6514" height="59.6514" stroke="white" stroke-opacity="0.25" stroke-width="0.75"/>
<rect x="361.252" y="178.834" width="59.6514" height="59.6514" stroke="white" stroke-opacity="0.25" stroke-width="0.75"/>
<rect x="841.113" y="178.834" width="59.6514" height="59.6514" stroke="white" stroke-opacity="0.25" stroke-width="0.75"/>
<rect x="421.234" y="416.779" width="59.6514" height="59.6514" stroke="white" stroke-opacity="0.25" stroke-width="0.75"/>
<rect x="901.096" y="416.779" width="59.6514" height="59.6514" stroke="white" stroke-opacity="0.25" stroke-width="0.75"/>
<rect x="181.305" y="416.779" width="59.6514" height="59.6514" stroke="white" stroke-opacity="0.25" stroke-width="0.75"/>
<rect x="661.166" y="416.779" width="59.6514" height="59.6514" stroke="white" stroke-opacity="0.25" stroke-width="0.75"/>
<rect x="1141.03" y="416.779" width="59.6514" height="59.6514" stroke="white" stroke-opacity="0.25" stroke-width="0.75"/>
<rect x="61.3398" y="416.779" width="59.6514" height="59.6514" stroke="white" stroke-opacity="0.25" stroke-width="0.75"/>
<rect x="541.201" y="416.779" width="59.6514" height="59.6514" stroke="white" stroke-opacity="0.25" stroke-width="0.75"/>
<rect x="1021.06" y="416.779" width="59.6514" height="59.6514" stroke="white" stroke-opacity="0.25" stroke-width="0.75"/>
<rect x="301.27" y="416.779" width="59.6514" height="59.6514" stroke="white" stroke-opacity="0.25" stroke-width="0.75"/>
<rect x="781.131" y="416.779" width="59.6514" height="59.6514" stroke="white" stroke-opacity="0.25" stroke-width="0.75"/>
<rect x="1260.99" y="416.779" width="59.6514" height="59.6514" stroke="white" stroke-opacity="0.25" stroke-width="0.75"/>
<rect x="1.35742" y="416.779" width="59.6514" height="59.6514" stroke="white" stroke-opacity="0.25" stroke-width="0.75"/>
<rect x="481.219" y="416.779" width="59.6514" height="59.6514" stroke="white" stroke-opacity="0.25" stroke-width="0.75"/>
<rect x="961.078" y="416.779" width="59.6514" height="59.6514" stroke="white" stroke-opacity="0.25" stroke-width="0.75"/>
<rect x="241.287" y="416.779" width="59.6514" height="59.6514" stroke="white" stroke-opacity="0.25" stroke-width="0.75"/>
<rect x="721.148" y="416.779" width="59.6514" height="59.6514" stroke="white" stroke-opacity="0.25" stroke-width="0.75"/>
<rect x="1201.01" y="416.779" width="59.6514" height="59.6514" stroke="white" stroke-opacity="0.25" stroke-width="0.75"/>
<rect x="121.322" y="416.779" width="59.6514" height="59.6514" stroke="white" stroke-opacity="0.25" stroke-width="0.75"/>
<rect x="601.184" y="416.779" width="59.6514" height="59.6514" stroke="white" stroke-opacity="0.25" stroke-width="0.75"/>
<rect x="1081.04" y="416.779" width="59.6514" height="59.6514" stroke="white" stroke-opacity="0.25" stroke-width="0.75"/>
<rect x="361.252" y="416.779" width="59.6514" height="59.6514" stroke="white" stroke-opacity="0.25" stroke-width="0.75"/>
<rect x="841.113" y="416.779" width="59.6514" height="59.6514" stroke="white" stroke-opacity="0.25" stroke-width="0.75"/>
<rect x="421.234" y="476.265" width="59.6514" height="59.6514" stroke="white" stroke-opacity="0.25" stroke-width="0.75"/>
<rect x="901.096" y="476.265" width="59.6514" height="59.6514" stroke="white" stroke-opacity="0.25" stroke-width="0.75"/>
<rect x="181.305" y="476.265" width="59.6514" height="59.6514" stroke="white" stroke-opacity="0.25" stroke-width="0.75"/>
<rect x="661.166" y="476.265" width="59.6514" height="59.6514" stroke="white" stroke-opacity="0.25" stroke-width="0.75"/>
<rect x="1141.03" y="476.265" width="59.6514" height="59.6514" stroke="white" stroke-opacity="0.25" stroke-width="0.75"/>
<rect x="61.3398" y="476.265" width="59.6514" height="59.6514" stroke="white" stroke-opacity="0.25" stroke-width="0.75"/>
<rect x="541.201" y="476.265" width="59.6514" height="59.6514" stroke="white" stroke-opacity="0.25" stroke-width="0.75"/>
<rect x="1021.06" y="476.265" width="59.6514" height="59.6514" stroke="white" stroke-opacity="0.25" stroke-width="0.75"/>
<rect x="301.27" y="476.265" width="59.6514" height="59.6514" stroke="white" stroke-opacity="0.25" stroke-width="0.75"/>
<rect x="781.131" y="476.265" width="59.6514" height="59.6514" stroke="white" stroke-opacity="0.25" stroke-width="0.75"/>
<rect x="1260.99" y="476.265" width="59.6514" height="59.6514" stroke="white" stroke-opacity="0.25" stroke-width="0.75"/>
<rect x="1.35742" y="476.265" width="59.6514" height="59.6514" stroke="white" stroke-opacity="0.25" stroke-width="0.75"/>
<rect x="481.219" y="476.265" width="59.6514" height="59.6514" stroke="white" stroke-opacity="0.25" stroke-width="0.75"/>
<rect x="961.078" y="476.265" width="59.6514" height="59.6514" stroke="white" stroke-opacity="0.25" stroke-width="0.75"/>
<rect x="241.287" y="476.265" width="59.6514" height="59.6514" stroke="white" stroke-opacity="0.25" stroke-width="0.75"/>
<rect x="721.148" y="476.265" width="59.6514" height="59.6514" stroke="white" stroke-opacity="0.25" stroke-width="0.75"/>
<rect x="1201.01" y="476.265" width="59.6514" height="59.6514" stroke="white" stroke-opacity="0.25" stroke-width="0.75"/>
<rect x="121.322" y="476.265" width="59.6514" height="59.6514" stroke="white" stroke-opacity="0.25" stroke-width="0.75"/>
<rect x="601.184" y="476.265" width="59.6514" height="59.6514" stroke="white" stroke-opacity="0.25" stroke-width="0.75"/>
<rect x="1081.04" y="476.265" width="59.6514" height="59.6514" stroke="white" stroke-opacity="0.25" stroke-width="0.75"/>
<rect x="361.252" y="476.265" width="59.6514" height="59.6514" stroke="white" stroke-opacity="0.25" stroke-width="0.75"/>
<rect x="841.113" y="476.265" width="59.6514" height="59.6514" stroke="white" stroke-opacity="0.25" stroke-width="0.75"/>
<rect x="421.234" y="535.751" width="59.6514" height="59.6514" stroke="white" stroke-opacity="0.25" stroke-width="0.75"/>
<rect x="901.096" y="535.751" width="59.6514" height="59.6514" stroke="white" stroke-opacity="0.25" stroke-width="0.75"/>
<rect x="181.305" y="535.751" width="59.6514" height="59.6514" stroke="white" stroke-opacity="0.25" stroke-width="0.75"/>
<rect x="661.166" y="535.751" width="59.6514" height="59.6514" stroke="white" stroke-opacity="0.25" stroke-width="0.75"/>
<rect x="1141.03" y="535.751" width="59.6514" height="59.6514" stroke="white" stroke-opacity="0.25" stroke-width="0.75"/>
<rect x="61.3398" y="535.751" width="59.6514" height="59.6514" stroke="white" stroke-opacity="0.25" stroke-width="0.75"/>
<rect x="541.201" y="535.751" width="59.6514" height="59.6514" stroke="white" stroke-opacity="0.25" stroke-width="0.75"/>
<rect x="1021.06" y="535.751" width="59.6514" height="59.6514" stroke="white" stroke-opacity="0.25" stroke-width="0.75"/>
<rect x="301.27" y="535.751" width="59.6514" height="59.6514" stroke="white" stroke-opacity="0.25" stroke-width="0.75"/>
<rect x="781.131" y="535.751" width="59.6514" height="59.6514" stroke="white" stroke-opacity="0.25" stroke-width="0.75"/>
<rect x="1260.99" y="535.751" width="59.6514" height="59.6514" stroke="white" stroke-opacity="0.25" stroke-width="0.75"/>
<rect x="1.35742" y="535.751" width="59.6514" height="59.6514" stroke="white" stroke-opacity="0.25" stroke-width="0.75"/>
<rect x="481.219" y="535.751" width="59.6514" height="59.6514" stroke="white" stroke-opacity="0.25" stroke-width="0.75"/>
<rect x="961.078" y="535.751" width="59.6514" height="59.6514" stroke="white" stroke-opacity="0.25" stroke-width="0.75"/>
<rect x="241.287" y="535.751" width="59.6514" height="59.6514" stroke="white" stroke-opacity="0.25" stroke-width="0.75"/>
<rect x="721.148" y="535.751" width="59.6514" height="59.6514" stroke="white" stroke-opacity="0.25" stroke-width="0.75"/>
<rect x="1201.01" y="535.751" width="59.6514" height="59.6514" stroke="white" stroke-opacity="0.25" stroke-width="0.75"/>
<rect x="121.322" y="535.751" width="59.6514" height="59.6514" stroke="white" stroke-opacity="0.25" stroke-width="0.75"/>
<rect x="601.184" y="535.751" width="59.6514" height="59.6514" stroke="white" stroke-opacity="0.25" stroke-width="0.75"/>
<rect x="1081.04" y="535.751" width="59.6514" height="59.6514" stroke="white" stroke-opacity="0.25" stroke-width="0.75"/>
<rect x="361.252" y="535.751" width="59.6514" height="59.6514" stroke="white" stroke-opacity="0.25" stroke-width="0.75"/>
<rect x="841.113" y="535.751" width="59.6514" height="59.6514" stroke="white" stroke-opacity="0.25" stroke-width="0.75"/>
<rect x="421.234" y="595.237" width="59.6514" height="59.6514" stroke="white" stroke-opacity="0.25" stroke-width="0.75"/>
<rect x="421.234" y="655.375" width="59.6514" height="59.6514" stroke="white" stroke-opacity="0.25" stroke-width="0.75"/>
<rect x="421.234" y="715.375" width="59.6514" height="59.6514" stroke="white" stroke-opacity="0.25" stroke-width="0.75"/>
<rect x="901.096" y="595.237" width="59.6514" height="59.6514" stroke="white" stroke-opacity="0.25" stroke-width="0.75"/>
<rect x="901.096" y="655.375" width="59.6514" height="59.6514" stroke="white" stroke-opacity="0.25" stroke-width="0.75"/>
<rect x="901.096" y="715.375" width="59.6514" height="59.6514" stroke="white" stroke-opacity="0.25" stroke-width="0.75"/>
<rect x="181.305" y="595.237" width="59.6514" height="59.6514" stroke="white" stroke-opacity="0.25" stroke-width="0.75"/>
<rect x="181.305" y="655.375" width="59.6514" height="59.6514" stroke="white" stroke-opacity="0.25" stroke-width="0.75"/>
<rect x="181.305" y="715.375" width="59.6514" height="59.6514" stroke="white" stroke-opacity="0.25" stroke-width="0.75"/>
<rect x="661.166" y="595.237" width="59.6514" height="59.6514" stroke="white" stroke-opacity="0.25" stroke-width="0.75"/>
<rect x="661.166" y="655.375" width="59.6514" height="59.6514" stroke="white" stroke-opacity="0.25" stroke-width="0.75"/>
<rect x="661.166" y="715.375" width="59.6514" height="59.6514" stroke="white" stroke-opacity="0.25" stroke-width="0.75"/>
<rect x="1141.03" y="595.237" width="59.6514" height="59.6514" stroke="white" stroke-opacity="0.25" stroke-width="0.75"/>
<rect x="1141.03" y="655.375" width="59.6514" height="59.6514" stroke="white" stroke-opacity="0.25" stroke-width="0.75"/>
<rect x="1141.03" y="715.375" width="59.6514" height="59.6514" stroke="white" stroke-opacity="0.25" stroke-width="0.75"/>
<rect x="61.3398" y="595.237" width="59.6514" height="59.6514" stroke="white" stroke-opacity="0.25" stroke-width="0.75"/>
<rect x="61.3398" y="655.375" width="59.6514" height="59.6514" stroke="white" stroke-opacity="0.25" stroke-width="0.75"/>
<rect x="61.3398" y="715.375" width="59.6514" height="59.6514" stroke="white" stroke-opacity="0.25" stroke-width="0.75"/>
<rect x="541.201" y="595.237" width="59.6514" height="59.6514" stroke="white" stroke-opacity="0.25" stroke-width="0.75"/>
<rect x="541.201" y="655.375" width="59.6514" height="59.6514" stroke="white" stroke-opacity="0.25" stroke-width="0.75"/>
<rect x="541.201" y="715.375" width="59.6514" height="59.6514" stroke="white" stroke-opacity="0.25" stroke-width="0.75"/>
<rect x="1021.06" y="595.237" width="59.6514" height="59.6514" stroke="white" stroke-opacity="0.25" stroke-width="0.75"/>
<rect x="1021.06" y="655.375" width="59.6514" height="59.6514" stroke="white" stroke-opacity="0.25" stroke-width="0.75"/>
<rect x="1021.06" y="715.375" width="59.6514" height="59.6514" stroke="white" stroke-opacity="0.25" stroke-width="0.75"/>
<rect x="301.27" y="595.237" width="59.6514" height="59.6514" stroke="white" stroke-opacity="0.25" stroke-width="0.75"/>
<rect x="301.27" y="655.375" width="59.6514" height="59.6514" stroke="white" stroke-opacity="0.25" stroke-width="0.75"/>
<rect x="301.27" y="715.375" width="59.6514" height="59.6514" stroke="white" stroke-opacity="0.25" stroke-width="0.75"/>
<rect x="781.131" y="595.237" width="59.6514" height="59.6514" stroke="white" stroke-opacity="0.25" stroke-width="0.75"/>
<rect x="781.131" y="655.375" width="59.6514" height="59.6514" stroke="white" stroke-opacity="0.25" stroke-width="0.75"/>
<rect x="781.131" y="715.375" width="59.6514" height="59.6514" stroke="white" stroke-opacity="0.25" stroke-width="0.75"/>
<rect x="1260.99" y="595.237" width="59.6514" height="59.6514" stroke="white" stroke-opacity="0.25" stroke-width="0.75"/>
<rect x="1260.99" y="655.375" width="59.6514" height="59.6514" stroke="white" stroke-opacity="0.25" stroke-width="0.75"/>
<rect x="1260.99" y="715.375" width="59.6514" height="59.6514" stroke="white" stroke-opacity="0.25" stroke-width="0.75"/>
<rect x="1.35742" y="595.237" width="59.6514" height="59.6514" stroke="white" stroke-opacity="0.25" stroke-width="0.75"/>
<rect x="1.35742" y="655.375" width="59.6514" height="59.6514" stroke="white" stroke-opacity="0.25" stroke-width="0.75"/>
<rect x="1.35742" y="715.375" width="59.6514" height="59.6514" stroke="white" stroke-opacity="0.25" stroke-width="0.75"/>
<rect x="481.219" y="595.237" width="59.6514" height="59.6514" stroke="white" stroke-opacity="0.25" stroke-width="0.75"/>
<rect x="481.219" y="655.375" width="59.6514" height="59.6514" stroke="white" stroke-opacity="0.25" stroke-width="0.75"/>
<rect x="481.219" y="715.375" width="59.6514" height="59.6514" stroke="white" stroke-opacity="0.25" stroke-width="0.75"/>
<rect x="961.078" y="595.237" width="59.6514" height="59.6514" stroke="white" stroke-opacity="0.25" stroke-width="0.75"/>
<rect x="961.078" y="655.375" width="59.6514" height="59.6514" stroke="white" stroke-opacity="0.25" stroke-width="0.75"/>
<rect x="961.078" y="715.375" width="59.6514" height="59.6514" stroke="white" stroke-opacity="0.25" stroke-width="0.75"/>
<rect x="241.287" y="595.237" width="59.6514" height="59.6514" stroke="white" stroke-opacity="0.25" stroke-width="0.75"/>
<rect x="241.287" y="655.375" width="59.6514" height="59.6514" stroke="white" stroke-opacity="0.25" stroke-width="0.75"/>
<rect x="241.287" y="715.375" width="59.6514" height="59.6514" stroke="white" stroke-opacity="0.25" stroke-width="0.75"/>
<rect x="721.148" y="595.237" width="59.6514" height="59.6514" stroke="white" stroke-opacity="0.25" stroke-width="0.75"/>
<rect x="721.148" y="655.375" width="59.6514" height="59.6514" stroke="white" stroke-opacity="0.25" stroke-width="0.75"/>
<rect x="721.148" y="715.375" width="59.6514" height="59.6514" stroke="white" stroke-opacity="0.25" stroke-width="0.75"/>
<rect x="1201.01" y="595.237" width="59.6514" height="59.6514" stroke="white" stroke-opacity="0.25" stroke-width="0.75"/>
<rect x="1201.01" y="655.375" width="59.6514" height="59.6514" stroke="white" stroke-opacity="0.25" stroke-width="0.75"/>
<rect x="1201.01" y="715.375" width="59.6514" height="59.6514" stroke="white" stroke-opacity="0.25" stroke-width="0.75"/>
<rect x="121.322" y="595.237" width="59.6514" height="59.6514" stroke="white" stroke-opacity="0.25" stroke-width="0.75"/>
<rect x="121.322" y="655.375" width="59.6514" height="59.6514" stroke="white" stroke-opacity="0.25" stroke-width="0.75"/>
<rect x="121.322" y="715.375" width="59.6514" height="59.6514" stroke="white" stroke-opacity="0.25" stroke-width="0.75"/>
<rect x="601.184" y="595.237" width="59.6514" height="59.6514" stroke="white" stroke-opacity="0.25" stroke-width="0.75"/>
<rect x="601.184" y="655.375" width="59.6514" height="59.6514" stroke="white" stroke-opacity="0.25" stroke-width="0.75"/>
<rect x="601.184" y="715.375" width="59.6514" height="59.6514" stroke="white" stroke-opacity="0.25" stroke-width="0.75"/>
<rect x="1081.04" y="595.237" width="59.6514" height="59.6514" stroke="white" stroke-opacity="0.25" stroke-width="0.75"/>
<rect x="1081.04" y="655.375" width="59.6514" height="59.6514" stroke="white" stroke-opacity="0.25" stroke-width="0.75"/>
<rect x="1081.04" y="715.375" width="59.6514" height="59.6514" stroke="white" stroke-opacity="0.25" stroke-width="0.75"/>
<rect x="361.252" y="595.237" width="59.6514" height="59.6514" stroke="white" stroke-opacity="0.25" stroke-width="0.75"/>
<rect x="361.252" y="655.375" width="59.6514" height="59.6514" stroke="white" stroke-opacity="0.25" stroke-width="0.75"/>
<rect x="361.252" y="715.375" width="59.6514" height="59.6514" stroke="white" stroke-opacity="0.25" stroke-width="0.75"/>
<rect x="841.113" y="595.237" width="59.6514" height="59.6514" stroke="white" stroke-opacity="0.25" stroke-width="0.75"/>
<rect x="841.113" y="655.375" width="59.6514" height="59.6514" stroke="white" stroke-opacity="0.25" stroke-width="0.75"/>
<rect x="841.113" y="715.375" width="59.6514" height="59.6514" stroke="white" stroke-opacity="0.25" stroke-width="0.75"/>
</svg>
