<svg width="1440" height="715" viewBox="0 0 1440 715" fill="none" xmlns="http://www.w3.org/2000/svg">
<g opacity="0.25">
<rect x="0.375" y="0.375" width="59.6514" height="59.6514" stroke="white" stroke-width="0.75"/>
<rect x="480.234" y="0.375" width="59.6514" height="59.6514" stroke="white" stroke-width="0.75"/>
<rect x="960.096" y="0.375" width="59.6514" height="59.6514" stroke="white" stroke-width="0.75"/>
<rect x="240.305" y="0.375" width="59.6514" height="59.6514" stroke="white" stroke-width="0.75"/>
<rect x="720.166" y="0.375" width="59.6514" height="59.6514" stroke="white" stroke-width="0.75"/>
<rect x="1200.03" y="0.375" width="59.6514" height="59.6514" stroke="white" stroke-width="0.75"/>
<rect x="120.34" y="0.375" width="59.6514" height="59.6514" stroke="white" stroke-width="0.75"/>
<rect x="600.201" y="0.375" width="59.6514" height="59.6514" stroke="white" stroke-width="0.75"/>
<rect x="1080.06" y="0.375" width="59.6514" height="59.6514" stroke="white" stroke-width="0.75"/>
<rect x="360.27" y="0.375" width="59.6514" height="59.6514" stroke="white" stroke-width="0.75"/>
<rect x="840.131" y="0.375" width="59.6514" height="59.6514" stroke="white" stroke-width="0.75"/>
<rect x="1319.99" y="0.375" width="59.6514" height="59.6514" stroke="white" stroke-width="0.75"/>
<rect x="60.3574" y="0.375" width="59.6514" height="59.6514" stroke="white" stroke-width="0.75"/>
<rect x="540.219" y="0.375" width="59.6514" height="59.6514" stroke="white" stroke-width="0.75"/>
<rect x="1020.08" y="0.375" width="59.6514" height="59.6514" stroke="white" stroke-width="0.75"/>
<rect x="300.287" y="0.375" width="59.6514" height="59.6514" stroke="white" stroke-width="0.75"/>
<rect x="780.148" y="0.375" width="59.6514" height="59.6514" stroke="white" stroke-width="0.75"/>
<rect x="1260.01" y="0.375" width="59.6514" height="59.6514" stroke="white" stroke-width="0.75"/>
<rect x="180.322" y="0.375" width="59.6514" height="59.6514" stroke="white" stroke-width="0.75"/>
<rect x="660.184" y="0.375" width="59.6514" height="59.6514" stroke="white" stroke-width="0.75"/>
<rect x="1140.04" y="0.375" width="59.6514" height="59.6514" stroke="white" stroke-width="0.75"/>
<rect x="420.252" y="0.375" width="59.6514" height="59.6514" stroke="white" stroke-width="0.75"/>
<rect x="900.113" y="0.375" width="59.6514" height="59.6514" stroke="white" stroke-width="0.75"/>
<rect x="1379.97" y="0.375" width="59.6514" height="59.6514" stroke="white" stroke-width="0.75"/>
<rect x="0.375" y="238.32" width="59.6514" height="59.6514" stroke="white" stroke-width="0.75"/>
<rect x="480.234" y="238.32" width="59.6514" height="59.6514" stroke="white" stroke-width="0.75"/>
<rect x="960.096" y="238.32" width="59.6514" height="59.6514" stroke="white" stroke-width="0.75"/>
<rect x="240.305" y="238.32" width="59.6514" height="59.6514" stroke="white" stroke-width="0.75"/>
<rect x="720.166" y="238.32" width="59.6514" height="59.6514" stroke="white" stroke-width="0.75"/>
<rect x="1200.03" y="238.32" width="59.6514" height="59.6514" stroke="white" stroke-width="0.75"/>
<rect x="120.34" y="238.32" width="59.6514" height="59.6514" stroke="white" stroke-width="0.75"/>
<rect x="600.201" y="238.32" width="59.6514" height="59.6514" stroke="white" stroke-width="0.75"/>
<rect x="1080.06" y="238.32" width="59.6514" height="59.6514" stroke="white" stroke-width="0.75"/>
<rect x="360.27" y="238.32" width="59.6514" height="59.6514" stroke="white" stroke-width="0.75"/>
<rect x="840.131" y="238.32" width="59.6514" height="59.6514" stroke="white" stroke-width="0.75"/>
<rect x="1319.99" y="238.32" width="59.6514" height="59.6514" stroke="white" stroke-width="0.75"/>
<rect x="60.3574" y="238.32" width="59.6514" height="59.6514" stroke="white" stroke-width="0.75"/>
<rect x="540.219" y="238.32" width="59.6514" height="59.6514" stroke="white" stroke-width="0.75"/>
<rect x="1020.08" y="238.32" width="59.6514" height="59.6514" stroke="white" stroke-width="0.75"/>
<rect x="300.287" y="238.32" width="59.6514" height="59.6514" stroke="white" stroke-width="0.75"/>
<rect x="780.148" y="238.32" width="59.6514" height="59.6514" stroke="white" stroke-width="0.75"/>
<rect x="1260.01" y="238.32" width="59.6514" height="59.6514" stroke="white" stroke-width="0.75"/>
<rect x="180.322" y="238.32" width="59.6514" height="59.6514" stroke="white" stroke-width="0.75"/>
<rect x="660.184" y="238.32" width="59.6514" height="59.6514" stroke="white" stroke-width="0.75"/>
<rect x="1140.04" y="238.32" width="59.6514" height="59.6514" stroke="white" stroke-width="0.75"/>
<rect x="420.252" y="238.32" width="59.6514" height="59.6514" stroke="white" stroke-width="0.75"/>
<rect x="900.113" y="238.32" width="59.6514" height="59.6514" stroke="white" stroke-width="0.75"/>
<rect x="1379.97" y="238.32" width="59.6514" height="59.6514" stroke="white" stroke-width="0.75"/>
<rect x="0.375" y="119.347" width="59.6514" height="59.6514" stroke="white" stroke-width="0.75"/>
<rect x="480.234" y="119.347" width="59.6514" height="59.6514" stroke="white" stroke-width="0.75"/>
<rect x="960.096" y="119.347" width="59.6514" height="59.6514" stroke="white" stroke-width="0.75"/>
<rect x="240.305" y="119.347" width="59.6514" height="59.6514" stroke="white" stroke-width="0.75"/>
<rect x="720.166" y="119.347" width="59.6514" height="59.6514" stroke="white" stroke-width="0.75"/>
<rect x="1200.03" y="119.347" width="59.6514" height="59.6514" stroke="white" stroke-width="0.75"/>
<rect x="120.34" y="119.347" width="59.6514" height="59.6514" stroke="white" stroke-width="0.75"/>
<rect x="600.201" y="119.347" width="59.6514" height="59.6514" stroke="white" stroke-width="0.75"/>
<rect x="1080.06" y="119.347" width="59.6514" height="59.6514" stroke="white" stroke-width="0.75"/>
<rect x="360.27" y="119.347" width="59.6514" height="59.6514" stroke="white" stroke-width="0.75"/>
<rect x="840.131" y="119.347" width="59.6514" height="59.6514" stroke="white" stroke-width="0.75"/>
<rect x="1319.99" y="119.347" width="59.6514" height="59.6514" stroke="white" stroke-width="0.75"/>
<rect x="60.3574" y="119.347" width="59.6514" height="59.6514" stroke="white" stroke-width="0.75"/>
<rect x="540.219" y="119.347" width="59.6514" height="59.6514" stroke="white" stroke-width="0.75"/>
<rect x="1020.08" y="119.347" width="59.6514" height="59.6514" stroke="white" stroke-width="0.75"/>
<rect x="300.287" y="119.347" width="59.6514" height="59.6514" stroke="white" stroke-width="0.75"/>
<rect x="780.148" y="119.347" width="59.6514" height="59.6514" stroke="white" stroke-width="0.75"/>
<rect x="1260.01" y="119.347" width="59.6514" height="59.6514" stroke="white" stroke-width="0.75"/>
<rect x="180.322" y="119.347" width="59.6514" height="59.6514" stroke="white" stroke-width="0.75"/>
<rect x="660.184" y="119.347" width="59.6514" height="59.6514" stroke="white" stroke-width="0.75"/>
<rect x="1140.04" y="119.347" width="59.6514" height="59.6514" stroke="white" stroke-width="0.75"/>
<rect x="420.252" y="119.347" width="59.6514" height="59.6514" stroke="white" stroke-width="0.75"/>
<rect x="900.113" y="119.347" width="59.6514" height="59.6514" stroke="white" stroke-width="0.75"/>
<rect x="1379.97" y="119.347" width="59.6514" height="59.6514" stroke="white" stroke-width="0.75"/>
<rect x="0.375" y="357.292" width="59.6514" height="59.6514" stroke="white" stroke-width="0.75"/>
<rect x="480.234" y="357.292" width="59.6514" height="59.6514" stroke="white" stroke-width="0.75"/>
<rect x="960.096" y="357.292" width="59.6514" height="59.6514" stroke="white" stroke-width="0.75"/>
<rect x="240.305" y="357.292" width="59.6514" height="59.6514" stroke="white" stroke-width="0.75"/>
<rect x="720.166" y="357.292" width="59.6514" height="59.6514" stroke="white" stroke-width="0.75"/>
<rect x="1200.03" y="357.292" width="59.6514" height="59.6514" stroke="white" stroke-width="0.75"/>
<rect x="120.34" y="357.292" width="59.6514" height="59.6514" stroke="white" stroke-width="0.75"/>
<rect x="600.201" y="357.292" width="59.6514" height="59.6514" stroke="white" stroke-width="0.75"/>
<rect x="1080.06" y="357.292" width="59.6514" height="59.6514" stroke="white" stroke-width="0.75"/>
<rect x="360.27" y="357.292" width="59.6514" height="59.6514" stroke="white" stroke-width="0.75"/>
<rect x="840.131" y="357.292" width="59.6514" height="59.6514" stroke="white" stroke-width="0.75"/>
<rect x="1319.99" y="357.292" width="59.6514" height="59.6514" stroke="white" stroke-width="0.75"/>
<rect x="60.3574" y="357.292" width="59.6514" height="59.6514" stroke="white" stroke-width="0.75"/>
<rect x="540.219" y="357.292" width="59.6514" height="59.6514" stroke="white" stroke-width="0.75"/>
<rect x="1020.08" y="357.292" width="59.6514" height="59.6514" stroke="white" stroke-width="0.75"/>
<rect x="300.287" y="357.292" width="59.6514" height="59.6514" stroke="white" stroke-width="0.75"/>
<rect x="780.148" y="357.292" width="59.6514" height="59.6514" stroke="white" stroke-width="0.75"/>
<rect x="1260.01" y="357.292" width="59.6514" height="59.6514" stroke="white" stroke-width="0.75"/>
<rect x="180.322" y="357.292" width="59.6514" height="59.6514" stroke="white" stroke-width="0.75"/>
<rect x="660.184" y="357.292" width="59.6514" height="59.6514" stroke="white" stroke-width="0.75"/>
<rect x="1140.04" y="357.292" width="59.6514" height="59.6514" stroke="white" stroke-width="0.75"/>
<rect x="420.252" y="357.292" width="59.6514" height="59.6514" stroke="white" stroke-width="0.75"/>
<rect x="900.113" y="357.292" width="59.6514" height="59.6514" stroke="white" stroke-width="0.75"/>
<rect x="1379.97" y="357.292" width="59.6514" height="59.6514" stroke="white" stroke-width="0.75"/>
<rect x="0.375" y="59.8613" width="59.6514" height="59.6514" stroke="white" stroke-width="0.75"/>
<rect x="480.234" y="59.8613" width="59.6514" height="59.6514" stroke="white" stroke-width="0.75"/>
<rect x="960.096" y="59.8613" width="59.6514" height="59.6514" stroke="white" stroke-width="0.75"/>
<rect x="240.305" y="59.8613" width="59.6514" height="59.6514" stroke="white" stroke-width="0.75"/>
<rect x="720.166" y="59.8613" width="59.6514" height="59.6514" stroke="white" stroke-width="0.75"/>
<rect x="1200.03" y="59.8613" width="59.6514" height="59.6514" stroke="white" stroke-width="0.75"/>
<rect x="120.34" y="59.8613" width="59.6514" height="59.6514" stroke="white" stroke-width="0.75"/>
<rect x="600.201" y="59.8613" width="59.6514" height="59.6514" stroke="white" stroke-width="0.75"/>
<rect x="1080.06" y="59.8613" width="59.6514" height="59.6514" stroke="white" stroke-width="0.75"/>
<rect x="360.27" y="59.8613" width="59.6514" height="59.6514" stroke="white" stroke-width="0.75"/>
<rect x="840.131" y="59.8613" width="59.6514" height="59.6514" stroke="white" stroke-width="0.75"/>
<rect x="1319.99" y="59.8613" width="59.6514" height="59.6514" stroke="white" stroke-width="0.75"/>
<rect x="60.3574" y="59.8613" width="59.6514" height="59.6514" stroke="white" stroke-width="0.75"/>
<rect x="540.219" y="59.8613" width="59.6514" height="59.6514" stroke="white" stroke-width="0.75"/>
<rect x="1020.08" y="59.8613" width="59.6514" height="59.6514" stroke="white" stroke-width="0.75"/>
<rect x="300.287" y="59.8613" width="59.6514" height="59.6514" stroke="white" stroke-width="0.75"/>
<rect x="780.148" y="59.8613" width="59.6514" height="59.6514" stroke="white" stroke-width="0.75"/>
<rect x="1260.01" y="59.8613" width="59.6514" height="59.6514" stroke="white" stroke-width="0.75"/>
<rect x="180.322" y="59.8613" width="59.6514" height="59.6514" stroke="white" stroke-width="0.75"/>
<rect x="660.184" y="59.8613" width="59.6514" height="59.6514" stroke="white" stroke-width="0.75"/>
<rect x="1140.04" y="59.8613" width="59.6514" height="59.6514" stroke="white" stroke-width="0.75"/>
<rect x="420.252" y="59.8613" width="59.6514" height="59.6514" stroke="white" stroke-width="0.75"/>
<rect x="900.113" y="59.8613" width="59.6514" height="59.6514" stroke="white" stroke-width="0.75"/>
<rect x="1379.97" y="59.8613" width="59.6514" height="59.6514" stroke="white" stroke-width="0.75"/>
<rect x="0.375" y="297.806" width="59.6514" height="59.6514" stroke="white" stroke-width="0.75"/>
<rect x="480.234" y="297.806" width="59.6514" height="59.6514" stroke="white" stroke-width="0.75"/>
<rect x="960.096" y="297.806" width="59.6514" height="59.6514" stroke="white" stroke-width="0.75"/>
<rect x="240.305" y="297.806" width="59.6514" height="59.6514" stroke="white" stroke-width="0.75"/>
<rect x="720.166" y="297.806" width="59.6514" height="59.6514" stroke="white" stroke-width="0.75"/>
<rect x="1200.03" y="297.806" width="59.6514" height="59.6514" stroke="white" stroke-width="0.75"/>
<rect x="120.34" y="297.806" width="59.6514" height="59.6514" stroke="white" stroke-width="0.75"/>
<rect x="600.201" y="297.806" width="59.6514" height="59.6514" stroke="white" stroke-width="0.75"/>
<rect x="1080.06" y="297.806" width="59.6514" height="59.6514" stroke="white" stroke-width="0.75"/>
<rect x="360.27" y="297.806" width="59.6514" height="59.6514" stroke="white" stroke-width="0.75"/>
<rect x="840.131" y="297.806" width="59.6514" height="59.6514" stroke="white" stroke-width="0.75"/>
<rect x="1319.99" y="297.806" width="59.6514" height="59.6514" stroke="white" stroke-width="0.75"/>
<rect x="60.3574" y="297.806" width="59.6514" height="59.6514" stroke="white" stroke-width="0.75"/>
<rect x="540.219" y="297.806" width="59.6514" height="59.6514" stroke="white" stroke-width="0.75"/>
<rect x="1020.08" y="297.806" width="59.6514" height="59.6514" stroke="white" stroke-width="0.75"/>
<rect x="300.287" y="297.806" width="59.6514" height="59.6514" stroke="white" stroke-width="0.75"/>
<rect x="780.148" y="297.806" width="59.6514" height="59.6514" stroke="white" stroke-width="0.75"/>
<rect x="1260.01" y="297.806" width="59.6514" height="59.6514" stroke="white" stroke-width="0.75"/>
<rect x="180.322" y="297.806" width="59.6514" height="59.6514" stroke="white" stroke-width="0.75"/>
<rect x="660.184" y="297.806" width="59.6514" height="59.6514" stroke="white" stroke-width="0.75"/>
<rect x="1140.04" y="297.806" width="59.6514" height="59.6514" stroke="white" stroke-width="0.75"/>
<rect x="420.252" y="297.806" width="59.6514" height="59.6514" stroke="white" stroke-width="0.75"/>
<rect x="900.113" y="297.806" width="59.6514" height="59.6514" stroke="white" stroke-width="0.75"/>
<rect x="1379.97" y="297.806" width="59.6514" height="59.6514" stroke="white" stroke-width="0.75"/>
<rect x="0.375" y="178.834" width="59.6514" height="59.6514" stroke="white" stroke-width="0.75"/>
<rect x="480.234" y="178.834" width="59.6514" height="59.6514" stroke="white" stroke-width="0.75"/>
<rect x="960.096" y="178.834" width="59.6514" height="59.6514" stroke="white" stroke-width="0.75"/>
<rect x="240.305" y="178.834" width="59.6514" height="59.6514" stroke="white" stroke-width="0.75"/>
<rect x="720.166" y="178.834" width="59.6514" height="59.6514" stroke="white" stroke-width="0.75"/>
<rect x="1200.03" y="178.834" width="59.6514" height="59.6514" stroke="white" stroke-width="0.75"/>
<rect x="120.34" y="178.834" width="59.6514" height="59.6514" stroke="white" stroke-width="0.75"/>
<rect x="600.201" y="178.834" width="59.6514" height="59.6514" stroke="white" stroke-width="0.75"/>
<rect x="1080.06" y="178.834" width="59.6514" height="59.6514" stroke="white" stroke-width="0.75"/>
<rect x="360.27" y="178.834" width="59.6514" height="59.6514" stroke="white" stroke-width="0.75"/>
<rect x="840.131" y="178.834" width="59.6514" height="59.6514" stroke="white" stroke-width="0.75"/>
<rect x="1319.99" y="178.834" width="59.6514" height="59.6514" stroke="white" stroke-width="0.75"/>
<rect x="60.3574" y="178.834" width="59.6514" height="59.6514" stroke="white" stroke-width="0.75"/>
<rect x="540.219" y="178.834" width="59.6514" height="59.6514" stroke="white" stroke-width="0.75"/>
<rect x="1020.08" y="178.834" width="59.6514" height="59.6514" stroke="white" stroke-width="0.75"/>
<rect x="300.287" y="178.834" width="59.6514" height="59.6514" stroke="white" stroke-width="0.75"/>
<rect x="780.148" y="178.834" width="59.6514" height="59.6514" stroke="white" stroke-width="0.75"/>
<rect x="1260.01" y="178.834" width="59.6514" height="59.6514" stroke="white" stroke-width="0.75"/>
<rect x="180.322" y="178.834" width="59.6514" height="59.6514" stroke="white" stroke-width="0.75"/>
<rect x="660.184" y="178.834" width="59.6514" height="59.6514" stroke="white" stroke-width="0.75"/>
<rect x="1140.04" y="178.834" width="59.6514" height="59.6514" stroke="white" stroke-width="0.75"/>
<rect x="420.252" y="178.834" width="59.6514" height="59.6514" stroke="white" stroke-width="0.75"/>
<rect x="900.113" y="178.834" width="59.6514" height="59.6514" stroke="white" stroke-width="0.75"/>
<rect x="1379.97" y="178.834" width="59.6514" height="59.6514" stroke="white" stroke-width="0.75"/>
<rect x="0.375" y="416.779" width="59.6514" height="59.6514" stroke="white" stroke-width="0.75"/>
<rect x="480.234" y="416.779" width="59.6514" height="59.6514" stroke="white" stroke-width="0.75"/>
<rect x="960.096" y="416.779" width="59.6514" height="59.6514" stroke="white" stroke-width="0.75"/>
<rect x="240.305" y="416.779" width="59.6514" height="59.6514" stroke="white" stroke-width="0.75"/>
<rect x="720.166" y="416.779" width="59.6514" height="59.6514" stroke="white" stroke-width="0.75"/>
<rect x="1200.03" y="416.779" width="59.6514" height="59.6514" stroke="white" stroke-width="0.75"/>
<rect x="120.34" y="416.779" width="59.6514" height="59.6514" stroke="white" stroke-width="0.75"/>
<rect x="600.201" y="416.779" width="59.6514" height="59.6514" stroke="white" stroke-width="0.75"/>
<rect x="1080.06" y="416.779" width="59.6514" height="59.6514" stroke="white" stroke-width="0.75"/>
<rect x="360.27" y="416.779" width="59.6514" height="59.6514" stroke="white" stroke-width="0.75"/>
<rect x="840.131" y="416.779" width="59.6514" height="59.6514" stroke="white" stroke-width="0.75"/>
<rect x="1319.99" y="416.779" width="59.6514" height="59.6514" stroke="white" stroke-width="0.75"/>
<rect x="60.3574" y="416.779" width="59.6514" height="59.6514" stroke="white" stroke-width="0.75"/>
<rect x="540.219" y="416.779" width="59.6514" height="59.6514" stroke="white" stroke-width="0.75"/>
<rect x="1020.08" y="416.779" width="59.6514" height="59.6514" stroke="white" stroke-width="0.75"/>
<rect x="300.287" y="416.779" width="59.6514" height="59.6514" stroke="white" stroke-width="0.75"/>
<rect x="780.148" y="416.779" width="59.6514" height="59.6514" stroke="white" stroke-width="0.75"/>
<rect x="1260.01" y="416.779" width="59.6514" height="59.6514" stroke="white" stroke-width="0.75"/>
<rect x="180.322" y="416.779" width="59.6514" height="59.6514" stroke="white" stroke-width="0.75"/>
<rect x="660.184" y="416.779" width="59.6514" height="59.6514" stroke="white" stroke-width="0.75"/>
<rect x="1140.04" y="416.779" width="59.6514" height="59.6514" stroke="white" stroke-width="0.75"/>
<rect x="420.252" y="416.779" width="59.6514" height="59.6514" stroke="white" stroke-width="0.75"/>
<rect x="900.113" y="416.779" width="59.6514" height="59.6514" stroke="white" stroke-width="0.75"/>
<rect x="1379.97" y="416.779" width="59.6514" height="59.6514" stroke="white" stroke-width="0.75"/>
<rect x="0.375" y="476.265" width="59.6514" height="59.6514" stroke="white" stroke-width="0.75"/>
<rect x="480.234" y="476.265" width="59.6514" height="59.6514" stroke="white" stroke-width="0.75"/>
<rect x="960.096" y="476.265" width="59.6514" height="59.6514" stroke="white" stroke-width="0.75"/>
<rect x="240.305" y="476.265" width="59.6514" height="59.6514" stroke="white" stroke-width="0.75"/>
<rect x="720.166" y="476.265" width="59.6514" height="59.6514" stroke="white" stroke-width="0.75"/>
<rect x="1200.03" y="476.265" width="59.6514" height="59.6514" stroke="white" stroke-width="0.75"/>
<rect x="120.34" y="476.265" width="59.6514" height="59.6514" stroke="white" stroke-width="0.75"/>
<rect x="600.201" y="476.265" width="59.6514" height="59.6514" stroke="white" stroke-width="0.75"/>
<rect x="1080.06" y="476.265" width="59.6514" height="59.6514" stroke="white" stroke-width="0.75"/>
<rect x="360.27" y="476.265" width="59.6514" height="59.6514" stroke="white" stroke-width="0.75"/>
<rect x="840.131" y="476.265" width="59.6514" height="59.6514" stroke="white" stroke-width="0.75"/>
<rect x="1319.99" y="476.265" width="59.6514" height="59.6514" stroke="white" stroke-width="0.75"/>
<rect x="60.3574" y="476.265" width="59.6514" height="59.6514" stroke="white" stroke-width="0.75"/>
<rect x="540.219" y="476.265" width="59.6514" height="59.6514" stroke="white" stroke-width="0.75"/>
<rect x="1020.08" y="476.265" width="59.6514" height="59.6514" stroke="white" stroke-width="0.75"/>
<rect x="300.287" y="476.265" width="59.6514" height="59.6514" stroke="white" stroke-width="0.75"/>
<rect x="780.148" y="476.265" width="59.6514" height="59.6514" stroke="white" stroke-width="0.75"/>
<rect x="1260.01" y="476.265" width="59.6514" height="59.6514" stroke="white" stroke-width="0.75"/>
<rect x="180.322" y="476.265" width="59.6514" height="59.6514" stroke="white" stroke-width="0.75"/>
<rect x="660.184" y="476.265" width="59.6514" height="59.6514" stroke="white" stroke-width="0.75"/>
<rect x="1140.04" y="476.265" width="59.6514" height="59.6514" stroke="white" stroke-width="0.75"/>
<rect x="420.252" y="476.265" width="59.6514" height="59.6514" stroke="white" stroke-width="0.75"/>
<rect x="900.113" y="476.265" width="59.6514" height="59.6514" stroke="white" stroke-width="0.75"/>
<rect x="1379.97" y="476.265" width="59.6514" height="59.6514" stroke="white" stroke-width="0.75"/>
<rect x="0.375" y="535.751" width="59.6514" height="59.6514" stroke="white" stroke-width="0.75"/>
<rect x="480.234" y="535.751" width="59.6514" height="59.6514" stroke="white" stroke-width="0.75"/>
<rect x="960.096" y="535.751" width="59.6514" height="59.6514" stroke="white" stroke-width="0.75"/>
<rect x="240.305" y="535.751" width="59.6514" height="59.6514" stroke="white" stroke-width="0.75"/>
<rect x="720.166" y="535.751" width="59.6514" height="59.6514" stroke="white" stroke-width="0.75"/>
<rect x="1200.03" y="535.751" width="59.6514" height="59.6514" stroke="white" stroke-width="0.75"/>
<rect x="120.34" y="535.751" width="59.6514" height="59.6514" stroke="white" stroke-width="0.75"/>
<rect x="600.201" y="535.751" width="59.6514" height="59.6514" stroke="white" stroke-width="0.75"/>
<rect x="1080.06" y="535.751" width="59.6514" height="59.6514" stroke="white" stroke-width="0.75"/>
<rect x="360.27" y="535.751" width="59.6514" height="59.6514" stroke="white" stroke-width="0.75"/>
<rect x="840.131" y="535.751" width="59.6514" height="59.6514" stroke="white" stroke-width="0.75"/>
<rect x="1319.99" y="535.751" width="59.6514" height="59.6514" stroke="white" stroke-width="0.75"/>
<rect x="60.3574" y="535.751" width="59.6514" height="59.6514" stroke="white" stroke-width="0.75"/>
<rect x="540.219" y="535.751" width="59.6514" height="59.6514" stroke="white" stroke-width="0.75"/>
<rect x="1020.08" y="535.751" width="59.6514" height="59.6514" stroke="white" stroke-width="0.75"/>
<rect x="300.287" y="535.751" width="59.6514" height="59.6514" stroke="white" stroke-width="0.75"/>
<rect x="780.148" y="535.751" width="59.6514" height="59.6514" stroke="white" stroke-width="0.75"/>
<rect x="1260.01" y="535.751" width="59.6514" height="59.6514" stroke="white" stroke-width="0.75"/>
<rect x="180.322" y="535.751" width="59.6514" height="59.6514" stroke="white" stroke-width="0.75"/>
<rect x="660.184" y="535.751" width="59.6514" height="59.6514" stroke="white" stroke-width="0.75"/>
<rect x="1140.04" y="535.751" width="59.6514" height="59.6514" stroke="white" stroke-width="0.75"/>
<rect x="420.252" y="535.751" width="59.6514" height="59.6514" stroke="white" stroke-width="0.75"/>
<rect x="900.113" y="535.751" width="59.6514" height="59.6514" stroke="white" stroke-width="0.75"/>
<rect x="1379.97" y="535.751" width="59.6514" height="59.6514" stroke="white" stroke-width="0.75"/>
<rect x="0.375" y="595.237" width="59.6514" height="59.6514" stroke="white" stroke-width="0.75"/>
<rect x="0.375" y="655.375" width="59.6514" height="59.6514" stroke="white" stroke-width="0.75"/>
<rect x="480.234" y="595.237" width="59.6514" height="59.6514" stroke="white" stroke-width="0.75"/>
<rect x="480.234" y="655.375" width="59.6514" height="59.6514" stroke="white" stroke-width="0.75"/>
<rect x="960.096" y="595.237" width="59.6514" height="59.6514" stroke="white" stroke-width="0.75"/>
<rect x="960.096" y="655.375" width="59.6514" height="59.6514" stroke="white" stroke-width="0.75"/>
<rect x="240.305" y="595.237" width="59.6514" height="59.6514" stroke="white" stroke-width="0.75"/>
<rect x="240.305" y="655.375" width="59.6514" height="59.6514" stroke="white" stroke-width="0.75"/>
<rect x="720.166" y="595.237" width="59.6514" height="59.6514" stroke="white" stroke-width="0.75"/>
<rect x="720.166" y="655.375" width="59.6514" height="59.6514" stroke="white" stroke-width="0.75"/>
<rect x="1200.03" y="595.237" width="59.6514" height="59.6514" stroke="white" stroke-width="0.75"/>
<rect x="1200.03" y="655.375" width="59.6514" height="59.6514" stroke="white" stroke-width="0.75"/>
<rect x="120.34" y="595.237" width="59.6514" height="59.6514" stroke="white" stroke-width="0.75"/>
<rect x="120.34" y="655.375" width="59.6514" height="59.6514" stroke="white" stroke-width="0.75"/>
<rect x="600.201" y="595.237" width="59.6514" height="59.6514" stroke="white" stroke-width="0.75"/>
<rect x="600.201" y="655.375" width="59.6514" height="59.6514" stroke="white" stroke-width="0.75"/>
<rect x="1080.06" y="595.237" width="59.6514" height="59.6514" stroke="white" stroke-width="0.75"/>
<rect x="1080.06" y="655.375" width="59.6514" height="59.6514" stroke="white" stroke-width="0.75"/>
<rect x="360.27" y="595.237" width="59.6514" height="59.6514" stroke="white" stroke-width="0.75"/>
<rect x="360.27" y="655.375" width="59.6514" height="59.6514" stroke="white" stroke-width="0.75"/>
<rect x="840.131" y="595.237" width="59.6514" height="59.6514" stroke="white" stroke-width="0.75"/>
<rect x="840.131" y="655.375" width="59.6514" height="59.6514" stroke="white" stroke-width="0.75"/>
<rect x="1319.99" y="595.237" width="59.6514" height="59.6514" stroke="white" stroke-width="0.75"/>
<rect x="1319.99" y="655.375" width="59.6514" height="59.6514" stroke="white" stroke-width="0.75"/>
<rect x="60.3574" y="595.237" width="59.6514" height="59.6514" stroke="white" stroke-width="0.75"/>
<rect x="60.3574" y="655.375" width="59.6514" height="59.6514" stroke="white" stroke-width="0.75"/>
<rect x="540.219" y="595.237" width="59.6514" height="59.6514" stroke="white" stroke-width="0.75"/>
<rect x="540.219" y="655.375" width="59.6514" height="59.6514" stroke="white" stroke-width="0.75"/>
<rect x="1020.08" y="595.237" width="59.6514" height="59.6514" stroke="white" stroke-width="0.75"/>
<rect x="1020.08" y="655.375" width="59.6514" height="59.6514" stroke="white" stroke-width="0.75"/>
<rect x="300.287" y="595.237" width="59.6514" height="59.6514" stroke="white" stroke-width="0.75"/>
<rect x="300.287" y="655.375" width="59.6514" height="59.6514" stroke="white" stroke-width="0.75"/>
<rect x="780.148" y="595.237" width="59.6514" height="59.6514" stroke="white" stroke-width="0.75"/>
<rect x="780.148" y="655.375" width="59.6514" height="59.6514" stroke="white" stroke-width="0.75"/>
<rect x="1260.01" y="595.237" width="59.6514" height="59.6514" stroke="white" stroke-width="0.75"/>
<rect x="1260.01" y="655.375" width="59.6514" height="59.6514" stroke="white" stroke-width="0.75"/>
<rect x="180.322" y="595.237" width="59.6514" height="59.6514" stroke="white" stroke-width="0.75"/>
<rect x="180.322" y="655.375" width="59.6514" height="59.6514" stroke="white" stroke-width="0.75"/>
<rect x="660.184" y="595.237" width="59.6514" height="59.6514" stroke="white" stroke-width="0.75"/>
<rect x="660.184" y="655.375" width="59.6514" height="59.6514" stroke="white" stroke-width="0.75"/>
<rect x="1140.04" y="595.237" width="59.6514" height="59.6514" stroke="white" stroke-width="0.75"/>
<rect x="1140.04" y="655.375" width="59.6514" height="59.6514" stroke="white" stroke-width="0.75"/>
<rect x="420.252" y="595.237" width="59.6514" height="59.6514" stroke="white" stroke-width="0.75"/>
<rect x="420.252" y="655.375" width="59.6514" height="59.6514" stroke="white" stroke-width="0.75"/>
<rect x="900.113" y="595.237" width="59.6514" height="59.6514" stroke="white" stroke-width="0.75"/>
<rect x="900.113" y="655.375" width="59.6514" height="59.6514" stroke="white" stroke-width="0.75"/>
<rect x="1379.97" y="595.237" width="59.6514" height="59.6514" stroke="white" stroke-width="0.75"/>
<rect x="1379.97" y="655.375" width="59.6514" height="59.6514" stroke="white" stroke-width="0.75"/>
</g>
</svg>
