<svg width="12" height="12" viewBox="0 0 12 12" fill="none" xmlns="http://www.w3.org/2000/svg">
<path d="M6 2.26382C4.82209 1.20845 3.01063 1.24673 1.87868 2.37868C0.707107 3.55025 0.707107 5.44975 1.87868 6.62132L5.29289 10.0355C5.68342 10.4261 6.31658 10.4261 6.70711 10.0355L10.1213 6.62132C11.2929 5.44975 11.2929 3.55025 10.1213 2.37868C8.98937 1.24673 7.17791 1.20845 6 2.26382ZM5.41421 3.08579L5.64645 3.31802C5.84171 3.51328 6.15829 3.51328 6.35355 3.31802L6.58579 3.08579C7.36684 2.30474 8.63317 2.30474 9.41421 3.08579C10.1953 3.86684 10.1953 5.13316 9.41421 5.91421L6 9.32843L2.58579 5.91421C1.80474 5.13316 1.80474 3.86684 2.58579 3.08579C3.36684 2.30474 4.63316 2.30474 5.41421 3.08579Z" fill="#755AFF"/>
</svg>
