<svg width="14" height="11" viewBox="0 0 14 11" fill="none" xmlns="http://www.w3.org/2000/svg">
<path d="M3.64928 10.9628V3.58401H1.0185V10.9628H3.64928ZM2.33423 2.57595C3.25163 2.57595 3.82267 2.00935 3.82267 1.30128C3.80558 0.577246 3.25167 0.0263672 2.35164 0.0263672C1.45175 0.0263672 0.863281 0.577257 0.863281 1.30128C0.863281 2.00938 1.43418 2.57595 2.31705 2.57595H2.33415H2.33423ZM5.10541 10.9628H7.7362V6.84212C7.7362 6.62159 7.75329 6.40128 7.82276 6.24364C8.01295 5.80302 8.44582 5.34666 9.17255 5.34666C10.1245 5.34666 10.5054 6.02332 10.5054 7.01525V10.9627H13.136V6.73182C13.136 4.46534 11.8381 3.41077 10.1072 3.41077C8.688 3.41077 8.06487 4.15032 7.7187 4.65402H7.73626V3.58385H5.10547C5.14 4.27624 5.10547 10.9626 5.10547 10.9626L5.10541 10.9628Z" fill="white"/>
</svg>
