<svg width="270" height="43" viewBox="0 0 270 43" fill="none" xmlns="http://www.w3.org/2000/svg">
<path fill-rule="evenodd" clip-rule="evenodd" d="M9.67097 23.5635C8.53042 22.7581 5.78787 22.1611 5.67496 22.1363C4.18915 21.789 3.15333 21.397 2.50533 20.9356C1.84587 20.4775 1.50551 19.9069 1.49078 19.2437C1.48751 18.5061 1.85078 17.8462 2.57406 17.2905C3.36606 16.7017 4.34133 16.4024 5.51133 16.3941C6.59133 16.3991 7.94296 16.9432 9.51224 17.9983C9.63569 18.1031 9.79291 18.1584 9.95406 18.1538C10.0774 18.1568 10.1992 18.1253 10.306 18.0629C10.4128 18.0004 10.5006 17.9094 10.5595 17.7999C10.8066 17.3914 10.7346 17.0193 10.3599 16.758C9.34281 15.9722 8.17973 15.4014 6.93987 15.0793C6.07751 14.8676 5.52115 14.8825 5.46715 14.8858C4.00424 14.8941 2.73442 15.296 1.69206 16.0815C0.562965 16.9283 -0.00648967 17.995 5.57881e-05 19.2503C-0.0048533 20.4708 0.561329 21.4681 1.68387 22.2156C2.93406 23.0475 5.37551 23.5801 5.39515 23.585C7.12478 24.0183 8.07878 24.3144 8.8086 24.8221C9.56133 25.3513 9.9426 26.0013 9.94751 26.7571C9.94097 27.5791 9.53515 28.2985 8.73824 28.8955C7.90206 29.5405 6.84333 29.8713 5.59151 29.8779H5.50315C4.45587 29.8779 3.39387 29.5918 2.35151 29.0262C1.95986 28.8091 1.58219 28.5671 1.22078 28.3018C1.14428 28.2349 1.05435 28.1854 0.957178 28.1569C0.860001 28.1283 0.757867 28.1214 0.657776 28.1364C0.557685 28.1515 0.462003 28.1883 0.377287 28.2442C0.292571 28.3002 0.220825 28.374 0.166965 28.4606C-0.0310351 28.75 -0.044126 29.0394 0.127692 29.2925L0.103147 29.3272L0.260238 29.443C0.28151 29.4645 0.304419 29.486 0.33551 29.5108C0.453329 29.5968 0.571147 29.6761 0.690601 29.7539L0.932783 29.9143C1.05387 29.9937 1.1766 30.0665 1.29606 30.1376C1.41715 30.2103 1.5366 30.2815 1.65769 30.3476L1.92442 30.4898V30.4865C3.13206 31.1001 4.35606 31.416 5.59969 31.4226C7.14606 31.4143 8.50587 30.981 9.64151 30.1343C10.8393 29.218 11.4497 28.0802 11.4546 26.7521C11.4464 25.4522 10.8622 24.4086 9.66933 23.5635H9.67097ZM94.7095 22.2702L101.114 16.2287C101.137 16.2083 101.155 16.1842 101.17 16.1576C101.183 16.1413 101.195 16.1241 101.206 16.1063C101.308 15.9681 101.357 15.7968 101.342 15.6249C101.328 15.4529 101.251 15.2924 101.127 15.1736L101.064 15.1107L101.026 15.0859C100.899 14.9784 100.742 14.9133 100.577 14.8994C100.412 14.8854 100.247 14.9235 100.105 15.0082C100.075 15.0234 100.046 15.0411 100.02 15.0611L90.0442 24.488L90.0279 15.63C90.0251 15.5291 90.0027 15.4297 89.9619 15.3376C89.921 15.2454 89.8626 15.1623 89.7899 15.093C89.7173 15.0237 89.6318 14.9696 89.5384 14.9338C89.445 14.8979 89.3455 14.8811 89.2457 14.8841H89.1426C88.9418 14.8788 88.747 14.9541 88.601 15.0936C88.455 15.2331 88.3697 15.4254 88.3637 15.6284L88.3801 30.6767C88.3801 31.0885 88.7286 31.421 89.159 31.421H89.2621C89.3644 31.4223 89.466 31.4029 89.5609 31.364C89.6558 31.3252 89.742 31.2675 89.8146 31.1945C89.8871 31.1215 89.9445 31.0346 89.9834 30.9388C90.0223 30.8431 90.0418 30.7405 90.041 30.637L90.0344 26.7009L93.533 23.4015L99.3731 30.4005L99.9966 31.1448C100.072 31.2337 100.165 31.3048 100.271 31.3528C100.376 31.4009 100.491 31.4247 100.607 31.4226C100.782 31.4226 100.952 31.3645 101.091 31.2572L101.163 31.2043C101.242 31.1457 101.309 31.0712 101.358 30.9856C101.407 30.8999 101.438 30.8048 101.45 30.7064C101.461 30.6079 101.452 30.5082 101.423 30.4135C101.394 30.3187 101.347 30.231 101.283 30.1558L94.7079 22.2702H94.7095ZM30.3039 21.9924L30.3022 21.994C29.6968 22.6357 28.9457 22.9632 28.0751 22.9681L24.4391 22.9731L24.4359 16.4603L28.0686 16.4553C28.4861 16.4519 28.9 16.5339 29.2853 16.6965C29.6705 16.8591 30.0193 17.0988 30.3104 17.4013C30.9224 18.0331 31.2301 18.8104 31.2251 19.7101C31.2301 20.5965 30.9208 21.3639 30.3039 21.9924ZM31.3659 16.285C30.9415 15.8379 30.4314 15.4831 29.8667 15.2423C29.302 15.0014 28.6946 14.8796 28.0817 14.8841L23.6586 14.8941C23.1726 14.8974 22.9075 15.1703 22.9108 15.6648V30.6767C22.9108 31.0819 23.2446 31.4226 23.6406 31.4226H23.7355C24.1282 31.4226 24.449 31.0885 24.449 30.6784L24.4473 24.5426L28.1177 24.5029C29.3777 24.4946 30.4724 24.0167 31.3675 23.0806C31.809 22.6399 32.1573 22.1132 32.3913 21.5324C32.6254 20.9516 32.7402 20.3288 32.729 19.7018C32.7411 19.0689 32.6265 18.44 32.3923 17.8528C32.1581 17.2657 31.809 16.7324 31.3659 16.285ZM67.0533 22.9731L67.0484 16.4603L70.8448 16.4553C71.7178 16.4456 72.5592 16.7857 73.1848 17.4013C73.8246 18.0331 74.1453 18.8104 74.1404 19.7101C74.1453 20.5965 73.8213 21.3639 73.175 21.994C72.8728 22.3066 72.5112 22.5541 72.1118 22.7215C71.7124 22.8889 71.2837 22.9728 70.8513 22.9681L67.0533 22.9731ZM72.1211 24.3458C72.9295 24.1374 73.6593 23.7107 74.2893 23.0806C75.2401 22.1429 75.7179 21.0067 75.7113 19.7018C75.7215 19.0636 75.6002 18.4303 75.3551 17.842C75.11 17.2538 74.7465 16.7235 74.2877 16.285C73.8355 15.8341 73.2995 15.4782 72.7106 15.2377C72.1216 14.9973 71.4914 14.8771 70.8562 14.8841L66.2368 14.8941C65.7295 14.8974 65.453 15.1719 65.4562 15.6648L65.4726 30.6767C65.4726 31.0885 65.8081 31.4226 66.2188 31.4226H66.317C66.5132 31.423 66.7015 31.345 66.841 31.2056C66.9805 31.0662 67.0598 30.8766 67.0615 30.6784V24.5426L70.2246 24.5095L75.5133 31.1315C75.6382 31.2855 75.8178 31.3838 76.0136 31.4054C76.2094 31.4271 76.4058 31.3703 76.5606 31.2473L76.631 31.1911C76.7075 31.1308 76.7714 31.0556 76.8189 30.97C76.8664 30.8844 76.8965 30.7901 76.9075 30.6926C76.9184 30.5951 76.9101 30.4964 76.8828 30.4022C76.8556 30.3081 76.81 30.2203 76.7488 30.1442L72.1211 24.3475V24.3458ZM57.2401 30.4005C57.2327 30.3707 57.2234 30.3414 57.2122 30.3129L51.4997 15.3803C51.4228 15.1537 51.2248 14.8858 50.7224 14.8858H50.7126C50.5486 14.8794 50.3865 14.9234 50.2478 15.0119C50.109 15.1005 50.0001 15.2295 49.9353 15.382L44.2375 30.3261C44.2008 30.4251 44.1838 30.5305 44.1875 30.6362C44.1912 30.7418 44.2155 30.8457 44.2589 30.9419C44.3024 31.0381 44.3642 31.1246 44.4409 31.1966C44.5175 31.2686 44.6074 31.3246 44.7055 31.3614C44.9039 31.4346 45.1226 31.4272 45.3158 31.3409C45.5089 31.2545 45.6614 31.0959 45.7413 30.8983L50.7453 17.8396L55.7362 30.9132C55.7737 31.0107 55.8298 31.0998 55.9014 31.1753C55.973 31.2508 56.0587 31.3112 56.1535 31.3531C56.3462 31.4392 56.5644 31.4463 56.7622 31.373C56.9389 31.3065 57.086 31.1781 57.1767 31.0111C57.2675 30.8441 57.2957 30.6497 57.2564 30.4634L57.2401 30.4022V30.4005ZM159.6 28.8856C158.994 29.5174 158.246 29.8399 157.377 29.8448L153.687 29.8498V23.3585L157.364 23.3551H157.384C158.232 23.3551 158.971 23.6743 159.577 24.3045C160.195 24.9461 160.503 25.6937 160.518 26.5868C160.501 27.4964 160.192 28.2704 159.6 28.8856ZM153.687 16.4685L156.384 16.4536C157.101 16.4603 157.713 16.7265 158.207 17.2442C158.714 17.7651 158.961 18.3837 158.966 19.1296C158.958 19.8573 158.711 20.4626 158.21 20.9786C157.976 21.2261 157.694 21.4226 157.382 21.556C157.07 21.6894 156.734 21.7569 156.396 21.7542L153.681 21.7526L153.687 16.4685ZM159.166 22.1793C159.582 21.7918 159.912 21.3194 160.133 20.7933C160.355 20.2672 160.463 19.6995 160.45 19.1279C160.461 18.5722 160.361 18.02 160.157 17.5038C159.953 16.9877 159.649 16.5181 159.262 16.1229C158.892 15.7276 158.444 15.4137 157.948 15.2006C157.452 14.9875 156.918 14.8798 156.379 14.8841H152.922C152.688 14.8875 152.504 14.9536 152.378 15.0826C152.247 15.2149 152.182 15.4101 152.184 15.6565L152.188 30.642C152.19 30.857 152.262 31.0439 152.401 31.1944C152.463 31.2661 152.539 31.3236 152.625 31.363C152.71 31.4023 152.803 31.4227 152.897 31.4226H152.902L157.386 31.416C157.997 31.4203 158.602 31.2964 159.163 31.0522C159.725 30.8079 160.23 30.4486 160.647 29.997C161.087 29.5524 161.434 29.0225 161.667 28.439C161.9 27.8556 162.014 27.2306 162.002 26.6016C162.014 25.612 161.719 24.6432 161.159 23.8315C160.66 23.104 159.969 22.5318 159.166 22.1793ZM222.264 27.8916C221.004 29.1982 219.472 29.8647 217.674 29.873C215.864 29.8713 214.293 29.2081 213.007 27.9032C212.382 27.2857 211.888 26.546 211.554 25.7291C211.221 24.9121 211.056 24.0352 211.07 23.1517C211.07 21.2945 211.711 19.6952 212.973 18.4002C214.233 17.1168 215.804 16.4603 217.638 16.452V16.2816L217.674 16.452C219.446 16.4536 220.986 17.1168 222.249 18.4217C223.526 19.72 224.177 21.311 224.188 23.1534C224.194 24.0325 224.026 24.904 223.696 25.7174C223.366 26.5307 222.879 27.2697 222.264 27.8916ZM217.63 14.8841C215.355 14.8957 213.408 15.7078 211.837 17.2971C210.27 18.8848 209.468 20.8562 209.456 23.16C209.468 25.4373 210.271 27.4005 211.844 28.9964C213.431 30.6073 215.395 31.4226 217.681 31.4226H217.718C219.97 31.411 221.901 30.5874 223.457 28.9749C225.012 27.3872 225.807 25.4274 225.82 23.1468C225.807 20.8694 225.01 18.9063 223.449 17.312C221.876 15.7011 219.931 14.8841 217.63 14.8841Z" fill="white"/>
<mask id="mask0" mask-type="alpha" maskUnits="userSpaceOnUse" x="257" y="15" width="13" height="17">
<path d="M257.344 15.2588H269.888V31.2134H257.344V15.2588Z" fill="white"/>
</mask>
<g mask="url(#mask0)">
<path fill-rule="evenodd" clip-rule="evenodd" d="M266.237 27.7834C264.886 29.0419 263.228 29.6853 261.312 29.6969L258.965 29.6919V16.7721L261.278 16.7754C263.195 16.7886 264.858 17.4319 266.223 18.6889C267.581 19.9557 268.271 21.4938 268.268 23.2601C268.266 25.0148 267.584 26.5364 266.237 27.7834ZM267.363 17.6073C265.688 16.0493 263.639 15.2588 261.273 15.2588H258.141C257.887 15.2588 257.689 15.3249 257.553 15.4473C257.413 15.578 257.342 15.7616 257.344 16.003L257.349 30.4576C257.352 30.9042 257.614 31.1704 258.085 31.2118H261.32C263.675 31.2002 265.709 30.413 267.366 28.8733C269.039 27.3186 269.886 25.4283 269.888 23.2535C269.888 21.0572 269.037 19.1569 267.362 17.6073" fill="white"/>
</g>
<path fill-rule="evenodd" clip-rule="evenodd" d="M182.544 14.8941L174.224 14.8842C174.12 14.878 174.016 14.8931 173.918 14.9286C173.82 14.9641 173.73 15.0193 173.653 15.0909C173.584 15.1696 173.531 15.2615 173.497 15.3612C173.464 15.4609 173.45 15.5663 173.457 15.6714L173.463 30.642C173.465 31.1018 173.715 31.3796 174.183 31.4226L182.494 31.416C182.689 31.4147 182.876 31.3355 183.013 31.1957C183.15 31.0559 183.226 30.8669 183.226 30.6701V30.5907C183.226 30.1789 182.899 29.8465 182.47 29.8465L175.02 29.8482L175.023 23.9522L181.554 23.9539C181.748 23.953 181.935 23.8742 182.072 23.7347C182.21 23.5952 182.287 23.4064 182.287 23.2096V23.1286C182.287 22.9318 182.21 22.743 182.072 22.6035C181.935 22.464 181.748 22.3852 181.554 22.3844L175.016 22.3827L175.02 16.4685L182.544 16.4636C182.738 16.4623 182.924 16.3833 183.061 16.2439C183.198 16.1044 183.275 15.9159 183.275 15.7194V15.6383C183.275 15.4418 183.198 15.2532 183.061 15.1138C182.924 14.9744 182.738 14.8954 182.544 14.8941ZM247.942 14.9106H247.839C247.739 14.908 247.64 14.9253 247.546 14.9616C247.453 14.9979 247.367 15.0525 247.294 15.1222C247.222 15.192 247.163 15.2755 247.123 15.368C247.082 15.4605 247.06 15.5603 247.057 15.6615L247.051 28.2026L237.195 15.2447C237.054 15.0214 236.769 14.8842 236.45 14.8842H236.444C236.265 14.8874 236.091 14.9419 235.941 15.0413C235.635 15.2761 235.637 15.5407 235.639 15.845L235.644 30.6288H235.824L235.647 30.6734C235.647 31.0869 235.999 31.4226 236.429 31.4226H236.512C236.715 31.428 236.911 31.3521 237.058 31.2117C237.204 31.0713 237.29 30.8777 237.296 30.6734V29.7208C237.296 29.7043 237.293 29.6877 237.291 29.6778L237.278 18.048L247.119 31.0207C247.213 31.1382 247.471 31.4127 247.866 31.4127H247.871C248.41 31.4094 248.716 31.1365 248.73 30.637L248.723 15.6615C248.718 15.4573 248.633 15.2636 248.486 15.1228C248.34 14.9821 248.144 14.9057 247.942 14.9106ZM204.238 15.0992L204.157 15.0396C203.993 14.9209 203.79 14.8708 203.591 14.8998C203.391 14.9287 203.211 15.0346 203.086 15.1951L203.229 15.296L203.06 15.2298L198.007 21.9279L192.949 15.2381L192.908 15.1868C192.898 15.1719 192.887 15.1604 192.862 15.1339C192.733 14.9953 192.559 14.9085 192.371 14.8894C192.184 14.8703 191.996 14.9201 191.841 15.0297L191.766 15.0843C191.686 15.1409 191.618 15.2134 191.566 15.2972C191.515 15.3811 191.48 15.4747 191.465 15.5723C191.45 15.67 191.455 15.7697 191.479 15.8654C191.503 15.9612 191.546 16.051 191.606 16.1295L197.202 23.4858V30.6751C197.202 31.0885 197.546 31.4226 197.966 31.4226H198.048C198.246 31.4245 198.437 31.348 198.58 31.2095C198.722 31.071 198.806 30.8816 198.812 30.6817L198.814 30.6767V23.4858L204.397 16.1444C204.457 16.066 204.5 15.9762 204.524 15.8806C204.548 15.7849 204.553 15.6852 204.538 15.5876C204.524 15.4899 204.489 15.3963 204.438 15.3124C204.386 15.2285 204.318 15.1559 204.238 15.0992Z" fill="white"/>
<mask id="mask1" mask-type="alpha" maskUnits="userSpaceOnUse" x="119" y="0" width="16" height="43">
<path d="M119.457 0H134.184V43H119.457V0Z" fill="white"/>
</mask>
<g mask="url(#mask1)">
<path fill-rule="evenodd" clip-rule="evenodd" d="M130.916 21.1973C128.531 21.11 126.144 21.0571 123.757 21.0386C123.479 21.0398 123.209 20.9487 122.987 20.7793C122.765 20.6099 122.605 20.3715 122.53 20.1008L122.514 20.0347C122.462 19.829 122.464 19.6129 122.522 19.4086C122.579 19.2044 122.689 19.0192 122.841 18.872C124.535 17.2004 126.203 15.5028 127.845 13.7798C129.192 12.3559 129.956 11.4645 129.874 11.3851C129.792 11.3073 128.909 12.0202 127.493 13.282C126.318 14.3289 124.775 15.7512 123.018 17.415C122.883 17.5407 122.725 17.6367 122.551 17.6968C122.378 17.7569 122.195 17.7797 122.012 17.7638C121.83 17.7479 121.653 17.6937 121.492 17.6046C121.332 17.5154 121.191 17.3934 121.08 17.2463C121.032 17.1797 120.983 17.1136 120.933 17.0478C120.892 16.9916 120.778 15.7248 120.629 13.9055C120.383 7.71519 119.917 2.54196 119.68 1.978C119.575 0.770692 119.496 0 119.465 0C119.465 0 119.462 0 119.462 0.00330769L119.457 0.00661538V42.9934L119.462 42.9967L119.465 43C119.496 43 119.575 42.2293 119.678 41.022C119.917 40.4597 120.382 35.2418 120.627 29.0845C120.774 27.2686 120.889 26.0001 120.93 25.9472L121.093 25.7173C121.204 25.5692 121.344 25.4463 121.505 25.3564C121.666 25.2665 121.843 25.2117 122.026 25.1955C122.209 25.1792 122.393 25.202 122.567 25.2623C122.74 25.3225 122.9 25.419 123.034 25.5453C124.787 27.2025 126.323 28.6215 127.496 29.6634C128.91 30.9236 129.791 31.6348 129.871 31.557C129.953 31.476 129.192 30.5879 127.847 29.1656C126.206 27.4449 124.54 25.7495 122.849 24.08C122.698 23.9328 122.588 23.7476 122.53 23.5433C122.473 23.3391 122.47 23.1231 122.522 22.9173L122.527 22.8975C122.602 22.627 122.762 22.3888 122.984 22.2194C123.206 22.05 123.476 21.9588 123.754 21.9598C126.603 21.9317 129.089 21.8754 130.915 21.801C132.962 21.72 134.184 21.6158 134.184 21.5C134.184 21.3842 132.96 21.28 130.916 21.1973Z" fill="white"/>
</g>
</svg>
