<svg xmlns="http://www.w3.org/2000/svg" width="1319" height="535">
    <defs>
        <clipPath id="a">
            <path data-name="Rectangle 6244" transform="translate(61 1695.379)" style="fill:#011323" d="M0 0h1319v535H0z"/>
        </clipPath>
    </defs>
    <g data-name="Mask Group 106" transform="translate(-61 -1695.379)" style="clip-path:url(#a)">
        <path data-name="Path 27746" d="m1751.756 907.385-.1-.068-.081-.158-16.682-.508h-.96l-17.4-1.315-4.64-.331-9.284-.918-3.464-.587-15.531-1.443-1.853-.086-4.24-.612-.219-.063-.107.07-.676-.193-12.152-2.193-6.8-1.1-10.477-3.28-10.514-.239-6.95-3.085-6.634-1.982-10.656-6.081-17.451-11.507-15.833-7.5 1.191-.026-2.454-.6-.285-.158-6.535-1.612-10.95-6.1-8.26-2.489-9.072-6.1-17.438-8.83-6.911-2.776-10.377-8.482-.38-.188-.276-.225v.1l-16.832-7.587-8.921-4.424-8.428-7.97-.418-.274-.207-.2v.061l-16.66-10.9-.243-.154h-.123l-.375-.211v.206l-13.214-.136-3.609-2.172-.352-.1-.228-.137v.083L1421.509 789l-.67-.417-.471-.188-.075-.047v.017l-16.931-6.768-2.011-.422-15.383-7.1-17.313-7.459-11.661-5.8-5.62-4.9L1334 738.364l-17.391-20.91-16.239-20.964.1.052-1.289-1.589-17.4-19.524-1.475-1.575-15.9-21.06-.286-.225-.448-.592v.289l-16.761-11.379-.349-.118-.293-.2v.134l-16.958-3.758-17.1-2.645v-.144l-.242.1-.545-.174v.3l-6.213 2.7-10.4 3.59v-.414l-.472.577-.188.08-17.4 20.654-2.318 2.826-14.834 8.228-6.937-2.516-9.614-13.444-.461-.742-17.387-20.935v-.21l-.271.02-.472-.554v.644l-3.426 1-11.774-6.959-1.446-1.838-17.426-28.2-.731-1.452v.636l-16.507-18.359-.024-.42h-.345l-.4-.837-.021.519-1.179-1.31.67 1.392-.552-.193-15.652-23.993-.427-.5-.366-.561v.17l-16.755-17.9-.4-.3-.248-.266v.081l-9.779-7.312-6.885-8.091-17.359-23.862-.163-.318-.127.036-.492-.644v.265l-6.07-4.679-10.546-11.82v-.271l-.342.028-.441-.495v.528l-7.89.611-5.6-5.525L971 472.7l-1.442-1.607-.894-2.228v-4.407l-.009-.157-17.461-26.539-.261-.229-.5-.76v.419l-16.662-11.381v-.18l-.3.021-.056-.022-.058.017-.327-.224v.319l-11.779 3.449-4.838-.827-.043-.461-.393.377-.038-.009-.2.029-.023.049-.085-.014v.146l-16.661 15.971v-.615l-.557 1.148-.1-.011-2.891 5.989-13.859 17.239v-.462l-.536 1.128-.24.3-16.627 34.993v-1.321l-.623 2.625-.157.328-1.68 7.007-12.56 37.737-2.386 2.9v-.3l-.454.863-.275.335-14.676 27.492-1.994.372v-.521l-.482.611-.138.023-17.52 22.23-4.663 6.5-12.717 13.418-4.96 5.834-11.682 3.582-.044-.018-.461.029-12.8-4.766-4.23-4.832-.346-.267-.308-.353v.116l-12.729-9.809-4.675-5.276v.337l-16.789-6.9-.479-.1-.135-.055v.043l-2.4-.219-14.36-9.362-.364-.121-.275-.179v.118l-4.836-1.071-11.826-11.72v-.24l-.154.056h-.143l-.446-.416v.522l-16.658 6.074v-.682l-.537.878-.149.066-16.717 27.371v-.2l-.377.814-.4.664-1.97 4.263-15.415 25.828-.823 1.374-15.819 17.243v-.171l-.377.581-.372.4-2.413 3.74-11.829 12.919-3.111 1.628-2.672 4.7-12.454 13.278-2.129.715L567.664 716l-.17.167v1.5l-16.575 6.341v-.184l-.359.32-.21.081-16.833 14.98v-.387l-.495.829-.171.151-16.736 27.9v-.045l-.777 1.347-2.017 4.015-7.776 3.238-6.96-3.557-17.275-11.065v-.3l-.237.129-.1.019-.4-.2v.342l-4.55 2.447-12.109-.875v-.316l-.369.289h-.173l-.092.083-.108-.009v.093l-17.107 13.41-.024-.012-17.579 16.391-14.262 10.814-3 .718-17.257 4.969-17.054-6.8v-.023h-.052l-.228-.1-.267.008-.194-.077v.083l-17.1.517-17.421 2.847-15.775 10.421-1.171-.3v-.026l-.071.009-.288-.061-.257.023-.126-.033-16.656 2.078v-.465l-.454.515-.134.009-17.526 19.9-2.2 2.543-14.944 2.809-16.947 7.914v-.114l-.291.25-.272.127-.333.265-2.219 1.039 1.29-.24-10.876 9.34-4.052 2.455-1.111.284-.693.359-1.761.5-15.033 5.778-14.408 6.266-1.44.756-18.854 3.079-4.462 1.982-13.04 2.676-16.231 7.244-7.393 2.392-3.845.457-.517.1-6.707.4-11.651 1.538-5.8.308-9.466 2.434-11.419 1.9-13.847 1.638-17.4 1.437-15.121.712-6.694.109-1.383.115-4.955.013-1.272.028-.166.02-.085-.013-3.833.078-18.655.026-.458.053.044.88 35.211-.009h19.662l15.446-.009h16.085l2.286.014h.339l33.187-.063 51.936.047.008.016.545-.008v-.008l17.119.016 17.139-.028.014.028h191.395v.008l17.412-.013.007.013h296.11l.459-.051v-.144l16.945.195h34.806l17.4-.068 17.4.005 17.4.063h52.2l.376.3v-.3l.931.117-.145-.117h259.884l17.39-.281 17.406.281 69.325-.012.006.012.564-.006 1.16.01 67.891-.023.013.023h52.182l86.872-.059.006.059h35.222l16.979-.073.007.073h70.023l.457-.051v-.153l16.945.161 52.207.043.238.058.038-.084 104.14.026a.462.462 0 0 0 .457-.465zm-331.549-65.293v11.584l-12.327-6.77zm0-25.174v24.176l-13.389 5.229-3.1-1.7v-22.73zm0-18.129v17.156l-16.488 4.976v-19.448zm0-9.082v8.136l-16.488 2.685v-12.25zm-1.783-1.09-14.705-1.275v-4.609zm53.989 102.818v1.738l-3.844-.453zm0-2.406v1.424l-6.015 2.013-10.471-1.234v-2.288zm0-13v2.434l-1.548.378-14.939-6.434v-2.194zm-16.486 6.476v-9.085l13.442 5.79zm16.486-3.083v8.678l-16.486-.086v-4.546zm0-7.405v3.024l-16.486-5.816v-2.237zm0-2.713v1.739l-16.486-5.028V864.2zm0-6.968v5.994l-16.486-5.105v-3.868zm0-7.427v6.482l-14.844-2.685zm0-22.836v21.875l-16.486 4.218v-23.159zm0-20.742v19.795l-16.486 2.935v-24.808zm0-3.955v3.016l-16.486-2.078v-11.725zM1281.9 685.814v-8.857l14.9 16.713zm17.4 21.747v-10.942l16.488 21.286v2.859zm0 21.611v-20.424l16.488 13.2v27.163zm0 40.99V730.62l16.488 19.941v25.286zm17.4-48.593v-2.553l16.486 19.824v5.1zm0 28.562v-27.007l16.486 22.368v15zm16.486 11.46v26.528l-16.486-11.864v-25.028zm35.29 133.668 17.348-1.205 17.4 1.207 11.383.866-11.332-.242-17.451-.668-17.373 1.4-17.463-.059-17.375 2.656-17.342 1.287-5.938-1.123-11.464-1.347-16.97-.77v-2.109l16.89 2.221 17.455 2.155 17.481-2.282 16.262-2.791 1.05-.191zm16.917-3.415v1.309l-16.487 1.141V886.7zm0-3.307v2.331l-16.487-5.139v-6.743zm0-11.288v10.216l-16.487-9.552v-7.618zm0-7.425v6.415l-16.487-6.954v-12.574zm0-13.889v12.7l-16.487-13.111v-.33zm0-5.6V855l-16.487-.736v-8.739zm0-6.9v5.927l-16.487-4.811v-9.785zm0-4.627v3.575l-16.487-8.668V822.5zm-16.487-68.559v-2.521l12.075 5.221zm16.487 61.349v1.49l-.989-.93zm0-1.068-1.788 1.012-8.187-7.733-6.511-6.241v-3.1l16.487-6.4zm-2.263 2.222 2.264 1.923.265 3.1-16.744-16.575v-2.341l5.877 5.632 6.66 6.622zm-14.225-19.279v-17.221l16.487-6.405v17.233zm0-18.227v-14.168l16.487-2.229v10zm0-15.113v-8.929l16.495 3.696v3.011zm17.4 8.524v-9.773l16.486 3.535v4.914zm52.206 6.429v-.906l1.53.922zm34.8 15.535v-2.436l5.4 5.113zm16.488 20.1-16.488.316v-19.38l16.488 8.175zm-10.286 24.284-.087.033-6.115-1.124v-21.938l16.488-.315v20.609zm10.286 3.122v10.682l-16.488-7.177v-6.769l6.024 1.106 9.486 1.966zm0-4.9v3.5l-8.153-1.328zm-16.488 15.451v-6.033l16.488 7.178v8.229zm0 2.733v-1.666l16.488 9.373v1.524l-4.933-1.584zm0 3.937v-2.818l8.292 5.487zm16.488 10.376v5.764l-16.488-1.138v-1.407zm-16.488-7.2v-2.194l16.488 5.293v3.155l-1.82.355zm0 9.473v-8.455l13.09 5.9zm16.488 7.1v.777l-3.073-.482zm-6.782-.286-9.706-1.52v-2.001l16.488 1.139v1.738zm7.7-64.083v-10.465l16.486 7.432v3.557zm0 21.336v-20.4l16.486.517v16.809zm0 4.833v-3.885l16.486-3.079v10.566zm0 12.291V858.31l16.486 3.156v13.925zm11.608 14.988-11.608-3.253v-1.415l10.606 3.884 2.379 1.052zm-11.608.663V881.9l11.4 3.194 5.086.988v5.249zm0-6.322v-8.333l16.486 6.194v8.6l-5.544-2.449zm0 13.026v-5.7l16.486 6.479v.073zm0 2.6v-1.663l16.486.85v1.612zm0 1.883v-.948l16.486.8v2.945zm16.994 4.552h-.241l-16.752-2.224v-1.383l16.841 2.854 3.236.779zm-16.994-.49v-.788l9.361 1.244zm-.463 6.48-17.4.23-7.683.011 7.691-.23 17.408-.015 16.938-.2v.077l-3.58.124zm-69.617-.019 5.344.173-5.332-.054-15.719.051zm52.206-.9-17.39.519-17.386.02-17.42-.568-17.405.188-17.412.243-17.391.621-34.808.224-6.013.089 23.433-1.029 34.807-.711 17.39-.43 34.8.145 17.41.282 17.41.011 17.382-.31 16.957.477-16.944.214zM1281.9 903.7v-.576l10.913.446zm43.394-.176 8.344-.669 16.176.584-16.155.277zm8.363 1.125 17.412-.3 34.8-1.21 17.391-.189 17.413.16 17.383-.229 17.406.527 17.383.371 6.352.422-6.325.113-17.394-.011-17.406-.282-34.818-.143-17.4.429-34.814.711-17.406.737-17.383.84-17.4.04-16.951-.235v-1.759l34.338-.383zm121.823-2.172-17.42-.526-17.394.228-17.411-.16-17.413.188-16.783.6 16.807-1.275 17.405-.177 17.4-.431 17.381-.111 17.4.738 34.822 1.713 16.949.116v.131l-16.936.494-17.4-1.158zm.006-1.857-17.422-.738-17.411.109-17.4.432-17.428.176-17.39 1.318-17.369.635-17.45-.629-17.381 1.393-17.374-.431-16.963-.7v-.439l16.958.232 17.418-.556 17.372-.359 17.429.139 17.408-.939 17.373-1.193 17.4.12 17.413.062 17.355-.369 17.418 1.5 17.424.834a.455.455 0 0 0 .405-.249l2.781.426.206.027.31-.252.009-.071 13.687 1.1 16.949.079v.167l-16.924-.117zm-66.119-7.259-3.051-.211v-.977zm13.433-2.061v3l-10.313-.715-6.173-2.4v-2.371zm0-12.648v11.707l-16.486-2.491v-10.43zm0-9.3v8.37l-16.486-1.213v-6.461zm0-12.056v11.123l-16.486.7v-13.127zm-16.486-7.716v-5.6l11.868 7.079zm16.486 2.991v3.789l-16.486-1.3v-4.543zm0-8.456-12.375-6.98-4.111-3.2v-2.837l16.486-8.778zm0 2.945v.663l-3.866-3.266zm-14.92-10.071 1.092.581-.094.23 11.37 9.147-4.191-2.374-9.4-5.991-.249-2.772zm-1.566 2.477 9.278 5.912 7.208 4.081v2.172l-2.328-.291-14.158-8.445zm51.29 18.822v1.047l-6-1.521zm0 2.01v.437l-2.436-1.057zm0-2.993-15.6-2.743-.378-.1-.511-.272v-12.418l16.486-4.509zm-10.206.161 2.1.768 8.1 3.514v1.939l-16.486-6.269v-2.135l.8.337zm-6.281 13.6v-12.658l16.486 6.268v10.38zm0 13.275v-12.327l16.486 4v10.31zm68.695 14.877v.816l-6.953-.643-3.75-.779zm-86.1-42.793v-3.727l16.488 2.342v2.216zm0 12.041V857.35l16.488.83v12.707zm0 9.434v-8.5l16.488 2.429v12.251zm17.4 16.29v-8.911l16.486 2v3.879l-6.8 2.042zm16.486-2.063v.4l-3.106.53zm-17.376 5.641 6.854.438-6.422.136-17.4-.061-17.432-.122-17.4 1.194-17.375.939-17.391-.14 17.394-2.658 17.43.062 17.357-1.4 17.405.668 16.976.36a.53.53 0 0 0-.02.122zm25.817-.39 7.8.783-15.759-.187-14.048-.9 2.113-.076 11.906.384zm9.469.017L1451.7 897l3.729-.247 3.423.4 1.078.272 3.7.347 4.944.934 3.229.48.41.305-8.226-.94-4.217-.211zm-.012 2.076-4.822-.414 4.748.058 8.656.737.411.051zm14.147-2.259-3.355-.12-3.3-.383-4.737-.877.107-.013-2.819-.471-13.552-1.763 1.108-.121 12.271.181 12.4 2.939zm-18.444-1.346-13.127-.222-9.367-.72 9.3-.917 13.756 1.79zm-25.026.2-8.154-.6 2.606-.23 9.146.7zm-7.173-1.649-1.85.137-1 .147-12.429-4.143v-11.675l16.488 6.186v9.2zm-5.346.433-2.041.116-7.891-.6v-2.824zm-3.662-42.213-6.271-.89v-1.8l5.161 2.286zm4.544.655-4.768-1.724-6.046-3.143v-.9l13.675 6.168zM1312 900.636l-13.15.419-16.949-.231v-2.634l16.895.767 11.4 1.338zm177.815-2.361-16.862-.957-4.906-1.633-12.565-2.974-4.879-.075 4.82-.528 17.377 2.048 17.015 2.667zm-51.292-7.334v-3.713l16.487-3.553v4.408zm0-4.667v-10.23l16.487-2.776v9.453zm0-11.177v-10.121l16.487 4.932v2.414zm0-11.094v-1.955l16.487 4.669v2.219zm0-2.923v-.58l16.487 3.452v1.8zm0-1.533v-1.2l16.487.935V863zm0-2.139v-20.337l16.487-1.932v23.171zm0-21.275v-25.39l16.487-1.506V834.2zm16.487-27.832-16.487 1.506v-13.782l16.487.17zm0 80.726v2.2l-13.245 1.275-3.242-.05v-.563zm-33.889-48.221v-24.178l16.486-5.661V836.3zm0-25.162v-17l16.486-2.546v13.888zm16.486-20.49-16.486 2.544v-7.834l16.486 3.874zm-32.507 51.987-1.575-.721-2.817-2.044-3.239-2.213 5.576 3.148 9.12 5.008zm-18.782-17.1v-22.312l16.486-5.992v19.525zm0-23.3V789.6l16.486-1.322v12.471zM1281.9 888.422v-.449l2.011.889zm8.658-1.278 7.829 1.244v1.561l-.719.021-11.1-3.251zm7.829.3-7.709-1.224-8.779-.938v-5.1l16.487 6.475zm-5.735 2.666-2.434-.269-8.319-2.911v-.61l12.746 3.734zm-10.753.687v-1.421l4.186.915 1.32.151zm21.236-.073-3.832-.71v-1.526l16.488 1.167v2.309l-12.624-1.239zm-3.832-3.171v-.772l16.488-.7v2.641zm0-1.706v-8.224l16.488 3.259v4.262zm0-9.174v-6.151l16.488 3.817v5.6zm0-7.107v-7.489l16.488 9.848v1.456zm0-8.572v-1.28l16.488 7.221v3.907zm0-2.3v-2.353l16.488 2.478v7.1zm0-3.3v-7.068l16.488 1.741v7.8zm0-8.005v-14.103l16.488 2.923v12.93zm0-15.058v-15.407l16.488 5.415v12.925zm0-16.4v-11.867l16.488-.2v17.493zm0-12.814V793.7l16.488-2.008v11.244zm0-10.371v-3.21l16.488-1.728v2.929zm17.4-1.877v-3.037l16.486 2.56v9.416zm0 12.243V791.94l16.486 8.937v11.955zm0 18.554V804.2l16.486 9.705v14.225zm0 13.8v-12.8l16.486 6.454v11.9zm0 13.79v-12.794l16.486 5.555v10.5zm0 8.823v-7.874l16.486 3.241V864.2zm0 8.144v-7.152l16.486 6.121v4.04zm0 4.955v-4.009l16.486 3.012v1.1zm0 2.424v-1.492l16.486.1v6.358zm0 6.529v-5.556l16.486 4.964v5.328zm0 5.056v-4.088l16.486 4.736v2.461zm0 3.6v-2.637l16.486 3.11v1.355zm0 3.208v-2.269l16.486 1.814v.324zm22.542 1.32-5.142-1.352v-.23l5.586 1.591zm11.347-.023-.646-.127.066-.268-15.909-7.706v-5.339l16.489 5.881zm-6.021-1.43-10.468-3.344v-2.293l12.847 6.22zm-1.239 1.529-9.229-2.625v-1.272l10.225 3.266 2.869.7zm-27.546-.5v.233l-1.392-.282-1.321.119-2.641-.6zm2.925.279-.665.178-1.344-.008v-.411l16.486-.132v.274l-7.826-.011zm-5.711.73 2.2.255-.389.1 1.057-.02.13.015.235.187.155-.112.982-.021.892.1-.25-.118h.44l15.162-.28 1.844.177 9.514.177-11.379 1.953-17.348 2.269-17.337-2.144-17-2.235v-2.418l16.906 1.167 9.705.87zm21.105-15.029v-6.446l16.489 6.19v6.138zm0-7.439v-1.027l16.489 4.342v2.876zm0-1.99v-4.052l16.495 1.51v6.887zm0-4.991v-10.9l16.489.223v12.19zm0-11.837v-10.361l16.489 3.522v7.066zm0-11.317v-11.739l16.489 8.177v7.089zm0-12.78v-13.969l16.489 12.075V836.7zm0-15.121v-11.854l16.489 12.864v11.07zm0-13.032v-9.5l16.489 11v11.362zm0-10.616v-.326l16.489-2.259v13.586zm0-1.266v-26.468l16.495 6.586v17.627zm0-27.473v-14.751l16.489 12.357v8.985zm0-15.913v-5.313l16.489 16.655v1.014zm.953 148.088-.953-.064v-.187zm-1.867-103.727-16.874-2.618-.06-.008-16.956 1.778v-17.463l16.736 5.771 17.154 12.345zm-34.314 102.566-10.438-.719 4.179-.27 6.15-.177 4.147.768 5.583 1.26zm-.492-21.483v5.971l-14.039-2.155zm0-.965-16.308 4.433-.179-.028v-4.742l16.487-7.272zm-16.487 9.6v-4.25l16.487 2.531v8.195zm0-10.95v-5.174l16.487-3.477v1.379zm0-6.126v-6.575l16.487.726v2.374zm0-7.509v-5.845l16.487-.451v7.023zm0-6.778v-12.36l16.487-2.189v14.1zm0-13.3v-11.42l16.487-6.14v15.373zm0-12.414V810.9l16.487-6.612v11.669zm0-12.2v-12.436l16.487-3.6v9.424zm0-13.388v-7.592l16.487.661v3.332zm0-8.526v-11.377l16.487-5.47v17.507zm0-12.357v-41.373l16.487-4.311v40.214zm0-42.334v-28.072l16.487 2.956v20.8zm0-29.016v-17.412l16.487 8.694v11.672zm225.316 200.172v.041l-.691-.02zm.916-73.033v-3.052l7.33 5.994zm34.8 19.149V848.4l5.818 3.917zm127.886 51.591 10.112 1.567-6.763-.878zm-21.176-3.264-2.615-.475-1.424-.482zm-9.988-3.329-.427.11-.235-.019.041-.2-.266-.118 2.206.041zm7.34 1.75-2.85-.691-2.177-.44 4.872-.68 14.206 5.109zm-17.338-4.208-2.252-1.286 1.91.339 1.588.767 3.209 1.4zm1.761 1.512 3.066.774 3.618 1.108.438.03 8.262 2.788 17.429 3.176 29.558 3.768-12.077-.809-7.761-.291-8.469-1.314-.434-.072-3.473-.31-9.377-1.731-5.219-1.417-3.977-.781-13.3-4.345-17.36-9.738-17.2-12.192v-.274l16.717 11.029 17.406 9.932zm-74.394 8.536-14.091-1.094v-1.215l16.487 1.86v.6zm-14.091-3.247v-1.572l16.487 1.429v2zm0-5.525v-4.505l16.487 3.034v.921zm16.487.383v3.205l-5.017-.764-8.468-1.993zm-1.275 3.954-15.212-1.32v-1.947l9.382 2.252 1.925.42zm-15.212-9.789v-.869l16.487 1.713v2.19zm0-1.805v-3.742l16.487 4.842v.613zm0-4.713v-4.422l16.487 6.7v2.566zm52.207 17.427v-3.8l16.486 3.33v2.573zm0-8.754v-.519l7.026 3.006zm0-10.766v-1.737l13 9.278-11.137-6.3-1.132-.835zm9.637 6.7-9.637-3.808v-1.833l1.374.967zm3.777 8.727.054-.311.836.5zm66.311 10.608-10.115-.37v-1l6.559 1zm-11.031-1.457v.974l-8.723-1.68zm-34.442-1.8 7.955 1.785-7.817-.819-8.856-1.052zm-4.612-.97-12.239-.126v-2.45zm-11.249-3.32-.99-.209v-.2zm.632.134-.618-.471 7.79.992 2.024.367 6.046.552 9.161 1.758 3.693.678 9.8 1.984-8.377-1.156-14.105-1.464zm32.779 3.52-2.864-.356-4.142-.7-1.578-.295 8.463.721 5.178.808 1.427.263zm-17.335-3.025-17.32-5.052-3.379-1.769 3.079 1.267 10.876 2.218 6.521 1.621 1.932.452 12.549 2.474zm-17.683-7.288 1.749.663-1.443-.3-5.377-1.922-3.532-1.569-.236-.115zm-12.356-3.377 4.449 1.834 3.255 2.2 4.677 2.439 12.975 3.794-5.5-.946-7.169-1.555-13.52-8.12-.443-.316zm46.735 16.84-6.462-1.119-2.506-.563 6.246.649 13.8 1.892-10.358-.645zm-10.837-7.566-3.952-.779-5.689-1.373.02-.1-13.495-6.073-17.2-12.28V874.4l16.718 11.846 17.48 9.8zm-23.562-7.212 3.584 1.674-20.338-7.494v-.8zm-8.554 2.233-3.893-2.149-4.307-2.076v-1.833l3.1 2.2 9.67 5.81zm8.286 5.072v.279l-16.486-3.326v-3.021l12.539 4.441zm1.714 5.516 16.1 1.343 3.386.356-3.358-.221-5.783.3-2 .285-.008-.146-.084-.066-.067-.152-9.418-1.01-7.636-.415-9.335-2.01v-.9l4.337.612 12.473 1.294zm-21.8-20.1 2.685.388v.733l-1.882-.706zm2.012 5.46-15.814-5.11v-4.231zm-15.814-1.438 16.487 8.194v3.785l-16.487-7.086zm16.487 2.635v.659l-11.811-2.008-4.677-2.322v-1.657zm0 10.625v.921l-16.487-2.57v-3.4zm-16.487-6.025v-1.33l10.785 4.633zm16.487 7.891v.581l-11.351-2.352zm-17.4-.382-1.743-.308-7.731-1.835-5.932-1.039 15.407 1.533zm0 .947v.586l-4.149-.014-3.214-.212-9.123-1.719v-2.013l6.828 1.2 7.73 1.835zm-16.485-5.174v-3.179l15.51 4.724zm16.485-3.579-3.69-1.228-12.8-5.711v-2.459l16.485 7.958zm0 .982v3.467l-3.339-1.015-13.146-5.729V890zm-20.477-19.082h3.466l3.374.561 1.474.114 5.348 1.029 6.815 1.14v4.353l-16.745-5.3zm17.261 1.363.772.06 2.444-.186v.663zm-13.269 6.306v-1.421l4.554 1.47 11.932 3.061v4.846zm-3.688-8.591h-1.59l-1-.243L1551.6 874zm-4.325-.065 7.413 3.744 17.085 5.419v1.643l-11.681-3-4.8-1.551-.021-.254-8.279-6.085zm8.013 13.593v-.427l3.777 1.686zm0 4.922v-.71l5.4 2.354zm17.4 9.928v-.441l3.069.542zm0-25.881 3 1.9 5.666 2.911 7.826 3.618v1.912l-16.487-9.737zm0-1.19-.043-.563-.873.053v.346l-1.933-.574 1.115.709-1.458.1-10.283-.97-.055.01a.465.465 0 0 0-.225.1l-3.979-.507-7.459-2.183h1.423l5.964-2.9 17.2 4.377 11.784 4.346 5.313 1.789v2.063l-5.21-.75-9.572-4.944zm8.377-1.657-1.59-.982 3.849 1.528zm-21.631-4.518 9.768.479-2.825 1.29zm8.38 2.135 3.411-1.557.909.044 2.363.931 6.142 3.793 8.535 2.09v1.9l-5.014-1.688-11.815-4.355zm5.888-2.163.4-.028 15.077 3.318V877l-14.206-5.632zm-21.884.309-3.007 1.489-4.306-.015-.466-.181zm3.469 31.948 3.52.665-1.3-.025-2.222-.123zm0 1.532 1.411.025 2.514.188 4.808.154 3.277.363.83.076-12.838-.26zm17.4-1.9v-1.664l16.487 3.416v.317l-6.8-.357zm16.487-10.666v2.918l-8.92-4.435zm-46.508-19-1.35-.613 2.577 1.895.017.135 8.113 5.961-1.291-.6-12.85-7.037V869.8l1.513 1.109 2.66 1.5zm-4.783 4.173v-3.378l12.442 6.814 4.046 1.9v1.366zm52.207 26.42v-.536l3.351.72zm3.9 1.149-3.9-.117v-.1zm-4.813-31.63-15.011-3.3-6.931.443-10.814-.52.761-.377-1.93.321-.495-.024-.434.073-3.074-.15 1.572.4-10.08 1.676-.3.076-1.483-1.078 13.969-5.724 17.212-.383 17.041 8.071zm-34.348-9.119-14.789 6.023-2.154-1.216v-5.938l16.926-2.614 10.839 2.641.025-.1-.024.1 3.223.787zm.11-4.669-.095-.02-16.959 2.619v-10.2l16.732 5.032 7.924 4.424zm-51.858 43.312v-.166l16.917-.2 10.192.642-10.168-.5zm0 2.976 16.918-.463 4.261.268zm0-.937v-.04l.69.021zm0 1.93v-.061l4.781-.047zm34.329-.364 1.818.066-6.351-.03zm-.906-.991 1.847.048-.914.011zm-33.423-1.548v-.134l16.925-.226 17.411.865 16.956.341v.535l-16.943-.76-17.39-.11zm33.889-9.158-9.186-.764-7.3-.771V889.4l16.486.377zm-3.028.824 3.028.128v1.98l-16.486-2.374v-1.153zm3.028 3.077v1.448l-6.815-1.959zm0 3.732-8.086-.595-8.4-1.69v-3.769l16.486 4.738zm-16.486-13.526v-.869l16.486.4v.84zm0-1.8V880l16.486 3.147v3.919zm0-7.609v-8.218l16.486 6.782v4.576zm0-9.311v-5.127l16.486 4.629v3.042zm16.486 3.488v3.381l-13.156-5.412zm-16.486-9.583v-13.501l16.486 1.193v10.549l-13.416 2.614zm16.486-.8v5.433l-11.421-3.207zm-16.486-13.626v-9.758l16.486 8.352v2.59zm2.923 52.027-2.923-.077v-.51zm-13.467-.587-.862-.208-6-1.445v-2.97l16.487 4.412v.683zm-6.859-5.585v-1.649l16.487 2.3v3.756zm0-9.811v-8.638l16.487 3.2v6.787zm16.487 2.286v.828l-10.81-1.712zm0 1.789v3.415l-14.546-.6-1.941-.5v-4.937l.391.061 1.309.816zm-.506 4.32.506.029v1.1l-11.309-1.58zm.506-29.259v4.963l-13.011-7.186zm0-.947-15.667-2.677-.821-.1v-10.831l16.487.257zm-16.487 12.224v-13.833l15.433 8.274 1.054.353v8.4zm16.487-26.5-16.487-.256v-16.512l16.487 6.617zm-138.3-71.239v-2.693l10.86 5.022zM1368 886.378v7.922l-2.443-.14-14.044-9v-6.148zm-4.332 7.675-12.154-.7v-7.1zM1368 878.56v6.8l-16.486-7.371v-3.024zm0-8.572v7.617l-16.486-3.594v-6.983zm0-13.826v12.88l-16.486-2.961v-12.233zm0-1.17v.229l-16.486-2.314v-6.739zm0-9.774v8.721l-16.486-8.825v-6.969zm0-10.9v9.893l-16.486-7.074v-10.046zm0-12.605V833.3l-16.486-7.222v-11.21zm-16.486-20.3v-14.445l16.486-5.647v14.4l-11.287 10.515zm16.486-4.425v16.917l-1.764 1.177-8.844-8.213zm0 20.995v2.717l-16.486-6.841v-11.187zm0-2.963v1.7l-1.065-.989zm0-43.979v9.3l-16.486 5.647v-17.173zm-16.486-3.166v-8.751l16.486 8.2v2.776zm0-9.788v-.826l2.206 1.923zm-70.526 146.562v1.741l-16.486.029v-1.593zm0-1.588v.654l-16.486.178v-2.7zm0-1.364v.425l-16.486-1.866v-.634zm0-3.6v2.658l-16.486-2.074v-3.329zm0-3.021v2.076l-13.633-2.269zm0-9.006v.54l-4.888-1.679zm0 1.544v.513l-5.372-2.016zm-12.163-2.655-4.323-1.315v-.836l1.8.989 4.195 1.385 2.017.758zm1.932-2.468 1.9.656-2.7-.653-.163-.14 1.15.23zm-6.1-.866-.151-.091v-.131l2.194.437zm.873-1.831 15.462.163v5.089l-10.743-3.715-1.823-.1zm-1.024-.944v-1.092l8.048-1.246-7.72 2.341zm16.48-3.85v4.032l-13.062-.138 10.356-3.141zm-1.918-.433-14.568 2.253v-2.639l16.486-4.629v4.478zm-14.568 5.894v-.129l.439.218zm16.486 8.7v1.54l-14.026-3.544-2.46-.551v-1.979l4.076 1.236zm-6.566 1.447-9.921-.9v-2.15l2.251.5 10.408 2.629zm6.566 1.14v2.4l-16.486-.235v-3.269l9.865.893zm0-28.479v5.318l-16.486 4.629v-5.941zm0-7.7v6.742l-16.486 4.007v-8.8zm0-6.853v5.915l-16.486 1.945v-9.738zm0-13.053v12.115L1264.5 845.9v-5.519zm0-12.189v11.22l-16.486 4.718v-8.793zm0-12.317v11.3L1264.5 829.6v-15.04zm0-13.618V810.2l-16.486 3.408v-16.741zm0-62.9v41.4l-7.683 5.911-8.8-8.661v-30.6zm0 42.57v10.5l-3.5-1.641-3.517-3.461zm-16.486 2.771v-5.392l10.471 10.3zm16.486 8.755v7.865l-16.486-.669V781zm0-83.751V733.6l-16.486 8.048v-43.533zm0-18.615v17.609l-16.486-6.866v-20.693zm-16.486-29.411v-2.509l9.806 12.991zm16.486 18.979v9.344l-16.486-9.945V658.31zm-33.89-26.824v-6.978l16.488 11.192v3.105zm0 16.02v-15l16.488 7.319v17.345zm0 37.3v-36.225l16.488 9.662v21.209zm0 47.146v-46.168l16.488-5.353v44.029zm0 19.121v-18.1l16.488-7.491v29.78zm0 7.235v-6.273l16.488 4.187v5.846zm0 13.921v-12.97l16.488 3.762v15.077zm0 18.585v-17.6l16.488 5.871v16.84zm0 19.311v-18.336l16.488 5.11v15.255zm0 7.687v-6.749l16.488 2.032v8.713zm0 18.1V836.4l16.488 4v5.619zm0 22.734v-8.4l16.488-.487v6.047zm16.488-18.315v8.492l-13.265.392zm-16.488 8.98v-12.375l16.488-7.529v9.809l-15.01 10.052zm16.488 13.121v.295l-3.157-.137.354-.089zm-1.34-1.2-5.64.063 6.98-1.02v.955l-1.151.012zm-9.829-.266-.19.049-3.61-.655-.433-.014-1.086-.209v-.539l16.488-2.842v2.58zm-.667 1.268h.043l-.006.293 5.925.882 1.668.073 2.917.884-1.855.464-13.344 1.311v-4.9l.951.029zm11.836 2.769v1.01l-16.488 4.345V884.7l13.5-1.33zm0-1.338v.12l-.467-.141zm-16.484 11.955 16.488-2.57v3.24l-16.488.408zm16.488-5.622v2.11l-11.548 1.8zm-16.488 4.607v-3.286l16.488-4.345v2.043zm0 5.169v-1.57l7.944 1.966 8.544 1.684v.645zm16.488-2.121v3.252l-8.349-1.644-5.541-1.373 1.9-.118zm-16.488 7.494v-4.428l16.488 2.727v2.8zm0 3.285v-2.353l16.488 1.1v1.609zm6.792 1.078-6.792-.01v-.135zm-112.12-1.477v.6l-6.576.342zm-17.4.084v1.4l-10.153.006zm-17.4.327v1.081h-9.082zm0-5.742v4.8l-16.486 1.962v-1.738zm0-5.962v4.99l-16.486 5.028v-5.815zm0-11.322v10.36l-16.486 4.2v-10zm0-7.029v6.063l-16.486 4.56v-9.2zm0-6.254v5.318l-16.486 1.419v-1.122zm0-3.943v2.959l-16.486 5.613v-2.2zm0-8.955v7.957l-16.486 6.372v-8.6zm0-11.572v10.588l-16.486 5.732v-11.137zm0-11.154v10.179l-16.486 5.181v-10.715zm0-7.916v6.948l-16.486 4.644v-10.059zm0-5.213v4.276l-16.486 1.533v-4.24zm0-5.083v4.147l-16.486 1.569v-9.136zm0-5.673v4.722l-16.486-3.421V802.8zm0-1.963v.942l-16.486-7.453v-4.654zm0-17.3v16.18l-16.486-11.165v-13.026zm-12.512-22.282.417-.029 12.095-30.614v26.477l-10.76 4.4-5.726.022V751.7l16.486-28.022v11.889l-12.843 32.508-.11.419zm12.512 1.129v20.12l-16.486-8.012V769.9zm0-4.29v3.358l-8.281.03zm0-63.049v19.363l-16.486 28.025v-9.916zm0-24.316v22.034l-16.486 37.472v-14.6zm0-17.7v15.034l-16.486 44.9v-24.199zm0-15.311V658.3l-16.486 35.73v-38.523zm-9.058-29.451-4.675-10.482 10.847 17.559zm-6.487 13.877-.941-.741v-10.85l6.7 13.591zm14.055 5.865-15 2.824v-8.029zm1.49.667v7.948l-16.486 10.332V639.24zm.41-1.051-.324-.242v.187l-8.636-3-7.937-16.1v-14.598l6.632 14.868 9.938 11.42 6.992 12.33-5.608-4.189.254-.049-.594-.206-.38-.284-.011-.061-.043.007-.13-.152zm17.912 18.785.049-3.634 7.168 9.577zm16.482 16.834v8.584l-16.486-.028V665.24zm0 9.518v14.513l-16.486-.719v-13.817zm0 15.447v24.51l-16.486-3.247v-21.976zm0 25.459v20.129l-16.486 7.092v-30.463zm-17.4 49.661v3.163l-16.488-4.929v-3.527zm-16.488-6.272v-28.664l16.488-17.377V748.7L1110 765.2zm16.488-68.468v21.08l-16.497 17.378v-12.372zm0-15.067v13.344l-16.488 26.081v-19.909zm0-15.545v14.115l-16.488 19.51v-23.2zm-16.488-21.456v-7.485l15.212 11.367zm16.555 5.185-.066 4.925v10.25l-16.488 10.428v-29.823zm-4.689-4.958-4.651-4.272-4.244-7.484 9.71 12.363zm4.622 130.716v9.667l-16.488 5.465v-20.057zm-16.497 34.283v-.835l7.143-2.778zm0 1.042 16.488-8.34v1.857l-16.488 10.929zm15.7-8.979-15.7 6.1v-16.328l16.488-5.466v15.29zm.792 3.609v9.443l-16.488 5.54V815.8zm0 10.424v6.343l-16.488 3.5v-4.3zm0 7.3v8.978l-16.488 1.448v-6.926zm0 9.914v10.989l-16.488.682v-10.227zm0 11.921v8.281l-16.488 2.95v-10.553zm0 9.228v5.6l-16.488 5.252V856.6zm0 6.581v.245l-16.488 7.9v-2.892zm0 1.277v8.441l-16.488 4.933v-5.474zm0 9.411v7.846l-16.488 3.107v-6.019zm0 8.794v11.688l-16.488 1.84v-10.427zm0 12.629v6.069l-16.488.8v-5.025zm0 7v1.4l-16.488 4.2v-4.8zm0 2.36v3.089l-16.488 2.282v-1.173zm-13.407-136.2 13.477-15.477v17.544l-.07.083v2.154zm14.322 5.725 16.486 9.115V792.4l-16.486-18.012zm0-1.062v-1.6l.071-.008v-.585l16.415-14.439v8.192l-15.6 8.927zm16.486 23.6v2.069l-16.486-11.162v-8.919zm0 3.189v6.166l-16.486-2.382V785.8zm-16.486 6.578v-1.781l5.893 1.665zm9.1-.172-2.645-.747 4.881.7zm-9.1 1.1 16.486-.311v4.385l-16.486 5.466zm16.486 5.054v9.869l-16.486 2.1v-6.5zm0 10.808v10.112l-16.486 1.059v-9.073zm0 11.048v11.328l-16.486.748v-11.02zm0 12.259v10.615l-16.486-1.578v-8.287zm0 11.55v5.582l-16.486-1.592v-5.568zm0 6.519v2.479l-16.486-3.781v-.289zm0 3.435v4.7l-16.486-.007v-8.475zm0 5.634v1.855l-16.486 5.871v-7.735zm0 2.841v7.908l-16.486 9.5v-11.536zm0 8.979v7.1l-16.486 8.409V892.1zm0 8.142v4.976l-16.486 4.78v-1.346zm0 5.945v3.574l-16.486 4.352v-3.145zm0 4.537v3.5l-16.486 2.366v-1.516zm0-138.419v16.484l-14.652-8.1zm0-20.534v10.039l-16.415 14.441v-17.419zm-16.486-78.008v-9.193l16.486 13.577v1.08zm-.077-15.978-1.815-1.354-12.554-15.99 9.91 5.857.19.093 3.432-1.005v10.228l.013.2 17.447 18.622 2.258 6.363-1.4-1.152v-1.722l-.019-.239-7.131-5.858-10.185-13.607zm24.5 21.633 2.954 5.084 2.722 5.584-10.717-8.815.467-.284-2.491-7.009-17.354-18.553v-9.386l16.553 19.925.141.237v.007zm26.872-5.568v8.914l-12.591-.443zm-15.253 8.378 6.489-3.6-5.406 3.638zm32.657 176.661v6.583l-7.708-5.061-8.78-5.335v-4.226zm0 7.691v2.186l-5.723-3.148-8.978-8.372 6.509 3.955zm-15.691-5.422 15.691 8.668v1.964l-16.489-4.248v-6.688l1.386 1.094zm-1.712-.857v7.042l-16.486-3.172V846.6zm-4.582-4.833-11.912-16.064v-1.233l14.353 19.227zm-11.914-9.4v-5.12l9.147 12.337zm0 9.073v-7.895l14.771 11.656zm16.486 13.15v7.77l-16.486-3.407v-7.535zm0 8.722v4.322l-16.486.16V864.1zm0 5.255v6.8l-16.486-.437v-6.2zm-7.729 15.24-8.757 2.211v-4.522zm1.865-.473-7.921-2.089-2.7-.832v-.389l13.591 2.562zm-10.622 3.644 16.486-4.163V890l-16.486 5.376zm0-7.9v-3.221l16.486.439v5.562l-.743.187zm16.486 7.7v5.008l-16.486 4.563v-4.2zm0 5.975v4.825l-16.486 3.363v-3.626zm0 8.129v1.527l-12.853.2-.685-.014zm-17.067 1.644-16.192.387 15.858-.908.02.274zm-1.644-224.1-.78-.642-1.472-3.021zm1.473-1.613 17.238 14.772v3.1l-16.526-14.453-3.422-5.57zm-16.651-1.543v-8.129l16.487 13.561v3.215zm0 15.384v-14.332l16.487 8.647v9.795zm0 25.151v-24.189l16.487 4.108v12.159zm.12 21.611 16.367-13.018v6.973l-16.487 15.866v-9.6l.162-.094zm-.12-1.088v-19.488l16.487-7.925v14.3zm0 21v-8.809l16.487-15.867v24.411zm0 18.1v-17.161l16.487-.267v18.442zm0 13.772v-12.833l16.487 1.008v29.9zm0 26.131v-9.5l8.438 8.921 8.049 8.246v2.042zm0-16.037V798.3l13.154 20.965-9.987-11.765zm8.222 12.45 8.265 8.339v1.6l-7.394-7.576-9.093-9.614V805l2.445 3.077 5.348 7.3zm-8.222-19.374v-1.8l16.487 18.068v9.589l-.957-1.094zm0 33.972v-9.929l16.487 9.712v5.824zm0 12.209v-11.22l16.487 5.6v8.326zm0 11.551V843.7l16.487 2.7v8.182zm0 6.568v-5.636l16.487.277V863zm0 3.589v-2.649l16.487 2.131v7.81zm0 5.565v-4.548l16.487 7.292v6.036zm0 2.67v-1.617l16.487 8.782v2.976zm0 8.71v-7.619l16.487 10.139v.475zm0 7.964v-7.017l15.164 2.756zm0 6.071v-5.1l16.487-4.633v4.759zm0 4.575v-3.6l16.487-4.977v4.212zm0 4.526v-3.563l16.487-4.366v4.17zm0 1.669v-.706l16.487-3.76v3.53zm33.889-3.484v1.412l-16.239 2.055-.157-.123zm-16.486-214.1V685.7l12.739 11.139zm0 1.1 12.838 8.278 3.65 2.259v5.195l-16.486-6.226zm16.486 16.723v8.155l-16.486-2.629v-11.747zm0 9.1v7.338l-16.486 4.157v-14.12zm0 8.3v20.214l-16.486-8.574v-7.48zm0 21.261v29.4l-16.486-13.018v-24.955zm0 30.584v9.7l-16.486-4.619v-18.1zm0 10.671v38.758l-16.486-12.7v-30.676zm0 54.451v3.272l-10.2-12.737zm-8.8-5.347-7.689-8.636v-1l7.536 9.422zm6.11 6.858-.916-1.264 1.246 1.558zm2.687-16.035v13.226l-16.486-15.629v-10.291zm0-131.723-16.662-14.278-4.691-3.714-1.666-2.711-3.995-6.5 4.971 6.954.194.24 4.892-.964 16.956.6zm-3.421 148.317 3.565 4.938 5.314 4.843-4.781-2.64-.094-.039-11.985-16.053zm20.825 20.366v5.352l-16.489-1.887V859zm0 6.287v3.373l-16.489-1.054v-4.204zm0 4.307v9.8l-16.489-3.973v-6.88zm0 10.757v1.02l-16.489.322v-5.315zm-2.443 2-14.046 3.155v-2.88zm2.443.407v7.6l-16.489 1.23v-5.126zm0 8.536v3.812l-16.489 2.269v-4.853zm0 4.754v3.573l-16.489.208v-1.512zm0 4.506v1.58l-11.595.634-1.438.02-3.456-.39v-1.636zm0-65.725v9.273l-16.489-8.037v-13.344zm0-25.5v24.353l-16.489-12.11v-38.232zm0-24.463v22.746l-16.489-25.992V776.4zm0-21.378v20.207l-16.489-12.715v-28.911zm0-23.942v22.432l-16.419-21.334a.466.466 0 0 0-.07-.273V724.5zm0-19.086v17.666l-16.489-19.3v-7.157zm0-7.043v5.991l-16.489-8.791v-7.893zm0-4.567v3.461l-16.489-10.693v-4.956l1.344 1.084zm-16.489-13.34v-3.907l16.489-8.672v24.77l-14.588-10.7-1.01-.838zm16.489-32.023v18.394l-16.489 8.671v-20.734zm0-15.716v14.719l-16.489 6.33v-9.346zm0-9.267v8.131l-16.489 11.7v-.467l10.164-11.5 5.862-7.487zM1157.889 673l-2.783.542-1.5-2.095zm71.807-30.188v-4.823l16.486 3.654v7.119zm0 19.067V643.8l16.486 5.949v15.1zm0 31.758v-30.815l16.486 2.972V702.3zm16.486 56.887V767.5l-16.416-12.891V737.2zm-16.486 5.214 15.51 12.18-6.019-2.688-9.491-8.537zm0-19.966v-41.089l16.486 8.67v45.975l-16.443-13.344zm0 25.22v-3.055l6.743 6.067zm0 5.92v-4.9l16.486 7.361v6.177zm0 16.1v-15.054l16.486 8.634V789.5zm0 18.2v-17.2l16.486 6.494v17.587zm0 16.17v-15.164l16.486 6.881v18.245zm0 18.509v-17.425l16.486 9.965v6.924zm0 25.792v-24.859l16.486-.536v17.674zm0 11.8v-10.776l16.486-7.718V867.1l-12.81 5.247zm16.486-5.372v8.3l-4.58.495-9.64-1.48-2.292-.437-.011-.111zm-16.486 7.829 2.12.4 12.1 1.858-14.218 1.473zm16.486 2.963v5.041l-16.486 5.569v-8.9zm0 16.823v1.631l-16.486.885v-1.773zm-16.486-.192v-1.68l12.248 1.023.474.085zm16.486-2.258v1.407l-4.091-.727-12.4-1.963v-.156zM1229.7 890.9v-.409l16.486-5.569v3.294l-12.216 3.056zm16.486 7.388v4.441l-16.486-.448v-3.107zm0 5.373v2.363l-16.486-.824v-1.991zm0 3.3v.158l-16.486-.293v-.687zm0-17.782v3.161l-9.369-.816zm0-11.833v.26l-.993-.152zm-34.8 29.183v.448l-8.5-.064zm0-2.658v1.725l-16.486.743v-1.565zm0-4.207v3.271l-16.486.9v-3.624zm0-4.6v3.666l-16.486.552v-3.788zm0-4.661v3.73l-16.486.429v-7.229zm17.4 1.291v.072l-1.315-.393zm-16.486-3.945 10.131 3.087 6.355 1.9v.044l-16.486-3.156zm-.033-1.032-.011-.12h-.414l-.32.041-.051-.008-11.084-.667-5.49-2.059v-9.765l16.714 8.073.2.113 16.973-1.633v9.01l-3.683.126-12.542-3.07zm-15.159-.948-2.209-.134v-.735l2.335.877zm14.277 1.813v1.873l-14.661-2.73.335-.024 13.518.867zm16.578-12.126.824.262v4.043l-16.861 1.575-17.027-8.228v-3.48l16.831 1.561zm-13.233-4.418-2.839-.764-16.992-1.583v-5.168l16.783 5.485 9.937 3.829zm14.057 22.693v1.782l-16.486-1.358v-3.581zm0 2.718v1.826l-16.486.426v-3.61zm0 2.76v3.075l-16.486.609v-3.257zm0 4.008v1.974l-16.486.37v-1.736zm0 2.906v.7l-16.486.154v-.477zm0-15.485v.1l-.35-.085zm.3-15.8-.814-.256-3.04-1.347-12.937-4.985v-1.815l16.573 8.009v.157l.131-.04.2.256zm-16.791-144.9v-36.927l16.486 1.337v41.111zm16.557 6.521v16.951l-10.2-13.4-5.662-8.856zm-.071 18.375v.735l-16.486-20.933v-1.459zm-16.486-62.762v-30.946l16.486 1.566v30.721zm0-31.888v-16.439l16.486-.137v18.148zm0-17.378v-7.556l16.486 2.55v4.87zm0 99.249v-5.928l16.486 20.932v3.042zm0 13.437v-12.061l16.486 18.046v4.862zm0 25.42v-24.31l16.486 10.84v15.364zm0 22.87v-21.924l16.486 1.892v17.376zm0 16.018v-15.066l16.486-2.664v15.176zm0 14.041v-13.1l16.486-2.561v17.66zm0 10.463v-9.524l16.486 2v24.489zm0 21.094v-19.762l16.484 16.964v10.771zm-.916-229.985v7.56l-16.486 7.432V642.1l10.625-4.136zm-16.488 30.987v-14.97l16.486-7.43v16.291zm0 19.686v-18.697l16.486-6.108v30.575zm16.486 44.334v.223l-1.252-1.364zm-16.486-13.2v-3.173L1211.378 732v1.69zm0-4.551v-25.6l16.486 5.771v36.26zm0 11.571v-5.72l16.486 16.48v6.114zm0 19.14v-17.82l16.486 16.878v12.431zm0 23.972V744.5l16.486 11.5v24.386zm0 21.323v-20.147l16.486 13.037v21.745zm0 24.451v-23.217l16.486 14.639v15.119zm0 25.117v-24.118l16.486 6.542V833.9zm0 10.251V839.2l16.486-4.34v9.28zm0 8.045v-7.082l16.486-4.348v19.841zm0 3.234v-2.19l16.486 8.411v1.947l-4.019-1.306zm0 2.779v-1.719l7.69 4.231zm-126.362 44.48-12.857.12v-2.972zm3.629-6.981v6.831l-16.486-3.65v-3.99zm0-11.835v10.9l-16.486-.811v-5.175zm0-2.74v1.77l-16.486 4.915v-6.539zm0-3.543v2.609l-16.486.148v-3.533zm0-3.477v2.543l-16.486-.776v-1.762zm0-8.349v7.416l-16.486.006v-5.732zm0-12.82v11.883l-16.486 1.69v-7.16zm0-11.483v10.485l-16.486 6.412V851.72zm0-12.368v11.378l-16.486 5.92v-11.757zm0-18.566v17.584l-16.486 5.544v-20.966zm0-15.5v14.554l-16.486 2.166v-19.641zm0-8.229v7.283l-16.486-2.923V783.7zm0-5.3v4.281l-16.486-7.445v-3.038zm0-12.295v11.3l-16.486-6.2v-11.268zm0-83.856v35.985l-16.486 37.175v-28.911zm0 72v10.861l-16.486-6.17v-1.219zm0-33.752v32.8l-16.044 3.378zm0-75.735v34.857l-16.486 44.247v-50.172zm0-18.182v16.324l-16.486 28.93V644zm0-11.836v10.755l-16.486 9.978v-20.4zm-1.6-2.63-7.177-2.211-7.712-17.16V574.4l16.54 5.765zm-14.89-4.585v-12.542l6.545 14.559zm16.486 6.052v.231l-16.486.331v-5.64zm2.617-37.776-.351-.731 3.429 3.814zm-1.7 39.163 16.212 6.873-16.212 3.351zm-1.609-2.576 1.594-38.032 16.5 34.348v12.242l-13.853-5.874-2.82-2.216-.323-.128-.32-.253v.154zm18.1 10.344v8.423l-16.487 11.011v-16.024zm0 9.537v15.411l-16.487 30.219v-34.618zm0 17.331v38.938l-16.487 28.1v-36.816zm-12.44 105.712 12.44-36.957v13.98l-9.532 24.367zm3.739 1.786 8.7-22.244v9.2l-4.974 14.827zm8.7 5.187v11.75l-16.487-8.544v-11.081zm-16.487-8.906V725.9l16.487-28.1v25.123l-13.275 39.435zm16.487 21.7v12.9l-16.487-10.176v-11.265zm0 13.993v4.718l-16.487-10.655v-4.239zm0 5.823v8.675l-16.487-12.274v-7.057zm0 9.831v9.267l-16.487-7.407V799.9zm0 10.287v4.525l-16.487 5.171v-17.103zm0 5.5v10.145l-16.487 6.358v-11.33zm0 11.143v10.7l-16.487 6.134v-10.471zm0 11.695v11.154l-16.487 6.939v-11.955zm0 12.163v8.575l-16.487 5.793V869.9zm0 9.563v2.19l-16.487 6.1v-2.5zm0 3.183v1l-16.487 7.573v-2.47zm0 2.022v9.065l-16.487.319V885.3zm0 10v10.051l-16.487 1.32v-11.053zm0 10.986v5.894l-16.487 2.313v-6.886zm0 6.835v1.6l-10.692-.1zm0-151.166V768.7l-4.139-1.977zm-13.575-168.612 13.575 13.6v14.66zm-20.314-12.351v-16.83l14.195 21.777zm-17.4-21.124V537.6l16.488 17.628v17.232zm0 27.525v-26.069l16.488 20.171v25.124zm0 30.65v-1.97l1.054 2.319zm2.575 1.034-.3-.222-2.275-5.006v-11.528l6.708 17.716zm-.977.745.392-.023.155.112 14.343 3.354v6.034l-16.488 5.4V611.46l.815.283.667.445zm-1.6-20.092v-10.919l16.488 19.226v14.271l-8.7-2.021zm0 63.339V628.1l16.488-5.4v20.8zm0 69.932v-68.786l16.488-12v36.283zm16.488 39.824v.831l-6.137-1.873 6.117.972-.036.082zm0 1.8v11.122l-16.488-9.347v-6.838l6.19 1.541.391.5zm-16.488-6.023V728.07l16.488-44.5v50.2l-10.328 28.794zm16.488-24.544v27.755l-9.418-1.5zm-16.488 45.25V769.9l16.488 9.348v3.249zm0 21.76v-20.824l16.488.756V795.6zm0 23.2v-22.17l16.488-7.9v19.733zm0 17.369v-16.27l16.488-10.338v20.849zm0 15.894v-14.903l16.488-5.762v11.816zm0 10.56v-9.506l16.488-8.852v10.908zm0 5.9v-4.883l16.488-7.45v6.941zm0 3.706V877.4l16.488-5.393v5.58zm16.488 1.137v3.426l-13.27.147zm-16.488 3.474v-3.669l16.488-2.541v1.775zm0 7.425v-6.358l16.488-.184v6.683zm0 12.268V893.1l16.488.141v5.177zm16.488-.25v2.965H1041.9zm-16.488 2.848v-1.607l16.488-6.018v3.82zm-35.72-.339v.456H997zm0-1.271v.336l-4.694.385zm0-16.2v15.257l-16.486 2.533v-8.368zm0-11.053v9.984l-16.486 9.424v-12.6zm0-9.274v8.268l-16.486 6.807v-15.436zm0-9.472v8.541l-16.486-.372v-16.415zm0-9.971v8.933l-16.486-8.256v-9.967zm0-15.764v14.7l-16.488-9.282v-12.818zm0-26.938v25.921l-16.486-7.411v-19.973zm0-33.549v32.613l-16.486-1.471v-32.061zm0-22.223v21.289l-16.486-.927v-19.707zm-16.047-.294-.44-.076v-44.339l16.486-43.947v85l-2.5 2.828zm16.047-1.973v1.335l-1.222.047zm0-114.958V659.7l-16.486 43.947v-59.809zm0-6.815v5.727l-16.486 10.083v-3.321zm0-26.081v24.918l-16.486 12.488V603.2zm0-22.708v21.767l-16.486 2.342v-42.484l12.017 13.185 3.015 3.882zM986.063 558.4v-8.263l16.486 21.7v5.076l-.79-.71-2.984-3.851zm16.486-23.364v35.275l-16.486-21.7V527.1zm0-25.006V534l-16.486-7.929v-28.4zm-16.486-27.158V480.6l6.507 7.294zm16.486 13.893v12.106l-16.486-12.351v-12.483zm18.3 26.4-17.384-13.6v-11.623l16.6 22.824 6.982 8.187 10.31 7.722v15.043l-16.486-8.117v-20.2zm16.505 29.594v26.356l-16.486-11.451v-23.025zm0 27.485v11.3l-16.486-7.047V568.79zm0 26.305v2.981l-16.486-20.041v-3.376zm0 4.722v16.11l-16.486 3.259v-19.679zm-16.486-1.238v-19.095l15.947 19.386zm16.486 18.3v27.628l-16.486.658v-25.034zm0 28.561v70.924l-16.486 19.469v-89.742zm0 72.352v31.588l-16.486-3.377v-8.742zm0 32.54v6.632l-16.486-6.8V758.4zm0 7.638v12.016l-16.486-8.122v-10.7zm0 13.057v21.459l-16.486 7.76v-37.34zm0 22.486v22.3l-16.486 9.774v-24.32zm0 23.383v16.089l-16.486 8.421v-14.741zm0 17.133v14.9l-16.486 4.58V853.9zm0 15.868v9.483l-16.486 2.123v-7.025zm0 10.423v4.851l-16.486.659v-3.386zm0 5.783v2.678l-16.486.773v-2.792zm0 27.964v1.637h-33.89v-.569l16.966-3.007zm-17.031-10.606L1010 901.563l-5.266 3.847-1.271.228v-.545l17.16-15.488 15.091-3.4-8.83 5.949-3.4 2.26zm-13.513 10.134 3.706-2.708 10.058-6.521 16.78-2.639v11.4l-16.893-1.936-.061-.007zm30.544-18.826v6.015l-11.673 1.835zm-16.486 2.377v-6.661l16.486-.772v3.774l-.551.069zm-17.4-354.142v-23.721l16.487 12.9v19.493zm0 65.045v-20.814l2.766 1.379 13.721 5.065v4.259zm16.487-30.795v15.439l-13.362-4.928-3.125-1.562v-5.4zm-16.487 2.594V535.5l16.487 8.676v23.574zm0 53.686v-24.4l16.487-10.106v19.8zm0 7.433v-6.193l16.487-14.706v19.261zm0 26.83v-25.897l16.487-1.64V656.7zm0 87.811v-86.873l16.487-2.55v90.4zm16.487 15.125v10.939l-16.487-.805v-20.97zm0-3.975v2.866l-6.61-4.343zm-16.487-7.965v-2.257l16.487.984v8.278l-8.813-1.97zm0 55.75v-32.746l16.487.8v37.714zm0 27.032v-26.051l16.487 5.778v24.5zm0 15.79v-14.833l16.487 4.228v14.8zm0 9.995v-9.035l16.487 4.2V864.9zm0 9.28V859.8l16.487 6.1v6.966zm0 8.932v-7.963l16.487 4.776v3.456zm0 10.725v-9.793l16.487.268v2.951zm0 16.1v-15.1l16.487-6.574v6.793zm33.89-311.292v12.521l-15.417-19.111zM915.539 902.461v4.691h-14.073zm-21.846 4.691h-12.042v-2.311zm4.443-18.562v18.466l-16.485-3.165v-15.385zm0-23.333v22.4l-16.485-.085v-18.344zm0-22.254v21.3l-16.485 3.971V850.4zm0-25.088v24.068l-16.485 7.4v-21.089zm0-14.649v13.553L881.651 827.2v-23.756zm0-20.027v19.093l-16.485.179v-10.74zm0-18.843v17.8l-16.485 8.533v-11.157zm0-12.6v11.338l-16.485 15.177v-21.718zm0-15.953v14.987l-16.485 4.793v-17.4zm-16.485-.715v-1.621l4.949 3.057-.288.041zm0 2.15v-1.176l2.544.808zm0-4.862v-9.836l16.563 12.31-10.182 1.467zm33.8 11.5-16.4 6.579v-14.45zm-15.409-8.427-.991-1.067V709.28l16.488-34.072V727.9l-7.86 11.258zm15.5 9.395v10.221l-16.488 7.52V751.5zm0 11.243v18.608l-16.488 7.041v-18.128zm0 19.62v20.745l-16.488 5.651v-19.354zm0 21.728v20.237l-16.488-1.072v-13.511zm0 21.171v23.474l-16.488-.292v-24.251zm0 24.407V867.4l-16.488-3.118v-21.519zm0 25.291V885.1l-16.488 2.491v-22.36zm0 17.69v15.443l-16.488 5.495v-18.445zm0-156.528v13.419l-7.018-3.37zm0-99.318V673.1l-16.488 34.07v-60.078zm0-48.8v47.475l-16.488 16.9v-42.6zm-16.488 5.122V544.4l16.488-51.2v60.663l-10.8 29.813zm16.488-7.185v.538l-16.488 21.769v-14.077zm0-22.771v21.736l-9.6 4.791zm0-105.662v39.313l-16.488 51.2v-45.247zm0-18.046v15.365l-16.488 45.262v-33.464zm0-3.011v1.239l-16.488 27.159v-12.59zm-19.428 21.569.082.04 1.942-4.008v12.337l-16.485 35.994v-14.314l14.543-30.005zm-14.46 84.439v-37.871l16.485-35.992v34zm0 51.3v-48.9l16.485-39.866v45.863zm0 44.947v-21.681l16.485-21.777v14.248zm0-29.3v-13.08l16.482-42.91v40.3l-10.368 13.7zm0 6.083v-5.1l5.133-1.676zm0 57.382V633.97l16.485-29.218v41.976zm0 48.917v-47.477l16.485-19.537v60.691zm0 6.248v-5.252l16.485-6.332v23.846zm0-242.085v-9.809l11.951-14.85zm51.286 426.321v1.5h-16.486v-4.767zm0-11.034v10.085l-16.486-3.272v-15.184zm0-28.58v27.538l-16.486-8.373v-16.842zm0-20.641v19.7l-16.486 2.324v-24.294zm0-26.664v25.723l-16.486-2.27v-23.512zm0-25.341V817.8l-16.486-.059V797.2zm0-26.705v25.748l-16.486 3.8v-20.908zm0-16.044v14.995l-16.486 8.641v-18.529zm0-7.161v6.186l-16.486 5.107v-10.145zm-15.739.163-.747-.3v-15.226L932.94 677.5v47.659l-9.828 18.079zm15.739-16.566v15.468l-8.74.609zm0-63.981v11.433l-16.486 50.625v-51.692zm0-50.357v49.261l-16.486 10.366v-43.116zm0-46.215v44.907l-16.486 16.509v-47.7zm0-10.737v9.534l-16.486 13.714v-.308zm0-44.157v42.578l-16.486 22.941v-23.12zm0-47.193V509.1l-16.486 42.4v-61.079zm0-26.232v24.515L916.454 488.7v-40.142zm-16.486 9.252v-15.9l16.486-4.829v10.383zm0-16.873v-1.28l2.759.472zm51.292 422.983v19.947l-16.486 7.591v-19.883zm0-20.21v19.185l-16.487 7.652v-23.18zm0-11.068v10.113l-16.486 3.659V812.61zm0-22.272v21.2l-16.486-9.689V796.95zm0-28.635v27.688L951.259 796v-27.951zm0-18.994v18.044l-16.486-3.34v-15.786zm-16.486-5.56v-52.3l16.485-30.734v51.828l-10.64 32.182zm16.486 3.7v.926l-16.486-1.083v-2.6zm0-31.98v31.037l-9.724-1.625zm0-112.257v55.563l-16.486 30.724V654.23zm0-20.194v17.372l-16.486 47.933V617.68zm0-24.882v22.9l-16.486 31.577v-34zm0-14.809v13.337l-16.487 20.471v-24.426zm0-16.07v15l-16.486 9.383v-11.014zm0-16v14.808l-15.355 12.45zm0-18.142v16.269l-16.486 29.269v-1.081zm0-13.979v11.34l-16.486 44.456v-31.734zm0-10.357v8.726l-16.486 24.065v-26.77zm0-1.3v.307l-16.486 6.021v-20.014l16.486 13.175v.257l-.265-.119zm-.411-2.025-16.075-12.847v-9.355zm.411-3.943v2.939l-16.486-22.77v-5.229zm-33.889-27.529v-10.08l16.487 11.264v5.962zm0 25.112v-24.1l16.487 7.146V455.6zm0 45.226v-44.223l16.487-6.578v20.828zm16.487 35.541v.279l-.15.1zm0-33.358v30.889l-1.471 3.67-9.459 5.913zm-16.487 43.945v-44.22l16.487-29.972v26.732l-12.074 44.7zm16.487-9.2v10.92l-16.487 9.5v-10.125l15.817-9.889-.138.245zm-16.487 65.594v-44.1l16.487-9.5V581.4zm0 49.9v-48.066l16.487-28.525v34.24zm0 13.535v-11.006l16.487-42.35v33.971zm0 50.169v-48.745l16.486-19.386v38.884zm0 19.089V725.4l16.487-29.245v50.484zm0 6.951v-5.993l16.487 4.022v2.729zm0 15.928V750.5l16.487.756v15.713zm0 26.932v-25.996l16.487 1.474v27.911zm0 25.174V793.38l16.487 3.391v14.7zm0 26.654V818.6l16.487-6.129v23.883zm0 20.646v-19.614l16.487-7.91v23.188zm0 28.529v-27.567l16.487-4.335v20.062zm0 11.235v-10.093L951 882.258l16.75-7.712v15.335l-17.128 10.3zm0 2.483v-1.519l17.062-4.567 16.828-10.1v12.216l-17 3.974zm33.889-3.017v3.017h-12.9zm17.4-5.137v8.094l-16.489.057V903.9zm0-13.7v12.731l-16.489 4.9v-12.44zm0-16.6v15.629l-16.489 5.192V874.16zm0-17.737v16.756l-16.486 5.463v-19.924zm0-11.257v10.317l-16.489 2.3v-18.865zm0-13.749v12.756l-16.489-6.244V822.6zm0-20.828V825l-16.489-3.355v-21.389zm0-32.892v31.922l-16.489-4.865v-27.799zm0-20.56V771.3l-16.489-.733V752.4zM968.66 749.7v-33.93l16.489-68.34v58.664L968.684 749.7zm8.892 1.375-8.892.4v-.841zm7.6-42.384v41.829l-15.5-.771zm.012-65.218-16.5 68.39v-49.727l16.492-21.589zm-.012-40.187v35.751l-16.492 21.582V604zm0-45.557-.074.112-16.418 1.559v-13.23l16.489 2.986zM968.66 582.7v-22.359l15.754-1.5zm16.489-23.309v42.953l-16.489.721v-18.688zm0-32.474v21.291l-16.489-2.986v-15.455zm0-29.125v28.179l-16.489 2.847V512.8zm0-13.876v12.624l-16.489 15V493.9zm-16.489-3.688v-8.225l.7.984 6.758 6.664zm8.55.274 7.939-.613v2.942l-16.489 9.989v-11.652zm-101.689 426.65h-11.273v-1.866zm4.014-.28-15.286-2.532v-9.84zm1.2-2.387v2.168L864.248 893.3v-3.859zm0-16.143v14.892l-16.486-15.041v-7.108zm0-18.928v17.911l-16.486-7.256v-7.72zm0-18.726v17.777l-16.487 2.935v-16.54zm0-21.96v21l-16.487 4.172v-18.26zm0-25.189v24.182l-16.486 6.909v-28.056zm0-11.5v10.549l-16.486 3.034v-10.503zm0-11.975V791.1l-16.486 3.076v-7.035zm0-23.421v22.408l-16.486 7.069v-31.8zm0-18.432v17.491l-16.486-2.33v-17.947zm0-2.484v1.537l-16.486-2.787v-9.413zm0-2.794v1.689l-16.486-10.664v-1.738zm0-10.812v9.705l-16.486-10.718v-.329l1.46 1.02.118.067zm-16.486-2.472V706.63l16.486 9.5v5.064l-14.64-.25zm16.486-51.119v46.522l-16.486-9.5V682.9zm0-33v31.773l-16.486 14.365v-18.05zm0-23.337v21.518L864.248 661.8v-16.552zm-16.486 6.21v-18.149l16.486-9.819V603.3l-10.386 16.572zm16.486-13.371v5.1l-16.486 33.049V631.34zm-16.486 24.585v-10.251l5.578 1.341zm16.486-88.927v48.66l-16.486 9.818v-14.287zm0-39.038v36.412l-16.486 44.188v-13.474zm.012-3.889-16.5 67.165V530.6l16.488-46.6zm-.012-26.362v9.857l-16.486 46.59V506.11zM463.08 904.05v1.585l-16.487.242v-1.307zm0-1.962v1.028l-16.487.52v-.624zm0-2.494v1.559l-16.487.925v-1.5zm0-2.927v1.991l-16.487.983v-2.551zm0-4.45v3.517l-16.487.422v-3.326zm0-4.053v3.121l-16.487.612v-4.589zm0-5.323v4.389l-16.487-.856v-7.294zm0-7.6v6.646l-16.487-3.761V872.9zm0-6.378v.791l-1.692-.165zm-8.691-.053 6.435-.1-1.558.577zm8.691 1.781v3.709l-16.487-2.334v-2.975zm-17.4 34.014v1.3l-16.487.554v-1.12zm0-1.546v.612l-16.487.728v-.6zm0-2.44v1.506l-16.487.738v-1.713zm0-3.528v2.594l-16.487.53v-3.529zm0-4.267v3.333l-16.487-.4v-3.773zm0-5.6v4.668l-16.487-.843v-6.194zm0-8.3v7.359l-16.487-2.37v-6.584zm0-6.015v5.078l-16.487-1.6v-1.074zm0-3.772v2.832l-13.213 1.93zm-37.165-15.67 3.179-18.554 16.669 5.359.017.213-.007.051.011-.007.9 11.3-1.012.312-16.572-.041v-.131zm-14.131 53.053v-.32l16.488-.445v.849l-4.449.088zm16.488-3.2v1.495l-16.488.446V904zm0-3.059v2.126l-16.488.68v-2.85zm0-3.912v2.981l-16.488-.045v-2.869zm0-5.759v4.826l-16.488.067v-4.519zm0-11.252v1.649l-9.538 1.846.446-.187zm0 2.6v.613l-8.5 1.033zm-16.488 2.162v-8.955l16.488-.886v4.1l-9.387 3.416zm16.488-.608v6.171l-16.488.373v-4.542zm0-26.252v16.085l-16.488.885v-9.11zm0-3.922v2.893l-16.488 7.858v-2.43zm.915-32.753v-13.63l16.486-12.509v17.634zm0 1.084 16.486 4.362v.7l-16.486-.008zm16.486-8.541v11.938l-15.3-4.046zm-16.486 20.229v-5.7l16.486.008v9.59l-16.486-3.305.1-.69zm16.76 5.291-.1.7-9.179-2.951 9.09 1.819v.673zm.642-27.609V793.7l16.487-15.369v11.679zm17.042 1.912.2-.153 16.652-24.535V807.5l-14.967 6.756-1.283.152.066-.314-.266.338-.633.068-7.112 4.369 3.721-3.091 3.159-2.478v.322zm.362-23.931v-11.5l16.487-12.923v6.544zm0 21.925v-20.567l16.487-17.875V786.6zm17.189-2.722.179-.118L463.2 819l-17.294 10.343-2.457 1.434 3.14-14.816 16.577-7.487v.011zm.213-22.293v-14.322l16.486-8.868v12.733zm0 72.062v-2.419l7.547 2.106zm0 .932 16.128-.67L463.995 864zm14.725-1.545-4.163.174-10.563-2.948v-.68zM446.294 846.3l-.236-.028-.022.008-.272-.138v.227l-2.519.834v-15.23l19.928-11.873 1.833 33.084-1.314-.3-17.187-6.5v-.151zm.3 20.971v-5.79l16.487-2.487v5.282L450.186 867zm16.487-2.043v2.51l-12.921.208zm-33.891 6.245v-6.743l16.487-3.092v5.769zm2.046-19.216 14.441-4.875v13.307l-16.487 3.093v-10.87l1.622-.514.621-.142zm-1.973-12.126 13.068-7.624v15l-12.158 4.03-.913-11.381zm.164-1.17.18-1.29.012-.253 15.729-20.011-2.965 14zm34.651-19.354 15.036-6.853 1.419 44.071-14.6-3.426-1.868-33.655zm15.04-7.876-14.967 6.82.774-11.108 15.564-10.318zm2.555 52.694-.275.1v-5.461l6.306 1.974zm16.213-8.025v13.118l-16.481-4 .645-.242zm-13.752 2.549 13.752-12.394v8.781l-9.067 5.079zm-.937-.4-.687-.426-1.05-.888-1.445-44.891 17.871-7.789v40.754zm-3.12-47.255 1.391-14.819v-.069l16.42-15.573v22.707l-17.133 7.445zm-16.082-4.346V787l16.486-10.452v17.41l-4.9 5.3zm-34.805 17.771v-12.208l16.487-21.011v20.685l-3.621 2.84-6.694 4.995zm0 1.935v-.742l16.047-9.854-7.579 9.64zm0 9.817v-8.881l7.659-.865zm11.3 33.546-11.3 4.073v-1.645zm20.595-15.234 2 .518v2.751l-16.487 2.487v-13.052l5.238 2.638 7.584 4.07zm-7.283-4.649 9.278 3.508v.7l-1.732-.448-1.571-.546zm25.384 16.166-15.191 3.291v-1l14.185-2.316zm-15.191 1.339v-2.655l16.486-5.892v5.691l-3.1.414zm16.486-.666v10.291l-16.486-2.825v-3.894zm0 11.235v4.838l-16.486-1.016v-6.644zm0 5.772v4.142l-16.486-.844v-4.315zm0 5.075v.99l-16.486 1.189v-3.023zm0 1.925v3.376l-16.486 1.329v-3.515zm0 4.311v2.743l-16.486.582v-2zm0 3.677v1.064l-16.486 1.068v-1.55zm0 2v1.026l-16.486 1.078v-1.039zm0 1.961v1.995l-16.486.686v-1.6zm0 2.928v.164l-14.48.439zm17.4-35.379v8.884L481.4 877.4v-10.932zm0 9.821v4.411l-16.481-1.593v-4.779zm0 5.348v1.15l-16.488 1.31v-4.052zm0 2.086v2.217l-16.488.062v-.968zm0 3.15v1.79l-16.488 1.6v-3.327zm0 2.726v3.08l-16.488 1.3v-2.779zm0 4.015v1.776l-16.488.587v-1.069zm0 2.711v.647l-16.488.957v-1.019zm0 1.58v2l-16.488.968v-2.005zm0 2.931v.707l-16.488.444v-.184zm0 1.639v.14l-8.7.1zM481.4 775.172v-12.381l15.658 10.024zm-.127 19.3.127-.159v-18.2l16.86-2.536 6.162 3.148-5.7 2.376v-.2l-.371.35-.182.076-17.486 16.553-1.874 1.243zm17.53 7.443v-21.84l13.88-5.781zm9.858 53.371.417-.019 6.212-9.215v7.878l-7.215 1.742-9.271-.5v-9.553l16.486-38.53V844.4l-6.844 10.15-.189.366zm6.629 1.71v10.914l-16.49 1.684V856.1zm0 11.854v8.272l-16.49 2.229v-8.82zm0 9.211v3.383l-16.49 3.213v-4.366zm0 4.332v3.387l-16.486.956V885.6zm0 4.322v2.931l-16.486.3v-2.273zm0 3.865v1.953l-16.486.1v-1.752zm0 2.886v1.693l-16.49 1.452v-3.052zm0 2.63v2.217l-16.49 1.041v-1.808zm0 3.151v1.453l-16.486.246v-.658zm0 2.388v1.294l-16.486.931v-1.979zm0 2.228v1.27l-16.486.4v-.738zm0 2.2v.372l-16.486.178v-.153zm0-51.179v1.176l-3.975-.216zM498.8 843.28v-39.319l16.486-32.807v33.6zm-34.805-72.748v-6.4l10.491.759zm-52.207 35.237v-.3l.57-.136zm-203.142 100.7 10.807-.5v.457l-2.027.05zm10.807-2.094v.641l-16.5.207v-.484zm0-2.723v1.79l-16.5.362v-.445zm0-2.489v1.552l-16.5 1.708v-2.077zm0-2.933v2l-11.761.843zm-25.017 9.7-8.879.123v-.373zm7.6-1.16v.443l-5.45-.155zm-125.563 2.366 4.23-.168 1.067-.03.927.1-1.71.1zm100.105-21.83-9.068 4.04-17.34 8.071-12.592 1.934 6.32-2.21.371-.192-.015-.061 1.211-.3 5.018-1.754L167.8 887.1zm32.613-8.256 1.013-.442-.593.322zm-1.839 1.495 2.6-.753 10.127-5.472 10.693-4.109-8.747 4.6-1.03.534-1.205.336-2.769 1.744L202.39 882l-.941.532-1.611.726.509-.083-1.079.629L184.9 890l-16.939 8.341-3.7 1.248-9.037 1.093L167.9 896.3l17.379-8.915 17.366-7.5 1.5-.514zm46.9-25.439v1.662l-11.146 7.9zm0 2.8v6.156l-16.486 6.538v-1.14l1.5-.935zm-16.484 16.6v-2.9l16.484-6.54V865l-9.869 5.749zm0 2.1v-1.141l3.586-.948zm0 3.612v-2.537l16.484-9.6v2.6l-14.718 8.509zm11.88-5.809-11.88 9.182v-2.3zm11.622-22-3.061.571 7.907-3.7zm28.709-9.454v-2.314l16.483-18.713v6.3zm0 8.544v-7.3l16.483-14.73v11.551zm0 17.141v-16.048l16.483-10.48v12.832zm0 7.326v-6.124l16.483-13.69v16.365l-3.273 3.742zm17.4-48.134v-6.71l16.483-2v4.261zm0 12.868v-11.9l16.483-4.454v12.744zm0 13.824v-12.87l16.483-3.614v10.888zm17.4-31.553v-3.779l4.807 1.253zm33.891 43.667v.509l-16.486.685v-1.892zm0 1.442v5.152l-16.486.8v-5.272zm0 6.085v5.078l-16.486.318v-4.6zm0 6.01v4.619l-16.486 2.747v-7.046zM334.438 892.6l24.226-2.758v1.8l-16.955.783zm24.226 13.25v.553l-7.173-.161zm0-1.645v.71l-16.939.929-16.951-.261v-.844l16.957-.129zm-33.891-.4v-2.558l16.942.012 16.948.2v1.813l-16.947.405zm33.891-6.2v2.92l-16.943-.194-16.948-.013v-2.46zm0-5.029v4.1l-33.891.252v-3.162l16.967-.4zm-33.891-21.918v-.458l.683.148zm-.266-1.47-.148-.02v-.007l-.092-.01-.175.053-.149-.033v.077l-1.058.315 1.74-3.5 16.987-3.872 1.079.832-.6-.026v-.118l-.237.108-.134-.006-.3.091h-.073l-14.476 6.633-2.186-.477v-.093zm-.648 1.057v.739l-5.784.981zm0 7.024v2.811l-16.483 6.586v-7.444zm0 3.813v4.462l-14.322 1.261zm-33.882 6.485v-1.2l6.577 1.19zm0 .932 11.678-.023 1 .039-12.681 1.108zm-.916-2.212v1.278l-16.5-.061v-.764zm-17.414-1.436v1.009l-16.483 1.486V885.1zm-16.688-2.562-.094-.06-.468.1-.061-.007-10 2.593 10.645-12.7 16.667-6.427v10.126l-11.805 6.943-4.764-.552v-.044zm-.709 2.951v2.219l-16.484 2.8v-.81zm-33.882 9.882v-.1l13.871-3 2.839-.669 17.171-1.245v2.063l-16.981 1.453zm16.483-4.711-16.483 3.653v-.287l16.483-4.094zm-16.483.17v-1l13.157-1.509-.97.335zm0-1.936v-.294l4.711-.246zm16.483-5.3v2.669l-5.075.426zM186.4 895.773l.017.1 16.195-2.626 16.838-4.725v.309l-17.065 5.577-17.376 4.243-17.376 3.318-16.877 2.381v-1.118l17.045-3.125 17.369-4.031 1.246-.2zm33.049-3.971v1.255l-13.236 3.52zm-19.293 9 1.226-.283.654-.084v2.027l-11.625-.1zm-15.518 4.876v.354l-4.121-.219zm5.771-5.232-4.835 1.023-.218-.2 15.117-2.97.158-.026-9.408 2.079zm-81.184 5.541-1.653.133-3.339-.175zm127.623-38.072v1.006l-4.766 1.328-3 .8 6.191-2.413zm0 1.973v2.784L221.761 874l.155-.077 10.407-2.77zm-60.765 25.48 9.193-4.524 7.27-3.134-7.612 4.432zm-2.052 1.738 11.284-4.121 17.332-10.079 17.363-2.8L236.851 876v2.713l-17.051 7.235-17.341 1.526-17.5 6.181-8.837 2.947zM205.9 881.44l8.021-3.606-4.539 3.044zm5.672-.914 7.379-4.954 1.07-.483 16.825-1.48v1.43l-17.015 4.155zM153.46 905.89l-2.565.106-.015-.069zm-4.517.134 1-.064.012.052-1.125.028zm1-3.6-8.054 1.152-1.725.021 9.836-1.349zm-17.04 3.2 1.635-.059 15.3-2.181v1.078l-7.943.687-9.039.58-2.161.117zm18.044-3.368.034-.12 1.565-.174zm16.93-8.677 17.328-7.784 3.109-.724-3.421 1.476-17.347 8.9-16.679 5.753-9.2 1.253v-.009l-9.277 1.276-3.552.282-9.54 1.2-3.8-.1-2.653-.023 2.691-.167 17.471-1.7 14.535-4.073zm-69.753 10.979 14.2-1.042 3.216-.3 12.968-1.644 4.516-.628.794-.278 1.626-.046 7.528-1.154-10.139 2.846-17.378 1.682-15.83.985-1.547-.013-4.367.092zm35.535-4.822-.834.024-14.442 2.155-2.938.372-2.717.255 2.85-.346 17.37-3.645 6.769-.936zm-14.23.435 4.778-.735-8.775 1.841-14.316 1.736 9.407-1.649zm-21.137 3.3-.326.168-2.647.19 2.841-.338zm-.222 3.088 1.184.062-6.986.077zm71.564-.385.56.029-.812-.021zm-10.118-1.3-1.2-.039 9.42-1.087 6.275-.178 8.174-.133 2.451-.155v1.454l-16.947.019zm54.9-9.058-4.792.824 9.83-2.615v.278zm-14.093 1.567-15.328 2.6-8.4 2.056-2.01.393a.458.458 0 0 0-.2.088l-.52.081-5.585.2 16.92-3.233 17.431-4.258 16.819-5.5v1l-17.05 6.159zm35.918-9.25.869-.345-.19.928-16.55 4.112v-1.29l12.412-2.219zm1.866-.647 16.145-4.15v.951l-16.352 4.175zm42.666-44.675 1.736-.325-.761.248zm8.291.226v7.084l-16.5 14v-5.871zm0 8.3v16l-16.5 8.118v-10.122zm0 17.03v5.733l-16.5 6.787v-4.412zm-27.69 14.679 10.275-6.044v4.244l-6.9 2.191zm.788 1.028-7 .106v-.918zm10.063-.892 17.389-4.872 16.849-3.4v3.468l-17.061.939-2.954.875-7.758 2.512-6.65.962-2.272.295-1.4-.13zm17.348-2.055-5.844.921 2.986-.964 2.839-.854 16.908-.919v7.411l-16.762-5.55zm-7.07 2.057 6.981-1.1 10.646 3.516-10.619-2.006-11.267.39zm-1.086-36.7-9.555 7.377-1.459.927-15.236-.237v-2.061l17.069-3.179zm-9.067 8.166 6.86-5.292-7.4 8.326-14.3 9.077-2.342 1.378v-2.606zm.215 31.164v-.848l3.341.756zm16.889-1.29 10.64 2.73-10.585-1.906-9.8.282-2.924-.662zm17.924 4.557 16.481-.081v.718l-16.483.5zm16.483-2.594v1.578l-11.185.064-2.624-.426zm-16.483-16.928V853.5l16.488-5.6.065 7.165-.052.072-3.248.889-.114.042zm16.511-12.872-.376 9.564-1.825 3.677-9.645 2.868zm-16.511 18.047 16.483-2.8v4.4l-16.483 1.954zm17.4-28.12v-10.869l16.49-8.384V841zm33.86-30.6-1.786.53-6.362-1.87 8.18-.528v1.194l-.34-.359zm-33.79 39.647.009-.009v-.013l15.931-5.165.534 10.834-16.844 3.84zM344.3 863.1l-2.055-1.586-.555-11.234 9.24 8.424.093.069-.691 4.581zm12.651-7.975-14.77-5.761v-7.491l16.486 2.234v10.606l-1.128.579-.936-.457zm.614 1.239-6.212 1.473-7.47-6.811zm1.1-.607v.038l-.042-.015zm0-30.156v17.564l-16.486-2.233v-13.897zm-16.486.5v-12.844l16.486 6.383v5.021zm-17.4 8.6v-12.687l16.49-8.666v12.972zm16.15 14.744-16.083 5.216-.064-7.068 16.486-5.612v7.128l-1.24-.483zm-16.15 38.639v-1.807l16.49-7.529v6.968l-10.633 2.7zm0-8.4v-2.667l16.49-9.889v5.083zm0 5.574v-4.552l16.49-7.473v4.5zm0-9.322v-4.251l16.49-7.511v1.874zm8.954 12.656 7.536-1.911v2.338zm4.094 1.164-13.048-.052v-.684zm-13.048 3.035v-2.155l16.993.066 16.9-1.882v.09l-17 1.917zm17.4-3.765v-2.546l16.486-2.747v4.151l-7.227.805zm9.787-30.382 6.773-1.605v6.661l-7.488-.316zm6.829-39.951-6.549-2.536 4.42 1.3.162.065 1.99-.591.213.71zm-.129-14.445v8.963l-10.788.7-5.785-1.7v-.232l-.275.145-.075-.028-.082.025h-.054l-.033.019-.223-.086v.2L330.8 817.8l-3.74-.975 14.825-9.831zm-37.656 52.644 1.98-.541-12.413 16.882-3.745.647-2 .414-.441-.01 2.857-3.268zm-20.385 18.241L289.4 877.4l-17.374 4.867-1.142.193 1.389-.441 17.331-7.13zm-13.055-33.708.578-.669.235-.222-.053.011.731-.849v2.077l-7.341 6.769 2.5-3 1.865-2.384 1.205-1.319zm-5.746 2.233 3.6-1.154-2.333 2.49-11.069 3.413-8.349 1.553 8.585-5.545zm-26.66 18.279v-6.454l13.8.214-10.2 6.456zm0 2.5v-1.56l2.248.136zm-.2 5.03a.42.42 0 0 0 .163-.23l2.847-1.674 13.669-8.677v5.911l-17.075 6.584-.135.048-11.633 13.882-1.924.5-3.113.145v-3.2zm-17.954-2.776-.162.166-1.926.926-4.974 1.938 7.117-3.722 1.232-.418zm-43.872 16.3-8.222 1.92-17.341 7.789-12.243 3.34 12.552-5.841 17.348-7.73 14.593-2.369zm8.9 20.407v.439l-16.483.872v-1.449zm-15.661-8.449-1.277-.1-2.952.721 3.1-1.033L202.6 888.4l17.352-1.526 16.9-7.149v2.541l-7.137 4.357-9.92.841-17.374 4.879zm67.872-1.839V895l-16.949 3.2-16.935-.012v-2.131l16.979-1.508zm-33.882 7.539v-1.522h17.018l16.864-3.187v2.652l-16.96 1.4zm0 2.749v-1.814l16.976-.653 16.906-1.4v.887l-16.973 1.789zm16.9.15-16.9 1.42v-.635l16.987-1.2 16.9-1.779v.739l-16.979 1.451zm16.979-.516v.348l-9.892.5zm-26.979 2.868-6.9.473v-.458l16.963-.755 16.918-.853v.829l-16.965.2zm26.983-17.493v.761l-7.581.528zm17.4-1.61v.748l-16.486 1.555v-.811zm0 1.685v2.647l-16.483.974v-2.075zm0 3.58v3.408l-16.483-.544v-1.89zm0 4.341v.759l-16.483 1.352v-2.656zm0 1.7v.767l-16.483 1.461v-.876zm0 1.7v.51l-16.483 1.692v-.74zm0 1.447v.75l-16.483 1.317v-.371zm0 1.683v.921l-16.486 1.246v-.846zm-14.459 3.134-2.024.049v-.051zm14.459-1.278v.357h-4.682zm17.411-16.289v1.2l-16.5 1.361v-2.624zm0 2.138v1.935l-16.5 2.829V892zm0 2.881v1.455l-16.5 2.091v-.718zm0 2.4v.735l-16.5 2.117v-.761zm0 1.674v1.256l-16.5 1.382v-.521zm0 2.192v.938l-16.5 1.209v-.764zm0 1.874v.979l-16.5 1.154v-.926zm0 1.913v.859l-16.5.7v-.4zm0 1.792v.508l-9.755-.094zm0 1.463v.014l-.272-.005zm17.4-17.7v1.16l-16.483 2.158v-1.876zm0 2.1v1.92l-16.483 1.731v-1.492zm0 2.858v.769l-16.483 1.7v-.737zm0 1.706v1.473l-16.483 1.509v-1.282zm0 2.408v1.193l-16.483 1.266v-.95zm0 2.13v2.5l-16.483-.218v-1.021zm0 3.437v.466l-16.483.177v-.861zm0 1.4v.8l-16.483-.089v-.539zM290.7 906.83l-.718.011v-.024zm33.164-16.181v2.205l-16.483.236v-1.945zm0 3.185v3.107l-16.483.27v-1.521zm-16.483.916v-.726l7.406-.107zm16.483 3.123v2.427l-16.483-.918v-1.237zm0 3.357v2.561l-16.483-.931v-2.546zm0 3.493v.822l-16.483-1.288v-.463zm-16.483 1.234v-.766l7.627.6zm68.691-38.962v4.091l-16.487 5.949v-5.019zm0-40.939v3.011l-16.487-4.339v-4.746zm0-.989-11.388-4.183L361 818.4l-.367-1.053-1.055-1.188v-2.088l16.487-1.52zM359.889 818l.3.867.064.155.726.49-1.321-.487zm-.309 25.2v-17.51l16.487 4.339v12.154zm0 21.975v-.433L366.7 866zm0-9.414 12.065 6.323-12-5.875zm11.056 6.864-5.48-1.694-2.828-2.374zm5.431.554v1.131l-1.531-.6-1.881-1.1 1.187.624zm-16.487-8.466v-10.581l16.487-1.015v19.126l-2.013.052zm0 16.333v-4.933l11.71 1.365zm.074-7.237v-6.289l5.008 4.2 5 1.6 4.485 1.231 2.144.846.507.405-2.181.659zm-.074-50.667v-8.986l16.487-.494v7.96zm16.487 58.937v4.047l-16.487 6.385v-4.483zm0 5.043v9.532L359.58 887.8v-4.3zm-11.13 11.243-5.357.458v-.084zm11.13-.016v1.861l-16.487 1.38v-1.832zm0 2.8v5.2l-16.487.32v-4.143zm0 6.139v3.112l-16.487.14v-2.94zm0 4.045v1.555l-16.487.376v-1.79zm0 2.487v1.852l-16.487-.748v-.727zm0 2.826v.05l-.863-.015zm-16.487-.24v-.549l6.282.285zm33.888-44.434v2.511l-16.485 6.267v-4.021zm0 3.506v8.8l-16.485 1.653v-4.189zm-16.485 21.082v-9.689l16.485-1.65v9.121zm0 1.692 10.473-1.458 6.012-1.147v4.408l-16.485.119zm16.485 2.736v4.527l-16.485.805v-5.22zm0 5.46v2.873l-16.485 1.044v-3.11zm0 3.808v2.834l-16.485-.208v-1.581zm0 3.767v1.271l-16.485.388v-1.867zm-14.67 2.71-1.815-.026v-.06zm14.67-.507v.272l-3.822-.181zm-16.485-94.5v-7.86l16.485 6.571v7.633zm0 13.6v-12.6l16.485 6.341v8.349zm0 4.065v-3.128l16.485 2.093v9.616zm0 12.932v-11.894l16.485 8.581v10.6zm0 19.54v-18.53l16.485 7.293v.685zm.908 3.635-.908-.728v-1.805l16.338-10.4.234-.17v.033l.671-.483.483-.44.245-.283-.223-.432 6.981-6.256 8.923-8.878-3.141 18.329-13.7 6.921zm26.509-57.915 6.469-1.863v.592zm-10.019 42.271v-10.221l6.275 4.6zm9.471-21.893.148-.024 6.869-5.889v4.845l-9.865 5.679-5.746-4.228zm-9.471-.512v-8.173l15.595 2.316-6.352 5.447zm6.722 6.136 9.766-5.621v6.147l-9.524 9.475-6.964-5.1v-9.637l6.3 4.639.138.1zm-6.722-15.25V810.5l16.488-3.237v13.521zm33.889 87.027v1.11l-16.486.115v-.858zm0-1.561v.629l-16.486.366v-1.479zm0-2.661v1.729l-16.486-.485v-2.094zm0-4.474v3.542l-16.486-.852v-3zm0-4.743v3.811l-16.486-.308v-4.806zm0-7.174v6.24l-16.486-1.3v-6.218zm0-7.331v6.4l-16.486-1.283v-.8zm0-1.942v.98l-16.486 4.32v-1.718l11.095-2.4 3.526-.623 1.342-.459zm-3.4-.3 3.4-2.256v1.49l-.727.252zm-2.535.567-.123.1-10.425 2.257v-4.059l16.486-8.929v6.695zm-10.546-2.759v-16.107l16.486-3.79v10.972zm0-17.066v-2.89l12.424.034zm120.9 49.722v.677l-16.486.106v-.384zm0-2.034v1.1l-16.486.4v-1.28zm0-2.394v1.461l-16.486.22v-1.283zm0-3.215v2.282l-16.486.4v-1.5zm0-3.272v2.338l-16.489 1.184v-2.23zm0-2.163v1.228l-16.489 1.291v-1.644zm0-4.759v3.826l-16.489.871v-2zm0-3.92v2.975l-16.489 2.696v-2.939zm0-3.859v2.913l-16.489 2.732v-3.434zm0-6.384v5.443l-16.489 2.211v-3.4zm0-5.964v5l-16.489 4.252v-8.16zm0-12.622v11.688l-16.489 1.093v-10.868zm-16.489-1.349v-9.057l16.486-36.3v37.575l-3.751 4.705zm16.486-3.028v3.443l-16.486 1.909v-1.367zm0-3.276v2.318l-2.289.553zm0-74.162v32.886l-16.486 36.3v-37.462zm0-31.418v29.424L516.2 802.969V769.35zm17.4 163.446v.791l-16.486.251v-.686zm0-2.024v1.092l-16.486.356v-1.1zm0-2.786v1.855l-16.486.348v-1.476zm0-3.13v2.2l-16.486.727v-2.3zm0-3.351v2.416l-16.486.623v-2.343zm-16.486-2.433V887.8l13.542 1.961zm16.486-1.233v2.732l-16.486.7v-1.255zm0-2.58v1.512l-16.486-2.386v-2.934zm0-3.428v2.471l-16.486-3.807v-2.875zm0-8.1v7.143l-16.486-4.214v-5.543zm0-11.255v10.313l-16.486-2.616v-5.063zm0-8.076V864l-16.486 2.638v-11.585zm0-13v12.059l-16.486-1.812v-3.711zm-1.678-.917 1.678-1v.919l-3.172 1.258zm1.014-1.685-1.526.914-4 3.145-10.296 4.079v-3.162l16.486-21.98v15.652zm.664-53.017v34.478L533.6 844.708v-38.3zm0-44.24v42.865L533.6 805.038v-33.545zm0-18.334v16.546L533.6 769.7v-29.327zm17.4 181.055v.095l-8.888.036zm0-1.663v.73l-16.487.243v-.791zm0-2.352v1.419l-16.487.183v-1.1zm0-3.125v2.193l-16.487.5v-1.873zm0-2.741v1.808l-16.487.821V897.3zm0-3.385v2.454l-16.487.444v-2.422zm0-7.907v3.246h-.182l-16.305-1.868v-2.5zm-16.487 3.74v-1.422l9.8 1.123zm16.487.781v2.453l-16.487.476v-2.77zm0-14.6v9.144l-16.48-1.125v-7.256zm0-8.133v7.2l-16.487.764v-10.376zm0-8.687v7.745l-16.487-2.414v-7.027zm0-10.452v9.514l-16.487-1.7V843.8zm-16.419-7.625-.069.009v-.451l16.487-31.5v26.909zm16.419-1.122v7.783l-16.487-4.415v-1.3zm0-2.935v2l-11.086 1.388zm0-45.757v15.893l-16.487 31.5V823zm0-24.108v22.092l-16.487 32.228v-33.754zm0-28.961v27.486l-16.487 20.565V742.7zm0-19.035v18.062l-16.487 5v-16.755zM742.432 611v-.066l.173.2zm17.4 16.633v-1.754l2.253 2.581zm0 13.73v-12.74l15.71 5.831zm0 26.746v-25.731l16.487-7.252v9.958zm0 90.276v-27.717l16.487-25.806v10.491zm16.138-61.965.349-.347v7.079l-16.487 25.807v-16.52l14.041-14.33zm-16.137 8.38v-35.109l16.487-23.023v39.943l-3.02 10.458-.056.334zm16.487-14.88v4.851l-.949.946-.942.76zm-16.487 21.2v-5.259l11.216-6.184zm0 55v-5.171l16.487-43.03v14.29zm0 13.016v-10.913l16.487-33.913v12.29zm0 31.827v-29.79l16.487-32.537v23.7zm0 10.143v-7.8l16.487-38.63V803.8zm5.544 13.342-3.72-1.855 14.663-10.629v8.369l-4.815 2.942zm10.944 6.5v.8L764.4 835zm0-7.646v6.606l-9.569-4.771zm0-1.879v.931l-2.22.424zm-15.738.637-.749-.715v-8.9l16.487-17.309v15.683l-15.6 11.308zm16.654-148.482V645.41l16.486-19.391v2.958zm0 10.766v-7.594l16.486-54.6v56.843l-.555.523zm34.805-82.889v-6.471l16.485-20.915v3.024zm0 64.836V613.1l16.485-24.362v30.638zm17.4-60.03v-28.9l16.487-30.9v3.756zm0 38.482v-35.234l16.488-56.054.009 15.689zm16.487-47.123v16.99l-7.121 15.3zm-16.5 51.466 16.5-75.6.009 19.84-8.9 40.381-7.608 16.345zm.01 16.513v-13.391l16.487-35.423v1.448zm33.889 229.4v2.151l-16.483-.365v-12.732zm-86.1-9.467v-4.762l16.486 6.7v5.679zm16.486 8.778-5.09-.1-11.4-2.569v-5.084l16.486 7.622zm-16.486-14.536v-11.558l16.486 4.022v14.227zm0-12.509V860.68l16.486 5.669v14.93zm0-17.561v-8.844l16.486 8.329v6.183zm0-17.471v-.945l16.486 5.04v2.662zm0 7.586v-6.581l16.486 6.758v8.152zm0-18.029v-1.034l16.486-23.271v11.209zm0-2.628v-7.929l16.486-20.86v5.52zm0-9.415v-15.668l16.495-41.579v36.379zm0-18.151v-29.065l16.495-37.431v24.905zm0-31.337v-23.41l16.486-28.356v14.339zm0-25.24v-12.556l16.486-23.96v8.152zm0-14.172v-15.186l16.486-13.936v5.154zm0-16.39v-10.872l16.486-8v4.933zm0-11.9v-7.236l16.486-4.995v4.227zm68.694 10.419v5.136l-14.378.136 5.144-1.982zm0 9.865v4.806l-16.487 20.439v-10.3zm-16.487 13.7v-8.6l14.536-4.574zm0-9.579V719.2l16.487-.155v2.548l-.3.274zm6.208-11.286-6.208 2.392v-7.714zm-16.1-25.952-4.942-1.637-1.526-2.068 6.563 3.235 1.572.9zm-7.509-5.255v-4.875l16.486-56.919.011 36.216-2.752 11.172-6.179 18.123zm0 64.645v-22.6l16-7.076.06-.014-5.186 9.726zm0 1.924 11.675-21.435 4.81-9.024v6.923l-16.485 40.738zm0-25.537v-15.058l16.485-.619v8.54l-.772.184zm16.485 4.45v7.526l-16.485 35.444v-2.232zm0 9.706v9.6l-16.485 26.316v-.474zm0 11.335v16.605l-16.485 32.3V777.3zm0 18.773v12.4l-12.273 13.722zm-14.915 29.074 2.992-5.861-2.491 5.3zm14.915-15.293v5.26l-16.485 15.136v-1.96zm0 6.517v20.414l-16.485 3.808V805.2zm0 21.369v5.72l-16.485 4.219v-6.129zm0 6.681v9.105l-16.485 11.137v-16.031zm0 10.226v9.958l-16.485 7.53v-6.352zm0 10.981v12l-16.485-.648v-3.818zm0 12.929v6.991l-16.485-6.176v-1.465zm0 7.983v5l-16.485-7.4v-3.768zm0 6.016v9.206l-16.485-10.82v-5.789zm0 10.315v6.624l-16.477-8.487v-8.974zm0 7.669v12.558l-16.485-11.846v-9.195zm0 13.709v6.126l-16.485-6.378v-11.603zm-.1 7.085-16.386-.353v-5.985zm-33.789-189.2v-14.348l11.022 5.464zm11.583-8.6.356.173 4.548-3.662v6.1l-16.487 21.724V717.01l11.449-9.221.286-.288zm-11.583-6.78v-4.7l13.142 9.492-1.323 1.065zm0-5.84v-3.838l11.065 10.42 4.945 1.743-2.118 1.706zm0 63.6v-25.123l16.487-21.723v14.724zm0 38.226v-36.217l16.496-32.115v22.726zm16.487 102.018v6.2l-9.325-.179-7.162-1v-5.831zm0-12.873v11.939l-16.487-.805v-14.28zm0-10.3v9.347l-16.487-3.143v-14.709zm0-10.064v9.019l-16.487-8.5v-6.187zm0-6.8v5.814l-16.487-5.672v-8.145zm-16.487-12.791v-1.253l16.487-21.079v15.681l-11.277 8.186zm16.487 8.065v3.693l-16.487-8v-2.7zm-10.156-6.2 10.156-7.372v6.091l-6.422 2.382zm10.156-.054v3.049l-3.007-.887zm-4.932 1.593 2.326-.862-1.527 1.1zm4.932 2.426v1.222l-9.363-3.983zm0-35.442v5.79l-16.487 21.078v-9.448zm0-9.912v8.567l-16.487 17.412v-9.247zm-16.487-1.826v-5.152l16.487-45.6v16.984l-3.82 11.171zm16.487-30.94v1.537l-1.737 3.531zm-4.985 13.743.728-1.362 4.257-6.931v22.805l-16.487 16.221v-11.64zM789.3 823.38l-3.28 3.454-3.971 2.3zm-2.864 4.27.119-.039 7.986-8.408 15.539-15.292-.124.242.892-1 .272-.266v1.9L793.86 822.3l-.137.161v10.471l-16.3 7.428-.183-.056v-7.3zm7.281 6.308v9.742l-7.228-.566-7.732-2.364zm0 10.682v.708l-3.135-.958zm52.213-115.529v15l-16.487 22.2V749.55zm0 16.543v19.684l-16.487 15.908v-13.391zm0 20.969v7.277L829.443 788v-5.469zm0 8.5v21.757l-16.487 13.008v-20.667zm0 22.938v3.539l-16.487 14.87v-5.4zm0 4.79v24.868l-16.487-.7v-9.3zm0 25.8v15.655l-16.487-6.045v-10.316zm0 16.645v13.774l-16.487-7.581v-12.236zm0 14.8v8.132l-16.487-8.614v-7.1zm0 9.182v1.606l-16.487-5.291v-4.933zm0 2.583v17.308l-16.487-13.094v-9.5zm0 18.491v2.068l-16.487-8.765v-6.4zm0 3.12v12.874l-.973-.075-15.514-8.852V884.7zm-8.253 12.228-8.235-1.366v-5.851l13.344 7.614zm8.253-260.366v22.428l-8.952 27.146-6.142-1.254zm-8.056 49.784 8.056-24.427v14.117l-5.065 11.074zm3.9.993 4.161-9.1v3.142l-3.541 6.113zm1.547.4 2.614-4.514v1.726l-2.554 2.8zm2.614 1.72v9.369l-10.993-9.658zm-12.071-1.246-2.2-2.208 5.514 1.128 5.092 1.3zm12.071-1.891v2.086l-1.541-.394zm-15.955-1.754-.533-.288v-14.66l16.487-47.363v11.234zm15.955 15.5v3.15l-9.292 3.311-6.6-5.659-.68-1.559-13.792-18.7 3.73 1.234 4.981 1.289 4.5 1.843 1.2.647 3.4 3.407zm-17.4-43.968v13.363l-4.335 12.558-3.769-2.166zm0 16.176v11.6l-3.508-1.436zm.045 27.5.042.344-16.572.621v-6.628l.289-.246-.377-.183V702l-.34.274-5.395-1.874-11.527-10.853 16.7-4.267zm-44.991 195.47-6.352-.261v-1.171zm-41.157 2.818v-.113l11.841.127zm34.353-.6-17.405-.267-16.948-.181v-1.078l16.939.977 17.381.066 11.359.716zm-34.353-3.318v-.016l.147.016zm0-.953v-2.193l12.558 3.08-4.531-.047zm0-13.7v-9.075l16.485 7.864v8.439zm0-10.108v-7.141l16.485 10.034v4.971zm0-8.228v-7.806l16.485 7.847v9.994zm0-8.837V849.6l16.485 2.811v16.534zm0-12.441V837.82l16.485 2.639v11.006zm0-11.776v-3.162l16.485-.544v6.345zm0-4.1v-.415l11.093.051zm16.485-18.338v7.633l-8.316 9.181-2.869.059-1.932-1.71zm0 9.008v7.638l-7.046.141zm.916 79.425v-6.031l16.487 5.5v1.184l-13.671-.476-2.443-.118zm-.916-.2-11.377-3.055-5.108-.832v-9.5l16.485 7.226zm17.4-6.563v5.253l-16.487-5.5v-8.345zm0-5.746v4.7l-16.487-8.591v-4.914zm0-12.435v11.383l-16.484-8.809v-10.1zm0-17.6v16.573l-16.487-7.533v-16.63zm0-9.959v8.935l-16.487-7.6v-10.84zm0-7.557v6.49l-16.487-9.512v-6.306zm-33.888-22.365v-26.029l16.485-24.781v11.329zm0-27.7v-4.714l16.485-25.615v5.548zm0-6.415v-11.99l16.485-41.425v27.8zm0-14.472v-30l16.485-27.939v16.512zm0-31.808v-16.07l16.485-17.256v5.389zm0-21.987V651.5l16.485-8.666v26.626l-16.137 48.44zm16.485-45.707v33.03l-8.273 8.66-6.711 3.283zm-16.485-21.911v-24.9l16.485 2.806v13.432zm16.485-23.042-16.482-2.803v-12.429l16.485 12.716zm-16.485 95.24v-3.545l6.357-3.11zm16.485 60.7v29.682l-13.8 15.954-2.682-2.387v-3.759zM811.6 906.55l-17.391-.626-17.425-1.1-17.383-.065-8.848-.511 7.423-.38h1.382l17.4.8 10.135.414 7.241.157 2.747.291 14.648.048 6.824.853 10.586-.477 9.2 1.121L829 907l-7.875-.293zm51.733-12.636v9.963l-16.486-10.944v-2.247zm0-5.312v4.362l-16.486-3.228V872.6zm0-7.971v6.683l-16.486-16v-1.474zm0-8.428v7.32l-16.486-10.789v-8.057zm0-17.431v16.3l-16.486-11.525v-13.8zm0-19.131v18.073l-16.486-9.024v-15.8zm0-29.091v28.086l-16.486-6.748v-25.48zm0-11.287v10.327l-16.486-4.141v-3.935zm0-8.2v7.257l-16.486 2.251v-21.543zm0-32.413v31.265l-16.487-12.035v-8.091zm0-19v17.885l-16.487 11.135v-20.125zm0-10.86v9.8l-16.486 8.894v-15.3zm0-2.944v1.993l-16.486 3.4v-4.989zm-16.486-13.392V698.5l16.486 7.634V719.4l-4.779-.366-6.319-3.769zm0 3.593v-2.107l3.153 3.991zm0 6.09v-5.009l9.628 5.746zm16.486 2.2v.581l-16.486.406v-2.249zm-16.064-22.709 16.064-13.93v21.412l-14.945-6.92 1.206.032zm16.064-32.408v17.25l-16.486 14.293v-2.734zm0-17.615v15.765l-16.486 28.81v-1.81zm-16.486-6.078v-12.936l16.486-9.035v11.454l-.5 1.062zm0 24.288V642.6l15.4-9.108zm0 16.2v-14.072l14.229-29.852zm16.485-47.915v10.946l-16.486 42.774v-2.836zm.011-103.684-16.5 69.112-.01-20.188 16.5-69.436zm-.011 41.906V584.7l-7.847 18zM852.8 608.855l1.573-5.506-1.2 4.654zm10.532-21.611v12.593l-10.9 15.485zm-14.71 33.5 6.686-15.337-5.039 13zm-1.778 1.776-.01-19 16.5-69.106v34.24l-13.287 46.523zm16.487-21.078V618.5l-16.486 9.035v-2.67zm-16.486-26.11v-14.977l12.441-37.38zm0-17.879v-2.66l1.487-1.807zm-17.4 27.95v-2.273l1.344-.252zm-18.317 98.344v.377l-.075-.036zm.009-4.321-1.153 5.259-11.032 2.815 12.173-69.3zm-.008-73.179v6.63l-13.153 74.872-3.34.855V629.2zm-16.489 21.377v-2.666l7.909-8.349zm-6.884 3.99-10.518 12.373v-9.148zm-45.089 199.805-.323.007v-.149l-.282.156L724.6 834.2l-2.116-.618-8.358-3.741-6.092-6.4 2.3-.338-2.706-.225v-9.953l2.1 2.486 4.6 4.754 1.386 2.342 8.5 10.079.155.174h.2l17.295-5.429 4.506 4.011-2.738.056.343-.189zM602.3 906.444v.294l-16.487.033v-.206zm0-2.067v1.135l-16.487.123v-1zm0-2.216v1.283l-16.487.262v-1.833zm0-2.511v1.578l-16.487-.286v-1.508zm0-2.928v2l-16.49-.222v-1.689zm0-2.266v1.335l-16.487.089V894zm0-3.609v2.678l-16.487-.456v-1.65zm0-4.13v3.2l-16.487.573v-1.89zm0-4.874v3.934l-16.487 1.89v-1.6zm0-5.645v4.682l-16.49 4.22v-2.711zm0-5.27v4.278l-16.49 6.194v-9.619zm0-3.165V870l-16.487.851v-2.087zm0-4.679v3.745l-16.487 1v-6.7zm-5.337-10.177-11.15-7.6v-.264l12.369 7.871zm5.337.953v8.286l-16.487-1.963V853.8zm0-6.452v5.52l-2.381-.009-11.582-7.373zm-16.487 5.457v-6.438l9.5 6.474zm-.916 53.706v.2l-16.485.052v-.1zm0-1.917v.983l-16.485.149v-.735zm0-2.768v1.836l-16.485.4v-1.438zm0-2.457v1.522l-16.485.8v-2.184zm0-2.615v1.686l-16.485.135v-1.793zm0-2.842v1.91l-16.485.024v-2.439zm0-2.564v1.632l-16.485-.506v-2.092zm0-2.725v1.791l-14.825-.868zm0-2.413v1.478l-10.35.644zm0-3.648v2.7l-16.488 3.378v-3.185zm0-10.713v9.766l-16.485 2.893v-9.2zm0-3.158v2.206l-16.485 3.465v-6.972zm0-7.745v6.811l-16.485-1.3v-7.741zm0-7.331v6.391l-16.485-2.235v-9.348zm0-7.8v6.825l-16.485-5.195v-7.9zm1.066-144.287-.908.97-16.643 14.424v-.4l17.171-14.862zm17.737-19.02-.983 1.074.38-.759zm-.486 6.936v-5.039l11.115-12.14zm14.8-21.348.08.051 1.611-2.487v7.661l-16.486 41.247V691.2l14.877-22.988zm-49.6 166.352V806.9l16.485-30.635v25.955zm12.193 5.007-3.066.445-1.423-.678zm4.292-35.271V832.2l-2.836 6.456-8.142-.423-5.128-2.446zm-1.78 34.3 1.78-4.054v4.32l-.356-.019zm.191.182-.265-.013.041-.093zm-14.9-2.082 16.485 7.859v.387l-16.485-6.272zm0-31.679v-16.027l16.485-51.228v36.617zm0-19.013V765.43l16.485-49.62v18.907zm28.625 55.836-5.5-.055-2.937-1.4zm5.263-10.248-4.131 7.4-.148.367.4.326.432-.022 3.451-6.185v4.546l-4.651 2.98-11.841-2.052v-6.489l16.49-32.742zm-16.487-1.167v-27.91l16.489-28.374v23.535zm0-29.736v-26.126L602.3 720.1v52.159zm0-29.279v-36.476l16.489-41.433v23.49zm-.528 68.423 5.956 2.84 11.509.157 16.953.384v5.895l-13.034-1.481-3.841-1.032-17.338-2.788-6.435-3.069zm34.417-.333v2.78l-16.938-.383-4.711-.048 4.829-3.092zm-.937-8.911-5.674 7.685-9.875-.435v-6.005L619.7 800.3v28.963l-.143.194-1.857 1.611zm-4.564 7.734 5.5-7.451v4.679l-2.743 2.895zm5.5-82.156v42.208l-16.486 31.475v-31.972zm0-27.557v25.061l-16.486 41.714v-22.864zm0-52.7v50.089l-16.486 43.913V717.1zm-17.4 15.114L585.81 732.4v-19.293l12.346-20.357 4.142-8.272zm-16.575 20.452v-.734l-.581 1.752-.219.382-2.281 6.859-14.233 16.176V718.21l17.27-14.97 12.067-12.867zm-17.314 51.1v-25.27l13.49-15.326zm51.29 89.526v4.7l-16.486-3.726V847.6zm0 5.653v.134l-16.486 4.235v-8.094zm-2.38 1.707-14.107 7.106v-3.482zm2.38-.159v5.235l-16.487 5.314v-2.244zm0 6.214v5.906l-16.486 3.583v-4.174zm0 6.858v4.315l-16.486 4.014v-4.747zm0 5.275v5.734l-16.486 2.328v-4.049zm0 6.676v4.377l-16.486 1.211V886.6zm0 5.312v2.019l-16.486 1.877V890.8zm0 2.957v2.812l-16.486.42v-1.355zm0 3.744v1.886l-16.486.533v-2zm0 2.819v1.59l-16.486.525v-1.581zm0 2.522v1.417l-16.486.38v-1.273zm0 2.35v1.4l-16.486.12v-1.146zm0 2.337v.4l-16.486.019v-.3zm0-56.326v1.1l-7.037-1.9zm17.3-203.64.082.048.028-.045.008 5.793-16.5 69.945v-48.485l16.459-27.205zm-16.38 103.579v-23.847l16.48-69.909.01 26.764zm0 44.92v-41.089l16.48-66.941v44.529zm0 33.56V798.5L637.1 735v74.722l-4.46 8.245zm16.48-13.09v5.019l-13.824 6.985zm0-3.667v2.44l-2.489 2.161zm-16.487 23.44v-5.381l16.487-8.333v9.637zm16.487-3.118v2.465l-16.994 4.093-1.825-.082 2.119-2.349zm16.286-212.89 1.115-2.413v10.872l-16.486 52.511v-27.71l15.372-33.261zM638.018 728.19v-45.074L654.5 630.6v40.858zm7.487 73.638 9-15.154v10.454l-16.486 22.111v-4.8zm-7.487 10.787V809.9l16.482-66.038v40.606zm0-6.5v-74.638l16.482-56.733.011 65.284zm0 24.185v-9.517l16.482-22.112v15.8zm0 4.116v-2.834l16.482-15.828v11.864l-11.146 7.76zm17.4-208.471v-11.226l16.488-26.98V598.2zm0 42.694v-40.893L671.908 600v17.952zm0 68.055V671.6l16.488-50.684v54.9zm0 46.649V740.2l16.488-60.872v75.792l-2.623 6.937-13.556 20.921zm.981.268 15.509-23.911v12.262l-16.488 23.851v-10.859zm15.507-25.9v.3l-.278.429zm-16.486 55.914v-16.19l16.488-23.848v24.9zm16.488 29.839v4.11l-13.784-1.419zm-18.67 3.02-2.688 1.069 4.661-5.264 11.262-3.072-6.611 4.512-2.411 1.607-2.65.525-.11.044-.1-.01-.265.155-1.832.357zm1.266.5v3.409l-16.486 6.926v-3.773zm-27.738 10 10.337-3.133v3.849l-16.487 6.453v-5.575l3.5-.788 1.343-.4 1.763-.4zM637.41 845.1l-12.188 4.311-4.607-.274v-5.955l16.945.437 16.074-5.532.247-.144.981-.382-.444-.081.816-.848 10.046-5.034-10.528 7.302zm-16.794 5.94v-.969l2.344.139zm3.3 5.84-3.3-.012v-4.841l17.1-6.045 16.792-6v1.7l-7.061 7.112-10.016 3.992zm47.989-20.1v5.739l-12.095 2.36 9.451-6.441zm-16.488 4.49v-1.638l16.488-7.4v3.448l-3.069 1.926zm16.89-13.424-.37 3.357-12.609 5.655zm-17.076.4.187-.169v-13.196l16.488-15.137v27.138l-1.753.019.909.3h-.006l.36.116-1.021.33.592-.011-.307.215-15.923 7.978-1.292 1.275-.186.064-8.635-1.557zm-3.64 9.567-14.1 4.87-16.875-.433v-2.881l16.958-4.083zM637.1 858.7v6.285l-16.487 6.1v-5.934zm0 7.276v8.966l-16.485 1.558v-4.421zm0 9.9v8.5l-16.487-1.07v-5.87zm0 9.428v1.085l-16.487 2.168v-4.321zm0 2.025v5.819l-16.485-1.548v-2.1zm0 6.756v.974l-16.487.277v-2.8zm0 1.908v1.544l-16.487.605v-1.874zm0 2.476v2.221l-16.487-.006v-1.606zm0 3.153v1.29l-16.487.122v-1.417zm0 2.222v1.38l-16.487.153v-1.41zm0 2.311v.534l-16.487.03v-.41zm17.4-54.75v10.138l-16.486 3.2v-6.414zm0 11.088v11.216l-16.486 1.156v-9.172zm0 12.151v6.256l-16.486 3.4v-8.5zm0 7.209v3.447l-16.486 1v-1.056zm0 4.384v6.371l-16.486.569v-5.938zm0 7.3v1.318l-16.486.19v-.939zm0 2.252v1.124l-16.486.588v-1.521zm0 2.056v2.911l-16.486-.067v-2.254zm0 3.843v1.12l-16.486.094v-1.282zm0 2.052v1.493l-16.486-.018v-1.38zm0 2.425v.5l-16.486.019v-.537zm17.4-57.656v4.335l-16.488-2.541v-3.492zm0 5.279v4.179l-16.488 3.388v-10.11zm0 5.13v12.819l-16.488 1.882v-11.31zm0 13.756v7.1l-16.488 1v-6.225zm0 8.037v4.158l-16.488.39v-3.539zm0 5.09v6.566l-16.488.215V886.2zm0 7.5v2.046l-16.488-.48v-1.349zm0 2.978v1.627l-16.488-.982V895.8zm0 2.563v1.573l-16.488.336v-2.893zm0 2.507v1.95l-16.488-.477v-1.138zm0 2.882v1.212l-16.488-.2v-1.488zm0 2.144v.306l-16.488-.014v-.493zm.915-308.818v-11.122l16.486-6.011v8.276zm0 19.6v-18.545l16.486-8.861V605.9zm0 56.449v-55.327l16.486-11.251v27.255zm16.486 60.048v2.369l-1.374 1.736zm-16.486 23.177v-1.557l16.486-57.121v32.611l-3.051 9.11zm0-4.863v-75.987l16.486-39.32v58.187zm0 19.62v-13.271l16.486-20.808v32.073zm0 26.729v-25.79l16.486-2.006V801.9zm17.4-209.715v-7.737l10.048 9.959zm17 238.153-.032-.01-.057.01-.334-.108-.044.174-8.886 1.551-7.732-1.69v-.135l-.175.1-.078-.018-.012-.028h-.346l-.132-.078v.081l-13.172.132 5.031-1.668.239-.082 8.3-2.756 11.123 2.335h.115l5.681-.83v1.665l.018.22 1.773 1.667-.918-.392v-.143zm-17 2.952v-1.722l2.23 1.333zm0 .946 16.487-2.878v13.143l-16.487-.207zM689 819.645l-1.68 1.226-6.2 3.261-8.3 2.618v-27.48l16.486 3.58v16.568l-.343.206zm14.1 3.687-2.076.3-3.789-.8zm3.612-10.945V822.7l-12.465-1.041-3.46-1.954zm-33.5 15.619 8.457 2.753-8.792.276zm-.39 7.3v-3.331l7.371-.232-5.6 2.984zm0 .979 16.486-5.381v9.85l-16.486 1.639zm8.459-4.074 1.633-.585.537-.437 5.857-3.231v1.968l-9.648 3.15zm-5.39-4.308 12.174-.321-4.884 2.694zm19.561.9-1.6.278-1.672-1zm-5.229-26.849v-31.68l16.487-8.952v38.593zm0-32.728V736.5l16.487-6.639v30.4zm0-33.716v-4.488l16.487-19.755v17.6zm0-5.927v-34.577l16.487-39.72v54.535zm0-36.963v-58.037l16.487-15.677v33.985zm0-59.305V606.5l16.487-4.937v16.061zm16.487-32.713-16.487 4.937v-15.983l16.487 3.648zm0 200.262v10.508l-16.487 7.572v-16.05zm-16.863 20.435-.124-.017-2.135.71.271-.365 1.938-1.412 3.017 1.7zm-.539 20.395v10.1l-16.486-4.059v-4.4zm0 11.056v6.429l-16.486-6.107v-4.382zm-.2 7.349-16.291-2.149v-3.888zm.2.967v12.024l-16.486-1.357v-12.851zm0 12.958v9.027l-16.486-3.208v-7.173zm0 9.977v2.85l-16.486-1.931v-4.13zm0 3.789v3.9l-16.486.664v-6.495zm0 4.832v2.62l-16.486.123v-2.079zm0 3.553v2.423l-16.486-.636v-1.664zm0 3.355v1.6l-16.486-.691v-1.54zm0 2.528v1.66l-16.486-.387v-1.966zm0 2.593v.917l-16.486-.107v-1.2zm0 1.849v.2l-16.486-.013v-.3zm17.4-64.641v12.306l-16.487-2.191v-10.33zm0 13.245v3.319l-16.487.93V852.9zm0 4.252v4.668l-16.47-3.737zm0 5.623v14.265l-16.487-5.979v-12.036zm0 15.256v8.3l-16.487-5.263v-9.018zm0 9.279v3.139l-16.487-5.614v-2.788zm0 4.121v.626l-16.487-2.525v-3.714zm0 1.569v1.769l-16.487-1.688v-2.607zm0 2.707v1.52l-16.487-.792v-2.417zm0 2.453v1.185l-16.487-.392v-1.585zm0 2.117v1.412l-16.487-.157v-1.646zm0 2.344v.789l-16.487-.04v-.906zm0 1.722v.172l-16.487-.014v-.2zm.917-306.019v-6.837l12.2 7.952zm17.4 221.772v-12.1l16.487-20.969v4.916zm5.554 7.62-5.86 1.847-8.271-9.8-.045-.075 1.177.953 6.667 6.735.143.128zm10.934-6.342v2.894l-8.255 2.6-.644-.022zm-17.4-18.613v4.884l-9.379 9.4-3.723-4.3zm0-1.165-13.733 10.451-2.752-2.781v-10.945l16.485-16.585zm.916 4.916v-4.554l16.487-28.2v11.784zm0-6.377V782.92L741.516 744v30.132zm0-21.763v-37.351l16.487-18.232v16.647zm16.487-62.035-8.077 4.366-8.41-1.8V678.25l16.487-25.476zm-7.909 5.332 7.909-4.276v4.029l-16.487 18.232v-19.805l8.423 1.8zm-8.578-47.307v-45.028l16.487-5.882v25.423zm0-46.005v-19.086l16.487.218v12.974zm0-20.008v-7.318l16.487 6.786v.748zm-.044 213.643 16.531-28.221v26.513l-10.579 6.51-6.171-.207-6.574-6.636-2.8-2.264 8.716-8.734v12.436l.043.466h.2l.2.159zm-17.357-24.971v-38.486l16.485-16.581v38.471zm0-70.526v-18.588l16.485-30.2v41.364l-7.415 6.914zm9.449.41 7.036-6.56v20.309l-16.485 16.582v-29.819zm-9.449-20.9v-55.056l16.485-20.632v45.47zm0-56.519v-33.538l16.485-6.469v19.359zm16.485-40.993-16.485 6.471v-15.7l16.485 1.506zm-16.485 217.252 4.7 2.208 1.329.494 5.411 2.639-.351.043 1.1.325.549.267 1.091.309 1.1.644-1.108.116 1.678.217.135.089.845.131v6.2l-16.485-.686zm2.48-.42-2.48-2.331v-.706zm14 15.031v8.428l-16.485 3.136v-12.25zm0 9.376v6.518l-16.485-.064v-3.316zm0 7.45v10.84l-16.485-5.96v-4.944zm0 11.83v13.267l-16.485-4.936v-14.29zm0 14.239v7.9l-16.485-4.549v-8.286zm0 8.864v1.63l-16.48-3.049v-3.13zm0 2.576v1.783l-16.485-4.251v-.579zm-12.863.65-3.623-.478v-1.676l11.118 2.866zm-3.623.462 3.521.465 12.964 1.23v1.07l-16.485-1.295zm16.485 3.7v1.207l-16.485-1.33v-1.173zm0 2.142v1.242l-16.485-1.174v-1.4zm0 2.178v.188l-16.485-.593v-.769zm-9.155.791-7.33-.1v-.161zm-76.94-256.662v-5.313l10.876-18.223zm-17.4 21.671v-7.481L633.9 649.88zM741.516 906.7v.117l-16.487-.571v-.171zm-16.487-2.183v-.611l6.7.307zm16.487.188v1.063l-12.77-.486zm-.948-1.019-15.539-.714V901.8zm-1.222-4.547-14.318-3.013v-1.54l14.877 4.462zm-.076.938.043.013 2.2-.361v2.1l-10.925-1.952zm-14.241-1.255v-1.744l9.285 1.955zm16.487 3.958v.082l-16.487-2v-1.027zm0-13.824v9.6l-16.487-4.944v-7.943zm0-10.195v9.246l-16.487-3.286v-13.128zm0-8.31v7.3l-16.487-7.171v-10.808zm0-8.789v7.684l-16.487-10.682v-6.49zm0-12.3v11.226l-16.487-9.488v-8.3zm0-16.686v.152l-.327.028zm-2.417 1.286 2.417-.2v2.977l-12.945-1.668zm-3.692-.549 4-.639-.486.267zm6.109 4.27v10.681l-16.487-6.564v-6.235z" transform="translate(20.115 1321.989)" style="fill:#004b66;opacity:.803"/>
    </g>
</svg>
