<svg width="24" height="24" viewBox="0 0 24 24" fill="none" xmlns="http://www.w3.org/2000/svg">
<path d="M5 7.76627C5 6.21168 6.69594 5.25146 8.02899 6.05129L15.0853 10.2851C16.38 11.0619 16.38 12.9383 15.0853 13.7151L8.02899 17.9489C6.69595 18.7487 5 17.7885 5 16.2339V7.76627ZM14.0563 12.0001L7 7.76627V16.2339L14.0563 12.0001Z" fill="#0D0D0D"/>
<path d="M18 6.00008C18.5523 6.00008 19 6.4478 19 7.00008V17.0001C19 17.5524 18.5523 18.0001 18 18.0001C17.4477 18.0001 17 17.5524 17 17.0001V7.00008C17 6.4478 17.4477 6.00008 18 6.00008Z" fill="#0D0D0D"/>
</svg>
