<?xml version="1.0" encoding="UTF-8"?>
<svg fill="#FFFFFF" width="100pt" height="100pt" version="1.1" viewBox="0 0 100 100" xmlns="http://www.w3.org/2000/svg">
 <path d="m69.617 51.922l-31.734 18.27c-0.60156 0.71875-1.6367 0.89844-2.4453 0.42188-0.80859-0.47656-1.1562-1.4688-0.82031-2.3438v-36.539c-0.33594-0.875 0.011718-1.8672 0.82031-2.3438 0.80859-0.47656 1.8438-0.29688 2.4453 0.42188l31.734 18.27c0.75 0.34375 1.2305 1.0938 1.2305 1.9219s-0.48047 1.5781-1.2305 1.9219zm30.383-1.9219c0 13.262-5.2695 25.98-14.645 35.355s-22.094 14.645-35.355 14.645-25.98-5.2695-35.355-14.645-14.645-22.094-14.645-35.355 5.2695-25.98 14.645-35.355 22.094-14.645 35.355-14.645 25.98 5.2695 35.355 14.645 14.645 22.094 14.645 35.355zm-7.6914 0c0-11.219-4.457-21.98-12.391-29.918-7.9375-7.9336-18.699-12.391-29.918-12.391s-21.98 4.457-29.918 12.391c-7.9336 7.9375-12.391 18.699-12.391 29.918s4.457 21.98 12.391 29.918c7.9375 7.9336 18.699 12.391 29.918 12.391s21.98-4.457 29.918-12.391c7.9336-7.9375 12.391-18.699 12.391-29.918z"/>
</svg>
