<svg xmlns="http://www.w3.org/2000/svg" width="414.317" height="375.47" viewBox="0 0 414.317 375.47">
    <defs>
        <linearGradient id="go5ul08lua" x1=".99" x2="-.049" y1=".5" y2=".5" gradientUnits="objectBoundingBox">
            <stop offset="0" stop-color="#b254c4"/>
            <stop offset=".233" stop-color="#db4270"/>
            <stop offset=".402" stop-color="#ec4354"/>
            <stop offset=".57" stop-color="#fa443f"/>
            <stop offset=".681" stop-color="#ff4538"/>
            <stop offset=".756" stop-color="#fe5835"/>
            <stop offset=".909" stop-color="#fe8b2d"/>
            <stop offset="1" stop-color="#fead29"/>
        </linearGradient>
    </defs>
    <path fill="url(#go5ul08lua)" d="M128.909 393.92a171.011 171.011 0 0 1-4.967-29.744 223.431 223.431 0 0 1-.192-31.96c.694-11.1 1.956-22.236 3.666-33.148s3.837-21.47 6.326-31.477a254.765 254.765 0 0 1 8.495-27.786 145.3 145.3 0 0 1 10.637-22.717 106.723 106.723 0 0 1 12.541-17.3 85.868 85.868 0 0 1 14.532-12.979 95.78 95.78 0 0 1 34.812-15.028c12.843-2.823 27.17-4.162 42.971-4.447a313.873 313.873 0 0 1 52.42-.423 266.328 266.328 0 0 1 46.029 5.23c12.636 2.518 25.5 5.622 38.526 9.123s26.055 7.53 38.718 12.217a244.148 244.148 0 0 1 35.983 16.562 158.781 158.781 0 0 1 30.275 22.067 118.863 118.863 0 0 1 22.434 28.48 116.718 116.718 0 0 1 12.838 35.736 158.583 158.583 0 0 1 2.588 33.2 203.22 203.22 0 0 1-4.011 35.006 276.643 276.643 0 0 1-9.823 35.884 309.12 309.12 0 0 1-14.658 35.188 339.115 339.115 0 0 1-24.161 41.733c-11.327 16.544-23.281 30.3-35.64 41.213-11.269 10.038-22.771 17.265-34.645 21.059-11.913 2.972-25.086 2.416-39.736-1.642a192.417 192.417 0 0 1-22.713-8.032c-7.776-3.253-15.658-6.9-23.521-10.781-7.78-3.836-15.486-7.83-22.963-11.76s-14.73-7.7-21.893-11.323c-6.965-3.365-13.972-6.479-21.069-9.21a172.276 172.276 0 0 0-21.951-6.907c-7.57-1.566-15.334-2.947-23.153-4.614a178.261 178.261 0 0 1-23.451-6.663 98.3 98.3 0 0 1-22.03-11.139 99.9 99.9 0 0 1-18.578-16.583 110.061 110.061 0 0 1-14.6-21.17 120.106 120.106 0 0 1-10.036-25.865z" transform="translate(-123.272 -166.02)"/>
</svg>
