<svg xmlns="http://www.w3.org/2000/svg" width="462.599" height="320.114" viewBox="0 0 462.599 320.114">
    <defs>
        <linearGradient id="hwz84id56a" x1="-.009" x2=".989" y1=".5" y2=".5" gradientUnits="objectBoundingBox">
            <stop offset="0" stop-color="#e60082"/>
            <stop offset=".035" stop-color="#d60484"/>
            <stop offset=".134" stop-color="#af1089"/>
            <stop offset=".232" stop-color="#91198d"/>
            <stop offset=".328" stop-color="#7c1f90"/>
            <stop offset=".421" stop-color="#6f2392"/>
            <stop offset=".507" stop-color="#6b2593"/>
            <stop offset=".701" stop-color="#552c96"/>
            <stop offset="1" stop-color="#2d3a9c"/>
        </linearGradient>
    </defs>
    <path fill="url(#hwz84id56a)" d="M664.451 299.733c.587 11.681 1.477 23.863.981 36.058s-2.314 24.3-7.144 35.748c-9.362 22.193-29.047 39.231-49.785 51.062a261.474 261.474 0 0 1-29.834 14.446 252.889 252.889 0 0 1-29.861 10.182c-21.494 5.892-44.895 8.916-67.22 10.413-31.668 2.648-65.422 1.91-97.208-3.939a355.907 355.907 0 0 1-56.006-15.416c-55.668-20.215-110.991-59.579-121.3-123.747-5.019-31.235 1.649-64.729 20-90.1 18.61-25.73 49-41.78 80.271-40.457 40.413 1.711 76.323 31.643 117.555 25.453 37.723-5.665 61.519-41.017 93.759-58.116 45.179-23.962 118.085-13.041 141.767 33.195a70.829 70.829 0 0 1 7.621 32c.1 9.694-.45 19.361-1.1 29.089-1.298 18.911-3.397 36.179-2.496 54.129z" transform="translate(-205.455 -138.991)"/>
</svg>
