<svg width="24" height="24" viewBox="0 0 24 24" fill="none" xmlns="http://www.w3.org/2000/svg">
<path d="M19 7.76627C19 6.21168 17.3041 5.25146 15.971 6.05129L8.91466 10.2851C7.61998 11.0619 7.61998 12.9383 8.91466 13.7151L15.971 17.9489C17.3041 18.7487 19 17.7885 19 16.2339V7.76627ZM9.94365 12.0001L17 7.76627V16.2339L9.94365 12.0001Z" fill="#0D0D0D"/>
<path d="M6 6.00008C6.55228 6.00008 7 6.4478 7 7.00008V17.0001C7 17.5524 6.55228 18.0001 6 18.0001C5.44772 18.0001 5 17.5524 5 17.0001V7.00008C5 6.4478 5.44772 6.00008 6 6.00008Z" fill="#0D0D0D"/>
</svg>
