<svg width="75" height="5" viewBox="0 0 75 5" fill="none" xmlns="http://www.w3.org/2000/svg">
<g opacity="0.25">
<line x1="56.625" y1="2.7417" x2="56.625" y2="4.99976" stroke="white" stroke-width="0.75"/>
<line x1="50.375" y1="1.93555" x2="50.375" y2="5.00006" stroke="white" stroke-width="0.75"/>
<line y1="-0.375" x2="3.06452" y2="-0.375" transform="matrix(7.64348e-08 1 1 -2.63619e-08 62.5 1.93555)" stroke="white" stroke-width="0.75"/>
<line x1="44.125" y1="0.806641" x2="44.125" y2="5.00019" stroke="white" stroke-width="0.75"/>
<line y1="-0.375" x2="4.19355" y2="-0.375" transform="matrix(7.37399e-08 1 1 -2.69046e-08 68.75 0.806641)" stroke="white" stroke-width="0.75"/>
<line x1="37.875" y1="6.24204e-08" x2="37.875" y2="5" stroke="white" stroke-width="0.75"/>
<line y1="-0.375" x2="5" y2="-0.375" transform="matrix(6.47139e-09 1 1 -3.26505e-07 75 0)" stroke="white" stroke-width="0.75"/>
<line x1="19.125" y1="2.7417" x2="19.125" y2="4.99976" stroke="white" stroke-width="0.75"/>
<line x1="12.875" y1="1.93555" x2="12.875" y2="5.00006" stroke="white" stroke-width="0.75"/>
<line y1="-0.375" x2="3.06452" y2="-0.375" transform="matrix(7.87807e-08 1 1 -2.53931e-08 25 1.93555)" stroke="white" stroke-width="0.75"/>
<line x1="6.625" y1="0.806641" x2="6.625" y2="5.00019" stroke="white" stroke-width="0.75"/>
<line y1="-0.375" x2="4.19355" y2="-0.375" transform="matrix(7.57617e-08 1 1 -2.61866e-08 31.25 0.806641)" stroke="white" stroke-width="0.75"/>
<line x1="0.375" y1="1.34516e-08" x2="0.375" y2="5" stroke="white" stroke-width="0.75"/>
</g>
</svg>
