<svg width="119" height="19" viewBox="0 0 119 19" fill="none" xmlns="http://www.w3.org/2000/svg">
<path d="M4.56 3.64H0.08V0.999999H12.28V3.64H7.8V15H4.56V3.64ZM23.2495 9.66C23.2495 9.7 23.2295 9.98 23.1895 10.5H15.0495C15.1962 11.1667 15.5429 11.6933 16.0895 12.08C16.6362 12.4667 17.3162 12.66 18.1295 12.66C18.6895 12.66 19.1829 12.58 19.6095 12.42C20.0495 12.2467 20.4562 11.98 20.8295 11.62L22.4895 13.42C21.4762 14.58 19.9962 15.16 18.0495 15.16C16.8362 15.16 15.7629 14.9267 14.8295 14.46C13.8962 13.98 13.1762 13.32 12.6695 12.48C12.1629 11.64 11.9095 10.6867 11.9095 9.62C11.9095 8.56667 12.1562 7.62 12.6495 6.78C13.1562 5.92667 13.8429 5.26667 14.7095 4.8C15.5895 4.32 16.5695 4.08 17.6495 4.08C18.7029 4.08 19.6562 4.30667 20.5095 4.76C21.3629 5.21333 22.0295 5.86667 22.5095 6.72C23.0029 7.56 23.2495 8.54 23.2495 9.66ZM17.6695 6.44C16.9629 6.44 16.3695 6.64 15.8895 7.04C15.4095 7.44 15.1162 7.98667 15.0095 8.68H20.3095C20.2029 8 19.9095 7.46 19.4295 7.06C18.9495 6.64667 18.3629 6.44 17.6695 6.44ZM39.1067 4.08C40.4534 4.08 41.5201 4.48 42.3067 5.28C43.1067 6.06667 43.5067 7.25333 43.5067 8.84V15H40.3867V9.32C40.3867 8.46667 40.2067 7.83333 39.8467 7.42C39.5001 6.99333 39.0001 6.78 38.3467 6.78C37.6134 6.78 37.0334 7.02 36.6067 7.5C36.1801 7.96667 35.9667 8.66667 35.9667 9.6V15H32.8467V9.32C32.8467 7.62667 32.1667 6.78 30.8067 6.78C30.0867 6.78 29.5134 7.02 29.0867 7.5C28.6601 7.96667 28.4467 8.66667 28.4467 9.6V15H25.3267V4.24H28.3067V5.48C28.7067 5.02667 29.1934 4.68 29.7667 4.44C30.3534 4.2 30.9934 4.08 31.6867 4.08C32.4467 4.08 33.1334 4.23333 33.7467 4.54C34.3601 4.83333 34.8534 5.26667 35.2267 5.84C35.6667 5.28 36.2201 4.84667 36.8867 4.54C37.5667 4.23333 38.3067 4.08 39.1067 4.08ZM52.6633 4.08C53.6633 4.08 54.5699 4.31333 55.3833 4.78C56.2099 5.23333 56.8566 5.88 57.3233 6.72C57.7899 7.54667 58.0233 8.51333 58.0233 9.62C58.0233 10.7267 57.7899 11.7 57.3233 12.54C56.8566 13.3667 56.2099 14.0133 55.3833 14.48C54.5699 14.9333 53.6633 15.16 52.6633 15.16C51.2899 15.16 50.2099 14.7267 49.4233 13.86V18.88H46.3033V4.24H49.2833V5.48C50.0566 4.54667 51.1833 4.08 52.6633 4.08ZM52.1233 12.6C52.9233 12.6 53.5766 12.3333 54.0833 11.8C54.6033 11.2533 54.8633 10.5267 54.8633 9.62C54.8633 8.71333 54.6033 7.99333 54.0833 7.46C53.5766 6.91333 52.9233 6.64 52.1233 6.64C51.3233 6.64 50.6633 6.91333 50.1433 7.46C49.6366 7.99333 49.3833 8.71333 49.3833 9.62C49.3833 10.5267 49.6366 11.2533 50.1433 11.8C50.6633 12.3333 51.3233 12.6 52.1233 12.6ZM60.3319 0.999999H63.5719V12.36H70.5919V15H60.3319V0.999999ZM78.9478 15.24C77.4945 15.24 76.1811 14.9267 75.0078 14.3C73.8478 13.6733 72.9345 12.8133 72.2678 11.72C71.6145 10.6133 71.2878 9.37333 71.2878 8C71.2878 6.62667 71.6145 5.39333 72.2678 4.3C72.9345 3.19333 73.8478 2.32667 75.0078 1.7C76.1811 1.07333 77.4945 0.76 78.9478 0.76C80.4011 0.76 81.7078 1.07333 82.8678 1.7C84.0278 2.32667 84.9411 3.19333 85.6078 4.3C86.2745 5.39333 86.6078 6.62667 86.6078 8C86.6078 9.37333 86.2745 10.6133 85.6078 11.72C84.9411 12.8133 84.0278 13.6733 82.8678 14.3C81.7078 14.9267 80.4011 15.24 78.9478 15.24ZM78.9478 12.48C79.7745 12.48 80.5211 12.2933 81.1878 11.92C81.8545 11.5333 82.3745 11 82.7478 10.32C83.1345 9.64 83.3278 8.86667 83.3278 8C83.3278 7.13333 83.1345 6.36 82.7478 5.68C82.3745 5 81.8545 4.47333 81.1878 4.1C80.5211 3.71333 79.7745 3.52 78.9478 3.52C78.1211 3.52 77.3745 3.71333 76.7078 4.1C76.0411 4.47333 75.5145 5 75.1278 5.68C74.7545 6.36 74.5678 7.13333 74.5678 8C74.5678 8.86667 74.7545 9.64 75.1278 10.32C75.5145 11 76.0411 11.5333 76.7078 11.92C77.3745 12.2933 78.1211 12.48 78.9478 12.48ZM98.5028 7.78H101.463V13.46C100.703 14.0333 99.8228 14.4733 98.8228 14.78C97.8228 15.0867 96.8161 15.24 95.8028 15.24C94.3495 15.24 93.0428 14.9333 91.8828 14.32C90.7228 13.6933 89.8095 12.8333 89.1428 11.74C88.4895 10.6333 88.1628 9.38667 88.1628 8C88.1628 6.61333 88.4895 5.37333 89.1428 4.28C89.8095 3.17333 90.7295 2.31333 91.9028 1.7C93.0761 1.07333 94.3961 0.76 95.8628 0.76C97.0895 0.76 98.2028 0.966666 99.2028 1.38C100.203 1.79333 101.043 2.39333 101.723 3.18L99.6428 5.1C98.6428 4.04667 97.4361 3.52 96.0228 3.52C95.1295 3.52 94.3361 3.70667 93.6428 4.08C92.9495 4.45333 92.4095 4.98 92.0228 5.66C91.6361 6.34 91.4428 7.12 91.4428 8C91.4428 8.86667 91.6361 9.64 92.0228 10.32C92.4095 11 92.9428 11.5333 93.6228 11.92C94.3161 12.2933 95.1028 12.48 95.9828 12.48C96.9161 12.48 97.7561 12.28 98.5028 11.88V7.78ZM111.253 15.24C109.799 15.24 108.486 14.9267 107.313 14.3C106.153 13.6733 105.239 12.8133 104.573 11.72C103.919 10.6133 103.593 9.37333 103.593 8C103.593 6.62667 103.919 5.39333 104.573 4.3C105.239 3.19333 106.153 2.32667 107.313 1.7C108.486 1.07333 109.799 0.76 111.253 0.76C112.706 0.76 114.013 1.07333 115.173 1.7C116.333 2.32667 117.246 3.19333 117.913 4.3C118.579 5.39333 118.913 6.62667 118.913 8C118.913 9.37333 118.579 10.6133 117.913 11.72C117.246 12.8133 116.333 13.6733 115.173 14.3C114.013 14.9267 112.706 15.24 111.253 15.24ZM111.253 12.48C112.079 12.48 112.826 12.2933 113.493 11.92C114.159 11.5333 114.679 11 115.053 10.32C115.439 9.64 115.633 8.86667 115.633 8C115.633 7.13333 115.439 6.36 115.053 5.68C114.679 5 114.159 4.47333 113.493 4.1C112.826 3.71333 112.079 3.52 111.253 3.52C110.426 3.52 109.679 3.71333 109.013 4.1C108.346 4.47333 107.819 5 107.433 5.68C107.059 6.36 106.873 7.13333 106.873 8C106.873 8.86667 107.059 9.64 107.433 10.32C107.819 11 108.346 11.5333 109.013 11.92C109.679 12.2933 110.426 12.48 111.253 12.48Z" fill="black"/>
</svg>
