<svg width="14" height="12" viewBox="0 0 14 12" fill="none" xmlns="http://www.w3.org/2000/svg">
<path d="M13.136 1.69267C12.6847 1.90622 12.1935 2.05991 11.6876 2.11977C12.2129 1.7775 12.6062 1.23677 12.7938 0.599024C12.3009 0.920628 11.761 1.14614 11.198 1.26556C10.9626 0.989607 10.678 0.769768 10.3618 0.619744C10.0457 0.46972 9.70471 0.392727 9.36022 0.393561C7.96644 0.393561 6.84551 1.63281 6.84551 3.15355C6.84551 3.36711 6.8691 3.58066 6.90745 3.78612C4.82046 3.6664 2.95913 2.57276 1.72168 0.89832C1.4962 1.32076 1.37804 1.80175 1.3795 2.29126C1.3795 3.24901 1.82345 4.09351 2.50043 4.59018C2.10147 4.57294 1.71186 4.45266 1.36327 4.23911V4.27308C1.36327 5.61425 2.22757 6.72569 3.37947 6.98131C3.16319 7.04293 2.9407 7.07446 2.71724 7.07514C2.55353 7.07514 2.39866 7.05734 2.24232 7.03308C2.5609 8.12672 3.48862 8.92107 4.59332 8.94695C3.72903 9.68953 2.64644 10.1263 1.47094 10.1263C1.26003 10.1263 1.06534 10.1183 0.863281 10.0924C1.97831 10.877 3.3013 11.33 4.72606 11.33C9.35137 11.33 11.8823 7.12691 11.8823 3.47874C11.8823 3.35902 11.8823 3.2393 11.8749 3.11958C12.3646 2.72645 12.7938 2.23949 13.136 1.69267Z" fill="white"/>
</svg>
