<svg width="164" height="171" viewBox="0 0 164 171" fill="none" xmlns="http://www.w3.org/2000/svg">
<path d="M127.3 16.1997C140.2 24.2997 152.7 32.3997 158.7 43.7997C164.7 55.2997 164.3 70.0997 162.7 84.0997C161.1 97.9997 158.3 111 152 121.9C145.6 132.8 135.7 141.5 124.4 151.2C113.1 161 100.6 171.7 89.1001 169.8C77.6001 168 67.1001 153.6 53.0001 145.5C38.8001 137.5 20.9001 135.8 11.1001 126.7C1.20011 117.7 -0.499888 101.4 1.90011 86.3997C4.40011 71.4997 11.2001 57.9997 20.1001 47.3997C29.0001 36.6997 40.0001 28.8997 51.7001 20.0997C63.4001 11.2997 75.7001 1.49967 88.5001 0.699668C101.2 -0.100332 114.4 8.09967 127.3 16.1997Z" fill="#F38A23"/>
</svg>
