<svg width="16" height="12" viewBox="0 0 16 12" fill="none" xmlns="http://www.w3.org/2000/svg">
<path d="M15.1869 2.41834C15.1016 2.08753 14.9341 1.78585 14.7014 1.54349C14.4688 1.30113 14.179 1.1266 13.861 1.03736C12.6908 0.709961 8 0.709961 8 0.709961C8 0.709961 3.30915 0.709961 2.13895 1.03562C1.8209 1.12457 1.53096 1.29901 1.29822 1.54141C1.06549 1.78381 0.898168 2.08565 0.813058 2.4166C0.5 3.63563 0.5 6.17818 0.5 6.17818C0.5 6.17818 0.5 8.72073 0.813058 9.93802C0.985491 10.6102 1.49442 11.1396 2.13895 11.319C3.30915 11.6464 8 11.6464 8 11.6464C8 11.6464 12.6908 11.6464 13.861 11.319C14.5073 11.1396 15.0145 10.6102 15.1869 9.93802C15.5 8.72073 15.5 6.17818 15.5 6.17818C15.5 6.17818 15.5 3.63563 15.1869 2.41834ZM6.51004 8.51175V3.84461L10.394 6.16077L6.51004 8.51175Z" fill="white"/>
</svg>
